<?xml version="1.0" standalone="no"?>
<!DOCTYPE svg PUBLIC "-//W3C//DTD SVG 1.1//EN" "http://www.w3.org/Graphics/SVG/1.1/DTD/svg11.dtd" >
<svg xmlns="http://www.w3.org/2000/svg" xmlns:xlink="http://www.w3.org/1999/xlink" version="1.1">
<metadata></metadata>
<defs>
<font id="tp_heroregular" horiz-adv-x="1329" >
<font-face units-per-em="2048" ascent="1638" descent="-410" />
<missing-glyph horiz-adv-x="598" />
<glyph unicode="&#xfb01;" horiz-adv-x="1294" d="M59 963v139h158v178q0 163 103 265t262 102q91 0 178 -33v-152q-76 31 -164 31q-217 0 -217 -238v-153h323v-139h-323v-963h-160v963h-160zM924 1479q0 44 29 73t75 29q45 0 75 -29t30 -73t-30.5 -73.5t-74.5 -29.5q-46 0 -75 29t-29 74zM948 0v1102h160v-1102h-160z" />
<glyph unicode="&#xfb02;" horiz-adv-x="1294" d="M59 963v139h158v178q0 163 103 265t262 102q91 0 178 -33v-152q-76 31 -164 31q-217 0 -217 -238v-153h323v-139h-323v-963h-160v963h-160zM952 0v1636h160v-1636h-160z" />
<glyph horiz-adv-x="0" />
<glyph horiz-adv-x="682" />
<glyph unicode="&#xd;" horiz-adv-x="0" />
<glyph unicode=" "  horiz-adv-x="598" />
<glyph unicode="&#x09;" horiz-adv-x="598" />
<glyph unicode="&#xa0;" horiz-adv-x="598" />
<glyph unicode="!" horiz-adv-x="593" d="M182 106q0 51 32.5 84t82.5 33q51 0 84 -33t33 -84q0 -50 -33 -82t-84 -32q-50 0 -82.5 32.5t-32.5 81.5zM209 1522h172l-25 -1059h-123z" />
<glyph unicode="&#x22;" horiz-adv-x="712" d="M106 1522h164l-26 -531h-105zM442 1522h164l-26 -531h-105z" />
<glyph unicode="#" horiz-adv-x="1206" d="M100 492v120h236l47 310h-221v120h237l74 480h125l-74 -480h271l73 480h127l-73 -480h184v-120h-203l-45 -310h186v-120h-202l-72 -492h-127l74 492h-273l-71 -492h-125l71 492h-219zM463 612h268l49 310h-272z" />
<glyph unicode="$" horiz-adv-x="1146" d="M129 147v199q68 -79 178 -123.5t221 -44.5q140 0 235 73.5t95 190.5q0 54 -25 96t-67 70t-96 51.5t-114 45t-120.5 44.5t-114.5 55t-96 72t-67 101t-25 137q0 140 96.5 243.5t259.5 129.5v180h148v-174q169 -12 297 -86v-178q-58 44 -151.5 76t-190.5 32 q-135 0 -216 -64.5t-81 -162.5q0 -53 25 -94t67 -68.5t97 -50.5t115.5 -44t120.5 -44t115 -55.5t97 -74t67 -104t25 -141.5q0 -144 -106 -259.5t-281 -143.5v-178h-148v172q-198 10 -360 122z" />
<glyph unicode="%" horiz-adv-x="1708" d="M53 1169q0 165 105 274t264 109q157 0 260.5 -108.5t103.5 -274.5t-103.5 -275.5t-260.5 -109.5q-159 0 -264 109t-105 276zM184 1169q0 -118 71 -189t167 -71q93 0 163 71.5t70 188.5q0 118 -69.5 188t-163.5 70q-97 0 -167.5 -69.5t-70.5 -188.5zM272 0l1002 1522h162 l-1004 -1522h-160zM922 354q0 166 105 274.5t263 108.5q157 0 261 -109t104 -274q0 -166 -104 -275.5t-261 -109.5q-159 0 -263.5 109t-104.5 276zM1055 354q0 -118 69.5 -189t165.5 -71q93 0 163.5 71.5t70.5 188.5q0 119 -70 189.5t-164 70.5q-95 0 -165 -70.5t-70 -189.5 z" />
<glyph unicode="&#x26;" horiz-adv-x="1501" d="M119 395q0 79 25 144t73.5 115.5t104 88t131.5 74.5q-106 113 -159.5 201.5t-53.5 175.5q0 155 114 253.5t285 98.5q181 0 292 -104t111 -248q0 -74 -29 -137t-84 -113t-112 -85.5t-137 -74.5l344 -354l238 377h170l-310 -477l318 -330h-195l-207 213 q-93 -121 -203 -181.5t-249 -60.5q-205 0 -336 119.5t-131 304.5zM276 410q0 -125 87.5 -208t226.5 -83q206 0 354 192l-399 410q-63 -31 -106.5 -58.5t-83 -65t-59.5 -84.5t-20 -103zM395 1192q0 -66 42.5 -131t150.5 -180q72 33 119.5 60.5t92.5 63.5t67 79t22 94 q0 94 -67.5 159.5t-182.5 65.5q-111 0 -177.5 -61t-66.5 -150z" />
<glyph unicode="'" horiz-adv-x="376" d="M106 1522h164l-26 -531h-105z" />
<glyph unicode="(" horiz-adv-x="673" d="M117 631q0 258 96 484t264 407h187q-182 -172 -288 -401.5t-106 -489.5t106.5 -490t287.5 -405h-187q-168 181 -264 407.5t-96 487.5z" />
<glyph unicode=")" horiz-adv-x="673" d="M8 -264q181 175 288 405t107 490t-106.5 489.5t-288.5 401.5h189q168 -181 264 -407t96 -484q0 -261 -96 -487.5t-264 -407.5h-189z" />
<glyph unicode="*" horiz-adv-x="1095" d="M80 1255l47 148l362 -137l-26 370h155l-26 -370l366 139l56 -150l-391 -84l258 -288l-125 -90l-213 319l-209 -319l-127 90l254 288z" />
<glyph unicode="+" d="M84 688v146h500v509h151v-509h510v-146h-510v-510h-151v510h-500z" />
<glyph unicode="," horiz-adv-x="503" d="M111 -272q86 271 86 460v86h155v-79q0 -175 -121 -467h-120z" />
<glyph unicode="-" horiz-adv-x="733" d="M109 582v145h516v-145h-516z" />
<glyph unicode="." horiz-adv-x="503" d="M137 106q0 51 33 84t84 33q50 0 82.5 -33t32.5 -84q0 -49 -32.5 -81.5t-82.5 -32.5q-51 0 -84 32t-33 82z" />
<glyph unicode="/" horiz-adv-x="901" d="M29 -272l686 2066h157l-684 -2066h-159z" />
<glyph unicode="0" horiz-adv-x="1378" d="M129 760q0 182 44 332.5t120 250.5t177.5 154.5t217.5 54.5t217.5 -54.5t177.5 -154.5t120 -250.5t44 -332.5q0 -181 -44 -331.5t-119.5 -250t-177.5 -154.5t-218 -55t-218 55t-177.5 154.5t-119.5 250t-44 331.5zM293 760q0 -295 112.5 -466t282.5 -171t283.5 172 t113.5 465q0 294 -113.5 466.5t-283.5 172.5t-282.5 -172.5t-112.5 -466.5z" />
<glyph unicode="1" horiz-adv-x="937" d="M86 1135v170l528 223h19v-1528h-160v1300z" />
<glyph unicode="2" horiz-adv-x="1193" d="M74 0v16q107 119 164 182.5t137.5 154.5t120.5 138.5t96 115.5t81.5 104t59.5 86.5t48 81.5t29 69t19.5 69t4.5 64q0 131 -92.5 224.5t-249.5 93.5q-104 0 -197 -52t-166 -133v187q69 67 169.5 109t213.5 42q219 0 351 -134t132 -331q0 -60 -16 -120.5t-55.5 -132 t-83.5 -136.5t-123 -160.5t-149 -175t-185 -206.5h666v-156h-975z" />
<glyph unicode="3" horiz-adv-x="1177" d="M129 125v190q73 -88 176.5 -138t224.5 -50q158 0 252.5 83t94.5 212t-98.5 208t-266.5 79h-190v143h145q174 0 266 74.5t92 201.5q0 114 -81 191.5t-222 77.5q-104 0 -197.5 -45.5t-154.5 -118.5v180q65 65 160 102t205 37q102 0 187.5 -33.5t142.5 -89t88.5 -128.5 t31.5 -152q0 -120 -61 -214t-168 -138v-4q122 -44 202 -142t80 -243q0 -85 -32.5 -163t-93.5 -139t-156.5 -97t-212.5 -36q-249 0 -414 152z" />
<glyph unicode="4" horiz-adv-x="1351" d="M76 369v100l770 1053h131v-1006h266v-147h-266v-369h-154v369h-747zM276 516h547v750l-547 -746v-4z" />
<glyph unicode="5" horiz-adv-x="1179" d="M117 117v196q73 -89 182.5 -137.5t222.5 -48.5q163 0 264 92t101 238q0 149 -103 244.5t-278 95.5q-82 0 -146.5 -19t-140.5 -55l-16 12l141 787h641v-152h-524l-90 -461q95 31 176 31q117 0 214 -40.5t159.5 -107.5t96.5 -151.5t34 -175.5q0 -74 -19.5 -144.5 t-62 -134.5t-103.5 -112t-151.5 -76.5t-198.5 -28.5q-224 0 -399 148z" />
<glyph unicode="6" horiz-adv-x="1296" d="M129 477q0 120 51.5 228t159.5 239l463 578h186v-6l-452 -564q82 15 139 13q90 -3 176.5 -39t156 -97t112 -151.5t42.5 -194.5q0 -143 -64.5 -260t-183.5 -185.5t-268 -68.5q-112 0 -209 40.5t-164.5 109t-106 161.5t-38.5 197zM289 477q0 -143 102.5 -249.5 t255.5 -106.5t255 104t102 246q0 86 -33 155t-88.5 113t-125.5 67t-147 23q-111 0 -202 -45q-62 -81 -90.5 -151.5t-28.5 -155.5z" />
<glyph unicode="7" horiz-adv-x="1157" d="M131 1370v152h975v-21l-787 -1501h-174l723 1370h-737z" />
<glyph unicode="8" horiz-adv-x="1302" d="M137 399q0 129 73 234t204 151v4q-104 46 -169 136.5t-65 214.5q0 81 33.5 155.5t93 131.5t148.5 91.5t194 34.5t194.5 -34.5t149 -91.5t92.5 -131.5t33 -155.5q0 -124 -63.5 -215t-165.5 -138v-4q131 -46 203.5 -149.5t72.5 -233.5q0 -186 -143 -308t-373 -122 q-227 0 -369.5 123t-142.5 307zM299 412q0 -123 96 -209t254 -86q162 0 259.5 86t97.5 209q0 129 -99 213t-258 84q-156 0 -253 -84t-97 -213zM338 1130q0 -122 87.5 -199t223.5 -77q137 0 225.5 77t88.5 199q0 114 -89 194.5t-225 80.5t-223.5 -79t-87.5 -196z" />
<glyph unicode="9" horiz-adv-x="1296" d="M147 1042q0 137 64 253t181.5 186.5t264.5 70.5q148 0 264.5 -66.5t179 -180t62.5 -252.5q0 -111 -49.5 -221t-157.5 -240l-477 -592h-188v6l457 563q-64 -13 -119 -10q-84 2 -168.5 36.5t-155 94t-114.5 152t-44 200.5zM307 1051q0 -154 106 -255.5t261 -101.5 q114 0 207 43q65 84 94 156t29 156q0 148 -96.5 250t-250.5 102q-152 0 -251 -103t-99 -247z" />
<glyph unicode=":" horiz-adv-x="503" d="M137 106q0 51 33 84t84 33q50 0 82.5 -33t32.5 -84q0 -49 -32.5 -81.5t-82.5 -32.5q-51 0 -84 32t-33 82zM137 805q0 50 33 83.5t84 33.5q49 0 82 -33.5t33 -83.5t-33 -83.5t-82 -33.5q-51 0 -84 33.5t-33 83.5z" />
<glyph unicode=";" horiz-adv-x="503" d="M111 -272q86 271 86 460v86h155v-79q0 -175 -121 -467h-120zM137 805q0 50 33 83.5t84 33.5q49 0 82 -33.5t33 -83.5t-33 -83.5t-82 -33.5q-51 0 -84 33.5t-33 83.5z" />
<glyph unicode="&#x3c;" d="M131 678l1063 -442v163l-883 361l883 360v164l-1063 -444v-162z" />
<glyph unicode="=" d="M129 514v145h1071v-145h-1071zM129 862v146h1071v-146h-1071z" />
<glyph unicode="&#x3e;" d="M135 236l1061 442v162l-1061 444v-164l881 -360l-881 -361v-163z" />
<glyph unicode="?" horiz-adv-x="1013" d="M106 1204v191q66 68 166.5 112.5t212.5 44.5q188 0 312.5 -121.5t124.5 -306.5q0 -69 -20 -131t-76.5 -141.5t-101.5 -132.5t-150 -169l-27 -30h-176q33 38 85.5 97t78.5 88.5t64.5 75t56.5 71.5t41.5 63t33.5 64.5t17.5 60t7.5 64.5q0 129 -82 210t-209 81 q-97 0 -194 -54t-165 -137zM354 106q0 51 33 84t84 33q50 0 82.5 -33t32.5 -84q0 -49 -32.5 -81.5t-82.5 -32.5q-51 0 -84 32t-33 82z" />
<glyph unicode="@" horiz-adv-x="1988" d="M121 496q0 180 55 337t148.5 269t216 192.5t259 120t275.5 39.5q126 0 244.5 -30.5t221 -91.5t179 -146.5t120.5 -202t44 -250.5q0 -138 -47 -261t-125 -209.5t-183 -136.5t-218 -50h-70l12 174q-131 -195 -329 -195q-74 0 -139.5 27t-117 78t-82 132.5t-30.5 182.5 q0 151 61.5 278t169.5 201t238 74q105 0 187 -53t122 -154l53 189h111l-125 -820q66 11 130.5 52t118.5 106t87 160.5t33 204.5q0 117 -36 216t-98.5 169t-146.5 119t-179.5 72.5t-197.5 23.5q-121 0 -237 -32.5t-220 -100t-182 -162.5t-124 -229t-46 -291q0 -147 43 -267.5 t117 -201.5t175 -136t214 -79.5t238 -24.5q184 0 348 53l-20 -145q-171 -47 -338 -47q-147 0 -282 31.5t-254 99t-206 165.5t-137.5 239t-50.5 311zM707 487q0 -142 70.5 -217t176.5 -75q138 0 235 117t97 280q0 133 -69.5 215t-180.5 82q-137 0 -233 -118t-96 -284z" />
<glyph unicode="A" horiz-adv-x="1454" d="M31 0l604 1522h182l604 -1522h-174l-188 481h-668l-188 -481h-172zM449 631h550l-274 706z" />
<glyph unicode="B" horiz-adv-x="1314" d="M215 0v1522h440q232 0 360 -109.5t128 -282.5q0 -125 -64 -211.5t-168 -127.5v-5q137 -45 210 -142.5t73 -225.5q0 -86 -33 -161t-95.5 -133t-161.5 -91t-224 -33h-465zM375 150h303q167 0 259.5 77t92.5 203q0 130 -94.5 203.5t-245.5 73.5h-315v-557zM375 848h280 q153 0 239.5 75t86.5 195q0 121 -82.5 188.5t-226.5 67.5h-297v-526z" />
<glyph unicode="C" horiz-adv-x="1366" d="M121 764q0 177 62 327t166 249.5t239 155.5t282 56q229 0 400 -102v-174q-97 60 -189.5 90.5t-208.5 30.5q-110 0 -213.5 -43.5t-187 -122t-134 -201t-50.5 -268.5q0 -97 23.5 -185t64 -157t96.5 -125t121 -92.5t136.5 -56t143.5 -19.5q115 0 207.5 31t190.5 92v-176 q-176 -103 -400 -103q-117 0 -228 35t-205 104t-165 163.5t-111 221t-40 269.5z" />
<glyph unicode="D" horiz-adv-x="1490" d="M215 0v1522h350q243 0 426.5 -94.5t282 -266.5t98.5 -399q0 -228 -101 -401t-284 -267t-422 -94h-350zM375 152h198q282 0 457.5 161.5t175.5 446.5q0 287 -174.5 448.5t-453.5 161.5h-203v-1218z" />
<glyph unicode="E" horiz-adv-x="1165" d="M215 0v1522h805v-152h-645v-518h600v-150h-600v-550h645v-152h-805z" />
<glyph unicode="F" horiz-adv-x="1148" d="M215 0v1522h815v-152h-655v-557h626v-149h-626v-664h-160z" />
<glyph unicode="G" horiz-adv-x="1521" d="M121 760q0 175 59.5 325t161 251.5t238.5 158.5t290 57q241 0 430 -108v-176q-200 123 -428 123q-121 0 -228 -46t-186 -127t-125 -199.5t-46 -256.5q0 -185 77 -331t209 -225t293 -79q95 0 167 17t149 53v626h157v-727q-227 -127 -475 -127q-118 0 -229 36t-203.5 105 t-162.5 164t-109 220.5t-39 265.5z" />
<glyph unicode="H" horiz-adv-x="1548" d="M215 0v1522h160v-672h799v672h159v-1522h-159v698h-799v-698h-160z" />
<glyph unicode="I" horiz-adv-x="589" d="M215 0v1522h160v-1522h-160z" />
<glyph unicode="J" horiz-adv-x="931" d="M63 80v186q114 -135 269 -135q116 0 183 75.5t67 219.5v1096h159v-1121q0 -189 -108 -306.5t-291 -117.5q-78 0 -152.5 27t-126.5 76z" />
<glyph unicode="K" horiz-adv-x="1361" d="M215 0v1522h160v-744l721 744h204l-735 -758l744 -764h-211l-723 750v-750h-160z" />
<glyph unicode="L" horiz-adv-x="1116" d="M215 0v1522h160v-1370h682v-152h-842z" />
<glyph unicode="M" horiz-adv-x="2019" d="M131 0l240 1522h196l447 -1280h2l434 1280h203l235 -1522h-162l-194 1288h-4l-443 -1288h-147l-446 1278h-5l-194 -1278h-162z" />
<glyph unicode="N" horiz-adv-x="1628" d="M215 0v1522h166l883 -1260h4q-13 324 -13 932v328h158v-1522h-147l-899 1276h-5q11 -338 11 -936v-340h-158z" />
<glyph unicode="O" horiz-adv-x="1742" d="M121 760q0 222 96.5 403t269 285t385.5 104t385 -104t268.5 -285t96.5 -403q0 -166 -57 -312.5t-155.5 -251.5t-238.5 -166t-299 -61q-160 0 -300 60.5t-239 165.5t-155.5 251.5t-56.5 313.5zM287 760q0 -146 49 -268.5t131 -201t186.5 -122t218.5 -43.5t218.5 44 t186 123t130.5 201t49 267q0 146 -49 269t-130.5 202.5t-186 123.5t-218.5 44q-115 0 -220 -44t-186.5 -123.5t-130 -202t-48.5 -269.5z" />
<glyph unicode="P" horiz-adv-x="1208" d="M215 0v1522h356q263 0 420.5 -129.5t157.5 -356.5q0 -231 -157.5 -367.5t-416.5 -136.5h-200v-532h-160zM375 684h209q186 0 293.5 93t107.5 255q0 161 -106.5 249.5t-294.5 88.5h-209v-686z" />
<glyph unicode="Q" horiz-adv-x="1769" d="M119 760q0 222 96.5 403t269 285t385.5 104t385 -104t268.5 -285t96.5 -403q0 -155 -48.5 -292t-137.5 -243l219 -225l-111 -111l-223 228q-198 -148 -449 -148q-160 0 -300 60.5t-239 165.5t-155.5 251.5t-56.5 313.5zM285 760q0 -146 49 -268.5t131 -201t186.5 -122 t218.5 -43.5q189 0 336 108l-305 314l111 108l307 -313q135 167 135 418q0 146 -49 269t-130.5 202.5t-186 123.5t-218.5 44q-115 0 -220 -44t-186.5 -123.5t-130 -202t-48.5 -269.5z" />
<glyph unicode="R" horiz-adv-x="1269" d="M215 0v1522h387q254 0 388 -123t134 -324q0 -199 -141.5 -313.5t-390.5 -120.5l596 -641h-213l-578 635h-22v-635h-160zM375 774h196q191 0 290.5 81t99.5 216q0 141 -95 220t-276 79h-215v-596z" />
<glyph unicode="S" horiz-adv-x="1159" d="M125 109v190q79 -83 187 -129.5t225 -46.5q148 0 240.5 77.5t92.5 200.5q0 47 -18 87.5t-44.5 69.5t-78 61t-95 53t-120.5 55q-46 20 -73.5 33t-72.5 38t-73 46.5t-61.5 55.5t-53 69t-32.5 82t-13 100q0 81 33 154.5t93 128.5t149.5 87.5t195.5 32.5q93 0 188 -27.5 t164 -70.5v-176q-158 119 -354 119q-140 0 -223.5 -72t-83.5 -174q0 -50 20 -91.5t60.5 -75.5t84.5 -58.5t109 -53.5q14 -6 43 -18q41 -17 63 -26.5t63 -29t65 -34t59.5 -38.5t57 -46.5t46 -53t38.5 -62.5t23 -72t9 -84q0 -90 -36 -171t-99.5 -141t-157.5 -95.5t-204 -35.5 q-123 0 -231.5 41t-184.5 101z" />
<glyph unicode="T" horiz-adv-x="1232" d="M47 1370v152h1137v-152h-488v-1370h-159v1370h-490z" />
<glyph unicode="U" horiz-adv-x="1523" d="M195 569v953h159v-963q0 -201 107.5 -317.5t292.5 -116.5q189 0 302 117.5t113 320.5v959h160v-951q0 -270 -157 -436t-418 -166q-257 0 -408 165t-151 435z" />
<glyph unicode="V" horiz-adv-x="1435" d="M25 1522h174l522 -1340l518 1340h172l-606 -1522h-172z" />
<glyph unicode="W" horiz-adv-x="2205" d="M61 1522h170l375 -1305h2l418 1305h160l422 -1307h2l368 1307h166l-448 -1522h-172l-418 1290l-418 -1290h-172z" />
<glyph unicode="X" horiz-adv-x="1292" d="M59 0l490 766l-477 756h186l389 -629l391 629h185l-480 -752l490 -770h-184l-406 645l-399 -645h-185z" />
<glyph unicode="Y" horiz-adv-x="1318" d="M25 1522h182l457 -721h2l450 721h180l-555 -871v-651h-155v649z" />
<glyph unicode="Z" horiz-adv-x="1261" d="M88 0v16l819 1354h-764v152h1022v-15l-819 -1355h780v-152h-1038z" />
<glyph unicode="[" horiz-adv-x="665" d="M182 -430v2066h416v-141h-266v-1784h266v-141h-416z" />
<glyph unicode="\" horiz-adv-x="901" d="M29 1794h159l684 -2066h-157z" />
<glyph unicode="]" horiz-adv-x="665" d="M68 -289h266v1784h-266v141h413v-2066h-413v141z" />
<glyph unicode="^" d="M197 518l405 1004h127l406 -1004h-162l-307 782l-312 -782h-157z" />
<glyph unicode="_" horiz-adv-x="1079" d="M0 -211h1079v-135h-1079v135z" />
<glyph unicode="`" horiz-adv-x="1091" d="M332 1616l278 -340h140l-240 340h-178z" />
<glyph unicode="a" d="M102 549q0 129 42 239t112 183t160.5 114t187.5 41q124 0 231.5 -59.5t170.5 -173.5l20 209h129v-1102h-129l-20 211q-63 -115 -170.5 -175.5t-231.5 -60.5q-97 0 -187.5 41.5t-160.5 114.5t-112 182t-42 236zM262 551q0 -186 106.5 -305t264.5 -119q156 0 261 119.5 t105 304.5t-105 304.5t-261 119.5q-158 0 -264.5 -118.5t-106.5 -305.5z" />
<glyph unicode="b" d="M174 0v1636h160v-735q57 107 163 166t226 59q98 0 189 -40.5t161 -113.5t112 -182.5t42 -238.5q0 -103 -27.5 -194.5t-75.5 -160.5t-111.5 -119.5t-138.5 -76t-153 -25.5q-121 0 -228 60.5t-169 175.5l-21 -211h-129zM330 551q0 -185 105 -304.5t261 -119.5 q158 0 264.5 118.5t106.5 303.5q0 189 -106.5 307.5t-264.5 118.5q-156 0 -261 -119.5t-105 -304.5z" />
<glyph unicode="c" horiz-adv-x="1060" d="M102 553q0 160 71.5 291.5t198 206.5t281.5 75q184 0 303 -79v-168q-129 96 -299 96q-102 0 -191 -50t-146.5 -148.5t-57.5 -225.5q0 -128 57.5 -226.5t147 -148t192.5 -49.5q177 0 297 92v-168q-129 -76 -303 -76q-155 0 -281.5 75.5t-198 208t-71.5 294.5z" />
<glyph unicode="d" d="M102 551q0 129 42 238.5t112 182.5t161 113.5t189 40.5q119 0 225.5 -58.5t163.5 -164.5v733h160v-1636h-129l-20 211q-63 -115 -170 -175.5t-230 -60.5q-98 0 -188.5 41t-161 114t-112.5 183t-42 238zM262 551q0 -186 106.5 -305t264.5 -119q156 0 261 119.5t105 304.5 t-105 304.5t-261 119.5q-158 0 -264.5 -118.5t-106.5 -305.5z" />
<glyph unicode="e" horiz-adv-x="1204" d="M102 549q0 129 42.5 239t114 183t164 114t193.5 41q100 0 187 -36t153 -104t104 -175t38 -240q0 -35 -4 -75h-830q12 -176 121.5 -274.5t265.5 -98.5q226 0 385 151v-170q-163 -129 -391 -129q-240 0 -391.5 158t-151.5 416zM266 625h676q-2 89 -30 159t-73 112t-99 63.5 t-113 21.5q-147 0 -247 -104t-114 -252z" />
<glyph unicode="f" horiz-adv-x="741" d="M59 963v139h158v178q0 163 103 265t262 102q91 0 178 -33v-152q-76 31 -164 31q-217 0 -217 -238v-153h323v-139h-323v-963h-160v963h-160z" />
<glyph unicode="g" d="M102 569q0 120 42 225t112 176.5t161.5 112.5t188.5 41q121 0 229 -57.5t169 -161.5l20 197h129v-1022q0 -129 -43.5 -233t-117.5 -168.5t-167.5 -99t-197.5 -34.5q-109 0 -216 37.5t-194 104.5v178q180 -166 408 -166q153 0 260.5 97.5t107.5 252.5v182 q-63 -101 -166.5 -157t-222.5 -56q-97 0 -188 40t-160.5 110.5t-111.5 175t-42 225.5zM262 567q0 -172 107 -286.5t262 -114.5t261.5 117.5t106.5 294.5q0 171 -106 283t-262 112q-155 0 -262 -115.5t-107 -290.5z" />
<glyph unicode="h" horiz-adv-x="1220" d="M174 0v1636h160v-671h4q48 73 133 117t186 44q186 0 293 -103t107 -296v-727h-160v670q0 305 -268 305q-126 0 -210.5 -73.5t-84.5 -213.5v-688h-160z" />
<glyph unicode="i" horiz-adv-x="534" d="M162 1479q0 44 30 73t74 29q46 0 75.5 -29t29.5 -73t-29.5 -73.5t-75.5 -29.5q-44 0 -74 29.5t-30 73.5zM186 0v1102h160v-1102h-160z" />
<glyph unicode="j" horiz-adv-x="520" d="M-18 -430q104 107 154 240.5t50 326.5v965h160v-963q0 -186 -39.5 -320.5t-130.5 -248.5h-194zM162 1479q0 44 30 73t74 29q46 0 75.5 -29t29.5 -73t-29.5 -73.5t-75.5 -29.5q-44 0 -74 29.5t-30 73.5z" />
<glyph unicode="k" horiz-adv-x="1095" d="M174 0v1636h160v-1044l506 510h209l-523 -524l543 -578h-211l-524 563v-563h-160z" />
<glyph unicode="l" horiz-adv-x="522" d="M182 0v1636h160v-1636h-160z" />
<glyph unicode="m" horiz-adv-x="1748" d="M174 0v1102h125l18 -164h5q44 84 119.5 136t172.5 52q228 0 308 -194q106 194 317 194q175 0 261.5 -105.5t86.5 -285.5v-735h-160v715q0 256 -223 256q-111 0 -177 -76.5t-66 -181.5v-713h-160v715q0 256 -221 256q-114 0 -180 -80t-66 -191v-700h-160z" />
<glyph unicode="n" horiz-adv-x="1220" d="M174 0v1102h125l18 -170h5q52 84 140.5 139t199.5 55q180 0 287.5 -108.5t107.5 -288.5v-729h-160v666q0 305 -270 305q-124 0 -208.5 -83.5t-84.5 -209.5v-678h-160z" />
<glyph unicode="o" horiz-adv-x="1290" d="M102 551q0 162 70.5 293.5t195 206.5t277.5 75t277 -75t194 -206.5t70 -293.5q0 -163 -70 -295t-194 -206.5t-277 -74.5q-233 0 -388 164.5t-155 411.5zM262 551q0 -98 32.5 -179.5t86 -134t122 -81.5t142.5 -29t142.5 29t122 82t85 134.5t31.5 178.5t-31.5 178.5 t-85 134.5t-122 82t-142.5 29t-143 -29t-122.5 -82t-85.5 -134.5t-32 -178.5z" />
<glyph unicode="p" d="M174 -430v1532h129l21 -209q63 113 169.5 173t229.5 60q98 0 189 -41t161 -114t112 -182.5t42 -237.5t-42 -238t-112 -183t-161 -114t-189 -41q-118 0 -225.5 60t-163.5 164v-629h-160zM330 551q0 -185 105 -304.5t261 -119.5q158 0 264.5 118.5t106.5 307.5 q0 185 -106.5 303.5t-264.5 118.5q-156 0 -261 -119t-105 -305z" />
<glyph unicode="q" d="M102 551q0 128 41.5 237.5t111 182.5t160.5 114t189 41q124 0 231.5 -59.5t170.5 -173.5l20 209h129v-1532h-160v631q-59 -108 -165 -167t-226 -59q-97 0 -188 41.5t-160.5 114.5t-111.5 183t-42 237zM262 551q0 -186 106.5 -305t264.5 -119q156 0 261 119.5t105 304.5 t-105 304.5t-261 119.5q-158 0 -264.5 -118.5t-106.5 -305.5z" />
<glyph unicode="r" horiz-adv-x="761" d="M174 0v1102h129l16 -176h3q36 67 95 111.5t114 60.5t108 16q28 0 74 -4v-156q-42 6 -84 6h-21q-52 -2 -102 -26t-88 -59.5t-61 -95.5t-23 -134v-645h-160z" />
<glyph unicode="s" horiz-adv-x="1007" d="M125 104v181q151 -162 360 -162q116 0 188 52t72 124q0 26 -7.5 47.5t-26 40t-37.5 32t-53.5 29t-62 25.5t-75.5 27q-49 18 -74 27.5t-69 28.5t-68 35t-55 41.5t-47 51.5t-27.5 62t-11.5 77q0 129 106 216t277 87q96 0 185 -26t147 -70v-168q-60 54 -146 85.5t-182 31.5 q-105 0 -168 -43t-63 -111q0 -27 13.5 -51t33.5 -41t54 -34.5t64.5 -29t75.5 -26.5q52 -17 84 -28.5t76.5 -30.5t71.5 -36.5t57.5 -43t47 -53t27.5 -64.5t11 -80q0 -141 -114 -236.5t-297 -95.5q-215 0 -367 129z" />
<glyph unicode="t" horiz-adv-x="792" d="M49 963v139h172v258h154v-258h319v-139h-319v-580q0 -155 96 -215q64 -40 153 -39q45 0 97 10v-141q-80 -10 -123 -10q-174 0 -277.5 102t-103.5 287v586h-168z" />
<glyph unicode="u" horiz-adv-x="1208" d="M162 418v684h160v-688q0 -135 74.5 -211t203.5 -76q132 0 209.5 77t77.5 212v686h160v-682q0 -198 -121.5 -321.5t-325.5 -123.5q-203 0 -320.5 122.5t-117.5 320.5z" />
<glyph unicode="v" horiz-adv-x="1083" d="M53 1102h170l320 -920h4l317 920h166l-401 -1102h-174z" />
<glyph unicode="w" horiz-adv-x="1726" d="M68 1102h168l243 -920h4l297 920h170l297 -920h4l248 920h158l-314 -1102h-180l-295 895h-6l-295 -895h-184z" />
<glyph unicode="x" horiz-adv-x="1040" d="M53 0l377 553l-373 549h181l280 -428h6l275 428h176l-367 -545l379 -557h-182l-287 434h-4l-281 -434h-180z" />
<glyph unicode="y" horiz-adv-x="1083" d="M51 1102h176l316 -862h4l317 862h168l-596 -1532h-164l191 471z" />
<glyph unicode="z" horiz-adv-x="995" d="M45 0v10l649 942h-581v150h835v-10l-643 -942h592v-150h-852z" />
<glyph unicode="{" horiz-adv-x="729" d="M88 506v131q65 9 109.5 31.5t66 55.5t30.5 66t9 74v430q0 144 96 222.5t260 60.5v-139q-210 22 -210 -164v-402q0 -246 -175 -299v-4q175 -53 175 -299v-397q0 -88 51.5 -132t161.5 -32v-141q-165 -18 -262 60.5t-97 221.5v429q0 195 -215 227z" />
<glyph unicode="|" horiz-adv-x="649" d="M248 -375v2269h153v-2269h-153z" />
<glyph unicode="}" horiz-adv-x="729" d="M68 -291q110 -12 161.5 32t51.5 132v397q0 246 174 299v4q-174 53 -174 299v402q0 186 -211 164v139q164 18 260 -60.5t96 -222.5v-430q0 -41 9 -74t30.5 -66t66 -55.5t109.5 -31.5v-131q-215 -32 -215 -227v-429q0 -143 -96.5 -221.5t-261.5 -60.5v141z" />
<glyph unicode="~" d="M84 610q5 86 30 147.5t66 94.5t86.5 48t100.5 15q73 0 190.5 -39.5t228.5 -78.5t168 -39q60 0 99.5 37t48.5 116h139q-4 -86 -29 -147.5t-65.5 -94t-86.5 -47t-102 -14.5q-72 0 -189.5 39t-228.5 78t-167 39q-60 0 -100.5 -37.5t-49.5 -116.5h-139z" />
<glyph unicode="&#xa1;" horiz-adv-x="593" d="M182 1409q0 49 33 82t82 33q51 0 84 -32.5t33 -82.5q0 -51 -33 -84t-84 -33q-50 0 -82.5 33t-32.5 84zM209 -8l24 1061h123l25 -1061h-172z" />
<glyph unicode="&#xa2;" horiz-adv-x="1105" d="M102 573q0 214 132 364.5t337 176.5v209h127v-207q141 -9 248 -72v-163q-131 92 -299 92q-72 0 -140 -27.5t-122.5 -77.5t-87.5 -127t-33 -168q0 -122 57 -215t144.5 -138.5t189.5 -45.5q172 0 291 86v-162q-115 -61 -252 -69v-187h-127v189q-204 28 -334.5 178 t-130.5 364z" />
<glyph unicode="&#xa3;" horiz-adv-x="1212" d="M131 0v16q166 244 227 621l2 16h-178v135h201l43 277q38 247 150 367t301 120q104 0 192 -43v-159q-87 53 -188 53q-124 0 -199 -79.5t-104 -274.5l-41 -261h366v-135h-387l-4 -28q-49 -286 -158 -473h719v-152h-942z" />
<glyph unicode="&#xa4;" horiz-adv-x="1273" d="M164 1130l104 101l113 -113q117 84 262 84q138 0 254 -82l113 113l102 -105l-113 -110q86 -117 86 -256q0 -140 -86 -260l111 -107l-102 -104l-111 110q-116 -79 -254 -79q-143 0 -262 79l-113 -108l-102 102l110 113q-79 119 -79 254q0 136 79 252zM336 760 q0 -124 90 -214.5t215 -90.5q126 0 216.5 90t90.5 215q0 126 -90.5 215.5t-216.5 89.5q-125 0 -215 -89.5t-90 -215.5z" />
<glyph unicode="&#xa5;" horiz-adv-x="1361" d="M45 1522h182l455 -668h4l451 668h180l-518 -758h338v-131h-375v-148h375v-129h-375v-356h-158v356h-375v129h375v148h-375v131h336z" />
<glyph unicode="&#xa6;" horiz-adv-x="643" d="M248 -375v889h147v-889h-147zM248 1006v888h147v-888h-147z" />
<glyph unicode="&#xa7;" horiz-adv-x="1089" d="M147 -76q60 -72 157.5 -116t189.5 -44q118 0 196 63.5t78 162.5q0 28 -8 52.5t-18.5 43.5t-34.5 38.5t-42.5 32.5t-56 31.5t-62.5 29.5t-73 32q-39 17 -62.5 28t-62.5 32t-62.5 39.5t-53 47t-46 57.5t-28 68.5t-11.5 83.5q0 102 58.5 185t163.5 124q-185 110 -185 289 q0 149 111 248.5t297 99.5q166 0 299 -77v-170q-134 104 -301 104q-117 0 -184.5 -58t-67.5 -139q0 -79 55.5 -127t169.5 -96q10 -4 30 -13q46 -20 71 -31t69.5 -34.5t70 -42.5t58.5 -49.5t50.5 -61t30.5 -72t13 -87.5q0 -103 -54.5 -187.5t-143.5 -131.5q168 -111 168 -283 q0 -158 -118 -267.5t-306 -109.5q-107 0 -200 35.5t-155 89.5v180zM301 614q0 -42 16 -75t49.5 -59.5t69 -45.5t90.5 -43l88 -37q82 23 135.5 84.5t53.5 149.5q0 44 -16 78t-53.5 63t-75 49.5t-103.5 50.5q-119 -1 -186.5 -66.5t-67.5 -148.5z" />
<glyph unicode="&#xa8;" horiz-adv-x="1093" d="M244 1425q0 40 29.5 69.5t70.5 29.5t71.5 -29.5t30.5 -69.5q0 -41 -30.5 -70.5t-71.5 -29.5t-70.5 29.5t-29.5 70.5zM653 1425q0 40 29.5 69.5t71.5 29.5t71 -29.5t29 -69.5q0 -42 -29 -71t-71 -29t-71.5 29.5t-29.5 70.5z" />
<glyph unicode="&#xa9;" horiz-adv-x="1847" d="M129 760q0 160 62 306t167.5 252.5t253.5 170t312 63.5q163 0 310.5 -63.5t253.5 -170t169 -253t63 -305.5t-63 -304.5t-169 -252.5t-254 -170.5t-310 -63.5q-164 0 -312 63.5t-253.5 170.5t-167.5 252.5t-62 304.5zM258 760q0 -178 87.5 -330.5t241 -243t337.5 -90.5 q137 0 261 53.5t213 143t141 212t52 255.5q0 179 -88 332t-242 244t-337 91q-184 0 -337.5 -91t-241 -244t-87.5 -332zM524 762q0 128 61 229.5t158 155t207 53.5q131 0 221 -49v-137q-101 63 -206 63q-121 0 -213.5 -89.5t-92.5 -225.5q0 -135 93 -225.5t213 -90.5 q61 0 108 15.5t98 50.5v-137q-85 -51 -221 -51q-110 0 -207 53.5t-158 155t-61 229.5z" />
<glyph unicode="&#xaa;" horiz-adv-x="1118" d="M117 1083q0 102 33 190t88 146.5t126.5 91.5t147.5 33q99 0 182 -47.5t133 -136.5l19 162h115v-875h-115l-19 162q-50 -88 -133 -134t-182 -46q-76 0 -147.5 33t-126.5 91t-88 144t-33 186zM260 1083q0 -141 81 -231t202 -90q120 0 200 91t80 232q0 143 -80 234.5 t-200 91.5q-121 0 -202 -91.5t-81 -236.5z" />
<glyph unicode="&#xab;" horiz-adv-x="1318" d="M145 494v114l525 430v-176l-383 -311l383 -311v-177zM614 494v114l525 430v-176l-383 -311l383 -311v-177z" />
<glyph unicode="&#xac;" d="M84 688v146h1161v-656h-151v510h-1010z" />
<glyph unicode="&#xad;" horiz-adv-x="733" d="M109 582v145h516v-145h-516z" />
<glyph unicode="&#xae;" horiz-adv-x="1847" d="M129 760q0 160 62 306t167.5 252.5t253.5 170t312 63.5q163 0 310.5 -63.5t253.5 -170t169 -253t63 -305.5t-63 -304.5t-169 -252.5t-254 -170.5t-310 -63.5q-164 0 -312 63.5t-253.5 170.5t-167.5 252.5t-62 304.5zM258 760q0 -178 87.5 -330.5t241 -243t337.5 -90.5 q137 0 261 53.5t213 143t141 212t52 255.5q0 179 -88 332t-242 244t-337 91q-184 0 -337.5 -91t-241 -244t-87.5 -332zM680 340v860h211q155 0 238 -73t83 -187q0 -109 -80.5 -175.5t-187.5 -74.5l318 -350h-156l-295 340h-12v-340h-119zM797 784h75q104 0 161 40t57 116 q0 150 -226 150h-67v-306z" />
<glyph unicode="&#xaf;" horiz-adv-x="1091" d="M213 1362v125h670v-125h-670z" />
<glyph unicode="&#xb0;" horiz-adv-x="837" d="M82 1214q0 142 97.5 240t238.5 98q143 0 241.5 -98t98.5 -240q0 -141 -98.5 -238t-241.5 -97q-141 0 -238.5 97t-97.5 238zM190 1214q0 -96 67 -162.5t161 -66.5q98 0 163.5 66t65.5 163q0 98 -66 166t-163 68q-94 0 -161 -68.5t-67 -165.5z" />
<glyph unicode="&#xb1;" d="M88 0v145h1153v-145h-1153zM88 717v145h496v461h151v-461h506v-145h-506v-471h-151v471h-496z" />
<glyph unicode="&#xb2;" horiz-adv-x="749" d="M43 645v12q275 300 356.5 409t81.5 196q0 60 -41.5 101.5t-124.5 41.5q-62 0 -122 -27t-99 -71v143q44 37 108.5 60.5t129.5 23.5q126 0 205 -69.5t79 -194.5q0 -52 -16.5 -100t-63 -113t-96.5 -122t-149 -165h348v-125h-596z" />
<glyph unicode="&#xb3;" horiz-adv-x="731" d="M102 725v145q44 -51 109 -81.5t137 -30.5q76 0 130 38t54 101q0 70 -62.5 105.5t-162.5 35.5h-108v117h108q96 0 142.5 38t46.5 93q0 51 -41 85.5t-111 35.5q-60 1 -116.5 -23.5t-96.5 -68.5v141q93 78 229 78q123 0 198 -65.5t75 -163.5q0 -132 -131 -199v-2 q164 -62 164 -211q0 -105 -83 -180.5t-225 -75.5q-146 0 -256 88z" />
<glyph unicode="&#xb4;" horiz-adv-x="1091" d="M350 1276l240 340h178l-281 -340h-137z" />
<glyph unicode="&#xb5;" horiz-adv-x="1232" d="M174 -430v1532h160v-707q0 -117 78 -186.5t204 -69.5q111 0 196 75t85 179v709h160v-1102h-121l-18 174q-39 -79 -128 -130.5t-210 -51.5q-72 0 -150 34.5t-135 104.5l47 -561h-168z" />
<glyph unicode="&#xb6;" horiz-adv-x="1308" d="M61 1012q0 236 157.5 373t404.5 137h473v-1952h-150v1808h-137v-1808h-147v936h-62q-151 0 -272.5 59.5t-194 176t-72.5 270.5z" />
<glyph unicode="&#xb7;" horiz-adv-x="503" d="M137 762q0 51 33 84t84 33q50 0 82.5 -33t32.5 -84q0 -50 -32.5 -82.5t-82.5 -32.5q-51 0 -84 32.5t-33 82.5z" />
<glyph unicode="&#xb8;" horiz-adv-x="1091" d="M342 -346q86 103 129 187.5t43 197.5h139q0 -215 -139 -385h-172z" />
<glyph unicode="&#xb9;" horiz-adv-x="665" d="M123 1266v133l328 135h20v-893h-131v713z" />
<glyph unicode="&#xba;" horiz-adv-x="1107" d="M121 1085q0 197 122.5 328t309.5 131q186 0 310 -131t124 -328t-123.5 -326.5t-310.5 -129.5q-188 0 -310 129t-122 327zM260 1085q0 -148 87 -235.5t206 -87.5q120 0 205.5 87t85.5 236t-85.5 237.5t-205.5 88.5q-119 0 -206 -88.5t-87 -237.5z" />
<glyph unicode="&#xbb;" horiz-adv-x="1318" d="M281 63v177l383 311l-383 311v176l524 -430v-114zM750 63v177l383 311l-383 311v176l524 -430v-114z" />
<glyph unicode="&#xbc;" horiz-adv-x="1683" d="M117 1266v133l327 135h21v-893h-131v713zM291 0l1003 1522h142l-1002 -1522h-143zM907 207v84l451 590h112v-555h134v-119h-134v-207h-122v207h-441zM1063 326h285v364z" />
<glyph unicode="&#xbd;" horiz-adv-x="1677" d="M82 1266v133l328 135h20v-893h-131v713zM205 0l1003 1522h142l-1004 -1522h-141zM999 0v12q277 302 358 409.5t81 194.5q0 60 -41.5 102t-124.5 42q-62 0 -122 -27t-99 -71v143q44 37 108 60.5t129 23.5q126 0 205.5 -69.5t79.5 -194.5q0 -52 -16.5 -100.5t-62.5 -113 t-96 -122t-149 -164.5h346v-125h-596z" />
<glyph unicode="&#xbe;" horiz-adv-x="1722" d="M102 725v145q44 -51 109 -81.5t137 -30.5q76 0 130 38t54 101q0 70 -62.5 105.5t-162.5 35.5h-108v117h108q96 0 142.5 38t46.5 93q0 51 -41 85.5t-111 35.5q-60 1 -116.5 -23.5t-96.5 -68.5v141q93 78 229 78q123 0 198 -65.5t75 -163.5q0 -132 -131 -199v-2 q164 -62 164 -211q0 -105 -83 -180.5t-225 -75.5q-146 0 -256 88zM350 0l1002 1522h143l-1003 -1522h-142zM946 207v84l449 590h114v-555h131v-119h-131v-207h-123v207h-440zM1102 326h284v364z" />
<glyph unicode="&#xbf;" horiz-adv-x="1013" d="M100 397q0 56 17 111.5t41.5 102t75 112t93 114.5t120.5 136q6 7 9.5 10.5t9 9.5t9.5 11h178q-38 -43 -97 -110t-87.5 -99.5t-69 -82t-59 -79.5t-39 -69t-28 -73t-7.5 -71q0 -131 82 -211t209 -80q98 0 195 53.5t166 134.5v-190q-68 -68 -168 -113t-213 -45 q-188 0 -312.5 121.5t-124.5 306.5zM436 1415q0 51 32.5 84t82.5 33q51 0 84 -33t33 -84q0 -50 -33 -82.5t-84 -32.5q-49 0 -82 33t-33 82z" />
<glyph unicode="&#xc0;" horiz-adv-x="1454" d="M31 0l604 1522h182l604 -1522h-174l-188 481h-668l-188 -481h-172zM412 2036h178l239 -340h-139zM449 631h550l-274 706z" />
<glyph unicode="&#xc1;" horiz-adv-x="1454" d="M31 0l604 1522h182l604 -1522h-174l-188 481h-668l-188 -481h-172zM449 631h550l-274 706zM625 1696l241 340h176l-278 -340h-139z" />
<glyph unicode="&#xc2;" horiz-adv-x="1454" d="M31 0l604 1522h182l604 -1522h-174l-188 481h-668l-188 -481h-172zM395 1696l271 340h118l275 -340h-162l-172 229l-174 -229h-156zM449 631h550l-274 706z" />
<glyph unicode="&#xc3;" horiz-adv-x="1454" d="M31 0l604 1522h182l604 -1522h-174l-188 481h-668l-188 -481h-172zM358 1729q-7 121 56 180t155 59q50 0 95 -20t72 -43.5t63.5 -43.5t72.5 -20q53 0 79 37t24 84h119q7 -121 -56 -180.5t-157 -59.5q-49 0 -93.5 19.5t-71.5 43t-63.5 43t-72.5 19.5q-53 0 -79 -35.5 t-24 -82.5h-119zM449 631h550l-274 706z" />
<glyph unicode="&#xc4;" horiz-adv-x="1454" d="M31 0l604 1522h182l604 -1522h-174l-188 481h-668l-188 -481h-172zM420 1845q0 41 29.5 70t70.5 29q43 0 73 -29t30 -70t-30 -69.5t-73 -28.5q-41 0 -70.5 28.5t-29.5 69.5zM449 631h550l-274 706zM829 1845q0 41 29 70t72 29q42 0 71 -29t29 -70t-28.5 -69.5 t-71.5 -28.5t-72 28.5t-29 69.5z" />
<glyph unicode="&#xc5;" horiz-adv-x="1454" d="M31 0l604 1522h182l604 -1522h-174l-188 481h-668l-188 -481h-172zM449 631h550l-274 706zM514 1851q0 84 61.5 141.5t149.5 57.5q86 0 146.5 -57.5t60.5 -141.5q0 -81 -61 -138.5t-146 -57.5q-87 0 -149 58t-62 138zM614 1851q0 -44 32.5 -74t78.5 -30t77.5 30t31.5 74 q0 43 -32 75t-77 32t-78 -32t-33 -75z" />
<glyph unicode="&#xc6;" horiz-adv-x="2074" d="M10 0l1071 1522h848v-152h-645v-518h600v-150h-600v-550h645v-152h-805v485h-579l-340 -485h-195zM645 633h479v690z" />
<glyph unicode="&#xc7;" horiz-adv-x="1366" d="M121 764q0 177 62 327t166 249.5t239 155.5t282 56q229 0 400 -102v-174q-97 60 -189.5 90.5t-208.5 30.5q-110 0 -213.5 -43.5t-187 -122t-134 -201t-50.5 -268.5q0 -97 23.5 -185t64 -157t96.5 -125t121 -92.5t136.5 -56t143.5 -19.5q115 0 207.5 31t190.5 92v-176 q-166 -98 -379 -103q-16 -173 -133 -317h-174q75 90 117 163t53 163q-129 21 -243 84.5t-201.5 162t-138 238t-50.5 299.5z" />
<glyph unicode="&#xc8;" horiz-adv-x="1165" d="M215 0v1522h805v-152h-645v-518h600v-150h-600v-550h645v-152h-805zM303 2036l279 -340h139l-240 340h-178z" />
<glyph unicode="&#xc9;" horiz-adv-x="1165" d="M215 0v1522h805v-152h-645v-518h600v-150h-600v-550h645v-152h-805zM516 1696l242 340h176l-279 -340h-139z" />
<glyph unicode="&#xca;" horiz-adv-x="1165" d="M215 0v1522h805v-152h-645v-518h600v-150h-600v-550h645v-152h-805zM287 1696l270 340h119l274 -340h-162l-172 229l-174 -229h-155z" />
<glyph unicode="&#xcb;" horiz-adv-x="1165" d="M215 0v1522h805v-152h-645v-518h600v-150h-600v-550h645v-152h-805zM311 1845q0 41 30 70t71 29q43 0 72.5 -29t29.5 -70t-29.5 -69.5t-72.5 -28.5q-42 0 -71.5 28.5t-29.5 69.5zM721 1845q0 41 28.5 70t71.5 29t72 -29t29 -70t-29 -69.5t-72 -28.5t-71.5 28.5 t-28.5 69.5z" />
<glyph unicode="&#xcc;" horiz-adv-x="589" d="M-18 2036l278 -340h139l-239 340h-178zM215 0v1522h160v-1522h-160z" />
<glyph unicode="&#xcd;" horiz-adv-x="589" d="M195 1696l241 340h176l-278 -340h-139zM215 0v1522h160v-1522h-160z" />
<glyph unicode="&#xce;" horiz-adv-x="589" d="M-35 1696l271 340h118l275 -340h-162l-172 229l-174 -229h-156zM215 0v1522h160v-1522h-160z" />
<glyph unicode="&#xcf;" horiz-adv-x="589" d="M-10 1845q0 41 29.5 70t70.5 29q43 0 73 -29t30 -70t-30 -69.5t-73 -28.5q-41 0 -70.5 28.5t-29.5 69.5zM215 0v1522h160v-1522h-160zM399 1845q0 41 29 70t72 29q42 0 71 -29t29 -70t-28.5 -69.5t-71.5 -28.5t-72 28.5t-29 69.5z" />
<glyph unicode="&#xd0;" horiz-adv-x="1554" d="M78 700v129h205v693h350q243 0 426.5 -94.5t282 -266.5t98.5 -399q0 -171 -59 -313.5t-164.5 -241t-255.5 -153t-328 -54.5h-350v700h-205zM442 152h199q185 0 326.5 70t223 209t81.5 329q0 144 -47 260.5t-131 192.5t-198.5 116.5t-250.5 40.5h-203v-541h414v-129h-414 v-548z" />
<glyph unicode="&#xd1;" horiz-adv-x="1628" d="M215 0v1522h166l883 -1260h4q-13 324 -13 932v328h158v-1522h-147l-899 1276h-5q11 -338 11 -936v-340h-158zM446 1729q-7 121 56 180t155 59q50 0 95 -20t72.5 -43.5t64 -43.5t72.5 -20q53 0 78.5 37t23.5 84h119q7 -121 -56 -180.5t-157 -59.5q-49 0 -93.5 19.5 t-71.5 43t-63.5 43t-72.5 19.5q-53 0 -79 -35.5t-24 -82.5h-119z" />
<glyph unicode="&#xd2;" horiz-adv-x="1742" d="M121 760q0 222 96.5 403t269 285t385.5 104t385 -104t268.5 -285t96.5 -403q0 -166 -57 -312.5t-155.5 -251.5t-238.5 -166t-299 -61q-160 0 -300 60.5t-239 165.5t-155.5 251.5t-56.5 313.5zM287 760q0 -146 49 -268.5t131 -201t186.5 -122t218.5 -43.5t218.5 44 t186 123t130.5 201t49 267q0 146 -49 269t-130.5 202.5t-186 123.5t-218.5 44q-115 0 -220 -44t-186.5 -123.5t-130 -202t-48.5 -269.5zM506 2042l278 -340h140l-240 340h-178z" />
<glyph unicode="&#xd3;" horiz-adv-x="1742" d="M121 760q0 222 96.5 403t269 285t385.5 104t385 -104t268.5 -285t96.5 -403q0 -166 -57 -312.5t-155.5 -251.5t-238.5 -166t-299 -61q-160 0 -300 60.5t-239 165.5t-155.5 251.5t-56.5 313.5zM287 760q0 -146 49 -268.5t131 -201t186.5 -122t218.5 -43.5t218.5 44 t186 123t130.5 201t49 267q0 146 -49 269t-130.5 202.5t-186 123.5t-218.5 44q-115 0 -220 -44t-186.5 -123.5t-130 -202t-48.5 -269.5zM774 1702l240 340h178l-279 -340h-139z" />
<glyph unicode="&#xd4;" horiz-adv-x="1742" d="M121 760q0 222 96.5 403t269 285t385.5 104t385 -104t268.5 -285t96.5 -403q0 -166 -57 -312.5t-155.5 -251.5t-238.5 -166t-299 -61q-160 0 -300 60.5t-239 165.5t-155.5 251.5t-56.5 313.5zM287 760q0 -146 49 -268.5t131 -201t186.5 -122t218.5 -43.5t218.5 44 t186 123t130.5 201t49 267q0 146 -49 269t-130.5 202.5t-186 123.5t-218.5 44q-115 0 -220 -44t-186.5 -123.5t-130 -202t-48.5 -269.5zM545 1716l270 340h121l272 -340h-159l-175 228l-172 -228h-157z" />
<glyph unicode="&#xd5;" horiz-adv-x="1742" d="M121 760q0 222 96.5 403t269 285t385.5 104t385 -104t268.5 -285t96.5 -403q0 -166 -57 -312.5t-155.5 -251.5t-238.5 -166t-299 -61q-160 0 -300 60.5t-239 165.5t-155.5 251.5t-56.5 313.5zM287 760q0 -146 49 -268.5t131 -201t186.5 -122t218.5 -43.5t218.5 44 t186 123t130.5 201t49 267q0 146 -49 269t-130.5 202.5t-186 123.5t-218.5 44q-115 0 -220 -44t-186.5 -123.5t-130 -202t-48.5 -269.5zM494 1735q-6 121 57 180t156 59q49 0 93.5 -20t71.5 -43.5t64 -43.5t74 -20q51 0 76.5 36.5t25.5 84.5h119q3 -63 -14 -110.5 t-48.5 -74.5t-69.5 -40.5t-81 -13.5q-41 0 -77 13t-62.5 31.5t-51.5 37t-53.5 31.5t-58.5 13q-53 0 -79 -36.5t-24 -83.5h-118z" />
<glyph unicode="&#xd6;" horiz-adv-x="1742" d="M121 760q0 222 96.5 403t269 285t385.5 104t385 -104t268.5 -285t96.5 -403q0 -166 -57 -312.5t-155.5 -251.5t-238.5 -166t-299 -61q-160 0 -300 60.5t-239 165.5t-155.5 251.5t-56.5 313.5zM287 760q0 -146 49 -268.5t131 -201t186.5 -122t218.5 -43.5t218.5 44 t186 123t130.5 201t49 267q0 146 -49 269t-130.5 202.5t-186 123.5t-218.5 44q-115 0 -220 -44t-186.5 -123.5t-130 -202t-48.5 -269.5zM569 1886q0 41 30 70t71 29q43 0 72.5 -29t29.5 -70t-29.5 -69.5t-72.5 -28.5q-42 0 -71.5 28.5t-29.5 69.5zM979 1886q0 42 28.5 70.5 t71.5 28.5t72 -29t29 -70t-29 -69.5t-72 -28.5t-71.5 28.5t-28.5 69.5z" />
<glyph unicode="&#xd7;" d="M158 354l405 408l-405 405l100 103l406 -408l405 408l102 -103l-405 -405l405 -408l-100 -100l-407 408l-408 -408z" />
<glyph unicode="&#xd8;" horiz-adv-x="1753" d="M123 66l176 184q-168 214 -168 510q0 166 57 313t156.5 252t240 166t300.5 61q280 0 485 -180l158 166l86 -86l-160 -168q178 -216 178 -524q0 -222 -96.5 -403t-267.5 -284.5t-383 -103.5q-147 0 -276 50t-228 141l-170 -176zM299 760q0 -228 115 -391l846 888 q-161 142 -375 142q-115 0 -220.5 -44t-187 -123.5t-130 -202t-48.5 -269.5zM492 279q79 -74 181 -114t212 -40q113 0 217 44t185.5 123t130 201t48.5 267q0 236 -125 407z" />
<glyph unicode="&#xd9;" horiz-adv-x="1523" d="M195 569v953h159v-963q0 -201 107.5 -317.5t292.5 -116.5q189 0 302 117.5t113 320.5v959h160v-951q0 -270 -157 -436t-418 -166q-257 0 -408 165t-151 435zM449 2036l278 -340h139l-239 340h-178z" />
<glyph unicode="&#xda;" horiz-adv-x="1523" d="M195 569v953h159v-963q0 -201 107.5 -317.5t292.5 -116.5q189 0 302 117.5t113 320.5v959h160v-951q0 -270 -157 -436t-418 -166q-257 0 -408 165t-151 435zM662 1696l239 340h178l-278 -340h-139z" />
<glyph unicode="&#xdb;" horiz-adv-x="1523" d="M195 569v953h159v-963q0 -201 107.5 -317.5t292.5 -116.5q189 0 302 117.5t113 320.5v959h160v-951q0 -270 -157 -436t-418 -166q-257 0 -408 165t-151 435zM430 1696l272 340h119l273 -340h-160l-172 229l-174 -229h-158z" />
<glyph unicode="&#xdc;" horiz-adv-x="1523" d="M195 569v953h159v-963q0 -201 107.5 -317.5t292.5 -116.5q189 0 302 117.5t113 320.5v959h160v-951q0 -270 -157 -436t-418 -166q-257 0 -408 165t-151 435zM457 1845q0 41 29.5 70t70.5 29q43 0 72.5 -29t29.5 -70t-29.5 -69.5t-72.5 -28.5q-41 0 -70.5 28.5t-29.5 69.5 zM866 1845q0 41 29 70t72 29t71.5 -29t28.5 -70t-28.5 -69.5t-71.5 -28.5t-72 28.5t-29 69.5z" />
<glyph unicode="&#xdd;" horiz-adv-x="1318" d="M25 1522h182l457 -721h2l450 721h180l-555 -871v-651h-155v649zM559 1696l242 340h176l-279 -340h-139z" />
<glyph unicode="&#xde;" horiz-adv-x="1245" d="M215 0v1522h160v-250h248q252 0 408.5 -127.5t156.5 -358.5q0 -155 -73 -269.5t-199 -173t-289 -58.5h-252v-285h-160zM375 436h258q177 0 282 95t105 251q0 157 -103 246.5t-282 89.5h-260v-682z" />
<glyph unicode="&#xdf;" horiz-adv-x="1292" d="M174 0v1159q0 219 124.5 353.5t332.5 134.5q191 0 305.5 -111t114.5 -270q0 -113 -55.5 -201.5t-147.5 -128.5v-2q75 -17 138 -51t115 -87.5t81.5 -133.5t29.5 -179q0 -118 -42.5 -213t-115.5 -155.5t-168.5 -92.5t-205.5 -32q-80 0 -166 20v148q78 -19 156 -19t146.5 22 t121.5 64.5t84 111.5t31 157q0 163 -104 250t-285 87h-119v136h47q140 0 221.5 74.5t81.5 195.5q0 115 -75.5 188.5t-194.5 73.5q-130 0 -209.5 -86.5t-79.5 -238.5v-1174h-162z" />
<glyph unicode="&#xe0;" d="M102 549q0 129 42 239t112 183t160.5 114t187.5 41q124 0 231.5 -59.5t170.5 -173.5l20 209h129v-1102h-129l-20 211q-63 -115 -170.5 -175.5t-231.5 -60.5q-97 0 -187.5 41.5t-160.5 114.5t-112 182t-42 236zM262 551q0 -186 106.5 -305t264.5 -119q156 0 261 119.5 t105 304.5t-105 304.5t-261 119.5q-158 0 -264.5 -118.5t-106.5 -305.5zM362 1597l281 -340h137l-239 340h-179z" />
<glyph unicode="&#xe1;" d="M102 549q0 129 42 239t112 183t160.5 114t187.5 41q124 0 231.5 -59.5t170.5 -173.5l20 209h129v-1102h-129l-20 211q-63 -115 -170.5 -175.5t-231.5 -60.5q-97 0 -187.5 41.5t-160.5 114.5t-112 182t-42 236zM262 551q0 -186 106.5 -305t264.5 -119q156 0 261 119.5 t105 304.5t-105 304.5t-261 119.5q-158 0 -264.5 -118.5t-106.5 -305.5zM578 1257l239 340h178l-280 -340h-137z" />
<glyph unicode="&#xe2;" d="M102 549q0 129 42 239t112 183t160.5 114t187.5 41q124 0 231.5 -59.5t170.5 -173.5l20 209h129v-1102h-129l-20 211q-63 -115 -170.5 -175.5t-231.5 -60.5q-97 0 -187.5 41.5t-160.5 114.5t-112 182t-42 236zM262 551q0 -186 106.5 -305t264.5 -119q156 0 261 119.5 t105 304.5t-105 304.5t-261 119.5q-158 0 -264.5 -118.5t-106.5 -305.5zM346 1257l270 340h121l273 -340h-160l-174 228l-174 -228h-156z" />
<glyph unicode="&#xe3;" d="M102 549q0 129 42 239t112 183t160.5 114t187.5 41q124 0 231.5 -59.5t170.5 -173.5l20 209h129v-1102h-129l-20 211q-63 -115 -170.5 -175.5t-231.5 -60.5q-97 0 -187.5 41.5t-160.5 114.5t-112 182t-42 236zM262 551q0 -186 106.5 -305t264.5 -119q156 0 261 119.5 t105 304.5t-105 304.5t-261 119.5q-158 0 -264.5 -118.5t-106.5 -305.5zM309 1290q-3 62 14 109.5t48.5 74.5t69.5 40.5t81 13.5q49 0 93.5 -19.5t72 -43t64.5 -43t73 -19.5q53 0 79 36t24 83h119q3 -62 -14 -109.5t-48.5 -74.5t-69.5 -40.5t-81 -13.5q-49 0 -93.5 19.5 t-72 43t-64.5 43t-74 19.5q-53 0 -78.5 -36t-23.5 -83h-119z" />
<glyph unicode="&#xe4;" d="M102 549q0 129 42 239t112 183t160.5 114t187.5 41q124 0 231.5 -59.5t170.5 -173.5l20 209h129v-1102h-129l-20 211q-63 -115 -170.5 -175.5t-231.5 -60.5q-97 0 -187.5 41.5t-160.5 114.5t-112 182t-42 236zM262 551q0 -186 106.5 -305t264.5 -119q156 0 261 119.5 t105 304.5t-105 304.5t-261 119.5q-158 0 -264.5 -118.5t-106.5 -305.5zM373 1407q0 40 29.5 69t70.5 29t71.5 -29t30.5 -69q0 -41 -30 -69.5t-72 -28.5q-41 0 -70.5 28.5t-29.5 69.5zM782 1407q0 40 29.5 69t71.5 29q41 0 70.5 -29t29.5 -69q0 -41 -29.5 -69.5t-70.5 -28.5 q-43 0 -72 28.5t-29 69.5z" />
<glyph unicode="&#xe5;" d="M102 549q0 129 42 239t112 183t160.5 114t187.5 41q124 0 231.5 -59.5t170.5 -173.5l20 209h129v-1102h-129l-20 211q-63 -115 -170.5 -175.5t-231.5 -60.5q-97 0 -187.5 41.5t-160.5 114.5t-112 182t-42 236zM262 551q0 -186 106.5 -305t264.5 -119q156 0 261 119.5 t105 304.5t-105 304.5t-261 119.5q-158 0 -264.5 -118.5t-106.5 -305.5zM467 1413q0 85 61 142t150 57q86 0 146.5 -57.5t60.5 -141.5q0 -81 -61 -138.5t-146 -57.5q-88 0 -149.5 58t-61.5 138zM567 1413q0 -45 31.5 -74.5t79.5 -29.5q46 0 76 29t30 75q0 43 -30.5 74 t-75.5 31q-47 0 -79 -31t-32 -74z" />
<glyph unicode="&#xe6;" horiz-adv-x="1947" d="M98 319q0 95 42.5 166.5t134 119.5t235 55.5t346.5 -25.5v51q0 124 -81 208.5t-234 84.5q-97 0 -189 -37t-151 -92v162q62 50 155.5 82t194.5 32q150 0 255.5 -69t145.5 -170q49 94 158.5 166.5t249.5 72.5q100 0 186.5 -36t152 -104t103 -175t37.5 -240q0 -35 -4 -75 h-829q8 -96 42.5 -169.5t88 -117.5t118.5 -66t140 -22q97 0 199 34.5t184 112.5v-170q-80 -57 -182 -90t-207 -33q-152 0 -270.5 68t-184.5 193q-59 -116 -173 -187.5t-259 -71.5q-182 0 -293 101t-111 241zM254 324q0 -86 71.5 -146.5t184.5 -60.5q62 0 122.5 21t111 60.5 t81.5 105t31 145.5v65q-303 56 -452.5 2t-149.5 -192zM1008 623h678q-2 90 -30.5 160t-74.5 112.5t-102.5 64t-118.5 21.5q-140 0 -238.5 -98.5t-113.5 -259.5z" />
<glyph unicode="&#xe7;" horiz-adv-x="1060" d="M102 553q0 160 71.5 291.5t198 206.5t281.5 75q184 0 303 -79v-168q-129 96 -299 96q-102 0 -191 -50t-146.5 -148.5t-57.5 -225.5q0 -128 57.5 -226.5t147 -148t192.5 -49.5q177 0 297 92v-168q-121 -70 -274 -76q-16 -175 -135 -321h-172q76 93 117.5 166t52.5 166 q-196 38 -319.5 195t-123.5 372z" />
<glyph unicode="&#xe8;" horiz-adv-x="1204" d="M102 549q0 129 42.5 239t114 183t164 114t193.5 41q100 0 187 -36t153 -104t104 -175t38 -240q0 -35 -4 -75h-830q12 -176 121.5 -274.5t265.5 -98.5q226 0 385 151v-170q-163 -129 -391 -129q-240 0 -391.5 158t-151.5 416zM266 625h676q-2 89 -30 159t-73 112t-99 63.5 t-113 21.5q-147 0 -247 -104t-114 -252zM313 1616l279 -340h139l-239 340h-179z" />
<glyph unicode="&#xe9;" horiz-adv-x="1204" d="M102 549q0 129 42.5 239t114 183t164 114t193.5 41q100 0 187 -36t153 -104t104 -175t38 -240q0 -35 -4 -75h-830q12 -176 121.5 -274.5t265.5 -98.5q226 0 385 151v-170q-163 -129 -391 -129q-240 0 -391.5 158t-151.5 416zM266 625h676q-2 89 -30 159t-73 112t-99 63.5 t-113 21.5q-147 0 -247 -104t-114 -252zM526 1276l240 340h178l-278 -340h-140z" />
<glyph unicode="&#xea;" horiz-adv-x="1204" d="M102 549q0 129 42.5 239t114 183t164 114t193.5 41q100 0 187 -36t153 -104t104 -175t38 -240q0 -35 -4 -75h-830q12 -176 121.5 -274.5t265.5 -98.5q226 0 385 151v-170q-163 -129 -391 -129q-240 0 -391.5 158t-151.5 416zM266 625h676q-2 89 -30 159t-73 112t-99 63.5 t-113 21.5q-147 0 -247 -104t-114 -252zM295 1276l272 340h119l272 -340h-159l-172 227l-174 -227h-158z" />
<glyph unicode="&#xeb;" horiz-adv-x="1204" d="M102 549q0 129 42.5 239t114 183t164 114t193.5 41q100 0 187 -36t153 -104t104 -175t38 -240q0 -35 -4 -75h-830q12 -176 121.5 -274.5t265.5 -98.5q226 0 385 151v-170q-163 -129 -391 -129q-240 0 -391.5 158t-151.5 416zM266 625h676q-2 89 -30 159t-73 112t-99 63.5 t-113 21.5q-147 0 -247 -104t-114 -252zM322 1425q0 40 29.5 69.5t70.5 29.5q42 0 72 -29.5t30 -69.5q0 -41 -29.5 -70.5t-72.5 -29.5q-41 0 -70.5 29.5t-29.5 70.5zM731 1425q0 40 29 69.5t71 29.5t71.5 -29.5t29.5 -69.5q0 -41 -29 -70.5t-72 -29.5q-42 0 -71 29t-29 71z " />
<glyph unicode="&#xec;" horiz-adv-x="534" d="M-47 1616l280 -340h138l-240 340h-178zM186 0v1102h160v-1102h-160z" />
<glyph unicode="&#xed;" horiz-adv-x="534" d="M168 1276l240 340h178l-281 -340h-137zM186 0v1102h160v-1102h-160z" />
<glyph unicode="&#xee;" horiz-adv-x="534" d="M-63 1276l270 340h119l274 -340h-162l-172 227l-174 -227h-155zM186 0v1102h160v-1102h-160z" />
<glyph unicode="&#xef;" horiz-adv-x="534" d="M-39 1425q0 40 30 69.5t70 29.5q42 0 72.5 -29.5t30.5 -69.5q0 -41 -30 -70.5t-73 -29.5q-40 0 -70 29.5t-30 70.5zM186 0v1102h160v-1102h-160zM371 1425q0 40 29.5 69.5t70.5 29.5q42 0 71 -29.5t29 -69.5q0 -42 -29 -71t-71 -29q-41 0 -70.5 29.5t-29.5 70.5z" />
<glyph unicode="&#xf0;" horiz-adv-x="1290" d="M102 549q0 121 41 227.5t111 181.5t167.5 118.5t207.5 43.5q170 0 301 -131l4 2q-25 62 -91.5 161.5t-164.5 217.5l-203 -104l-45 88l180 92q-79 91 -178 190h203q55 -62 108 -123l203 105l45 -86l-184 -94q189 -232 285 -437t96 -423q0 -174 -70.5 -312t-194.5 -214.5 t-278 -76.5q-233 0 -388 164t-155 410zM262 549q0 -97 32.5 -178.5t86 -133.5t122 -81t142.5 -29t142.5 29.5t122 83t85 136.5t31.5 183q0 187 -113 300.5t-268 113.5q-75 0 -143.5 -29t-122 -81.5t-85.5 -134t-32 -179.5z" />
<glyph unicode="&#xf1;" horiz-adv-x="1220" d="M174 0v1102h125l18 -170h5q52 84 140.5 139t199.5 55q180 0 287.5 -108.5t107.5 -288.5v-729h-160v666q0 305 -270 305q-124 0 -208.5 -83.5t-84.5 -209.5v-678h-160zM260 1309q-4 62 13 109t48 74t69 40.5t81 13.5q50 0 95 -19.5t72 -43t63.5 -43t72.5 -19.5q53 0 79 36 t24 83h118q4 -62 -13 -109t-48.5 -74t-69.5 -40.5t-82 -13.5q-49 0 -93.5 19.5t-71.5 42.5t-63.5 42.5t-72.5 19.5q-53 0 -78.5 -35.5t-23.5 -82.5h-119z" />
<glyph unicode="&#xf2;" horiz-adv-x="1290" d="M102 551q0 162 70.5 293.5t195 206.5t277.5 75t277 -75t194 -206.5t70 -293.5q0 -163 -70 -295t-194 -206.5t-277 -74.5q-233 0 -388 164.5t-155 411.5zM262 551q0 -98 32.5 -179.5t86 -134t122 -81.5t142.5 -29t142.5 29t122 82t85 134.5t31.5 178.5t-31.5 178.5 t-85 134.5t-122 82t-142.5 29t-143 -29t-122.5 -82t-85.5 -134.5t-32 -178.5zM428 1616l281 -340h137l-240 340h-178z" />
<glyph unicode="&#xf3;" horiz-adv-x="1290" d="M102 551q0 162 70.5 293.5t195 206.5t277.5 75t277 -75t194 -206.5t70 -293.5q0 -163 -70 -295t-194 -206.5t-277 -74.5q-233 0 -388 164.5t-155 411.5zM262 551q0 -98 32.5 -179.5t86 -134t122 -81.5t142.5 -29t142.5 29t122 82t85 134.5t31.5 178.5t-31.5 178.5 t-85 134.5t-122 82t-142.5 29t-143 -29t-122.5 -82t-85.5 -134.5t-32 -178.5zM446 1276l242 340h176l-278 -340h-140z" />
<glyph unicode="&#xf4;" horiz-adv-x="1290" d="M102 551q0 162 70.5 293.5t195 206.5t277.5 75t277 -75t194 -206.5t70 -293.5q0 -163 -70 -295t-194 -206.5t-277 -74.5q-233 0 -388 164.5t-155 411.5zM262 551q0 -98 32.5 -179.5t86 -134t122 -81.5t142.5 -29t142.5 29t122 82t85 134.5t31.5 178.5t-31.5 178.5 t-85 134.5t-122 82t-142.5 29t-143 -29t-122.5 -82t-85.5 -134.5t-32 -178.5zM313 1276l271 340h118l275 -340h-162l-172 227l-174 -227h-156z" />
<glyph unicode="&#xf5;" horiz-adv-x="1290" d="M102 551q0 162 70.5 293.5t195 206.5t277.5 75t277 -75t194 -206.5t70 -293.5q0 -163 -70 -295t-194 -206.5t-277 -74.5q-233 0 -388 164.5t-155 411.5zM262 551q0 -98 32.5 -179.5t86 -134t122 -81.5t142.5 -29t142.5 29t122 82t85 134.5t31.5 178.5t-31.5 178.5 t-85 134.5t-122 82t-142.5 29t-143 -29t-122.5 -82t-85.5 -134.5t-32 -178.5zM276 1309q-3 62 14 109t48.5 74t69.5 40.5t81 13.5q49 0 93.5 -19.5t72 -43t64.5 -43t74 -19.5q53 0 78.5 36t23.5 83h119q3 -62 -14 -109t-48.5 -74t-69.5 -40.5t-81 -13.5q-49 0 -93.5 19.5 t-72 42.5t-64.5 42.5t-73 19.5q-53 0 -79 -35.5t-24 -82.5h-119z" />
<glyph unicode="&#xf6;" horiz-adv-x="1290" d="M102 551q0 162 70.5 293.5t195 206.5t277.5 75t277 -75t194 -206.5t70 -293.5q0 -163 -70 -295t-194 -206.5t-277 -74.5q-233 0 -388 164.5t-155 411.5zM262 551q0 -98 32.5 -179.5t86 -134t122 -81.5t142.5 -29t142.5 29t122 82t85 134.5t31.5 178.5t-31.5 178.5 t-85 134.5t-122 82t-142.5 29t-143 -29t-122.5 -82t-85.5 -134.5t-32 -178.5zM338 1425q0 40 30 69.5t70 29.5q42 0 72.5 -29.5t30.5 -69.5q0 -41 -30 -70.5t-73 -29.5q-40 0 -70 29.5t-30 70.5zM748 1425q0 40 29.5 69.5t70.5 29.5q42 0 72 -29.5t30 -69.5 q0 -41 -29.5 -70.5t-72.5 -29.5q-41 0 -70.5 29.5t-29.5 70.5z" />
<glyph unicode="&#xf7;" d="M113 688v146h1101v-146h-1101zM547 393q0 51 32.5 84t82.5 33q51 0 83.5 -33t32.5 -84q0 -50 -32.5 -82t-83.5 -32q-50 0 -82.5 32.5t-32.5 81.5zM547 1126q0 51 32.5 84t82.5 33q51 0 83.5 -33t32.5 -84q0 -50 -32.5 -82t-83.5 -32q-50 0 -82.5 32.5t-32.5 81.5z" />
<glyph unicode="&#xf8;" horiz-adv-x="1290" d="M102 551q0 162 70.5 293.5t195 206.5t277.5 75q208 0 356 -139l119 127l80 -78l-123 -129q109 -157 109 -356q0 -163 -70 -295t-194 -206.5t-277 -74.5q-199 0 -342 121l-108 -112l-80 77l110 115q-123 155 -123 375zM262 551q0 -153 76 -258l555 581q-104 101 -248 101 q-74 0 -143 -29t-122.5 -82t-85.5 -134.5t-32 -178.5zM412 211q104 -84 233 -84q74 0 142.5 29t122 82t85 134.5t31.5 178.5q0 138 -61 237z" />
<glyph unicode="&#xf9;" horiz-adv-x="1208" d="M162 418v684h160v-688q0 -135 74.5 -211t203.5 -76q132 0 209.5 77t77.5 212v686h160v-682q0 -198 -121.5 -321.5t-325.5 -123.5q-203 0 -320.5 122.5t-117.5 320.5zM289 1616l280 -340h138l-240 340h-178z" />
<glyph unicode="&#xfa;" horiz-adv-x="1208" d="M162 418v684h160v-688q0 -135 74.5 -211t203.5 -76q132 0 209.5 77t77.5 212v686h160v-682q0 -198 -121.5 -321.5t-325.5 -123.5q-203 0 -320.5 122.5t-117.5 320.5zM504 1276l239 340h179l-281 -340h-137z" />
<glyph unicode="&#xfb;" horiz-adv-x="1208" d="M162 418v684h160v-688q0 -135 74.5 -211t203.5 -76q132 0 209.5 77t77.5 212v686h160v-682q0 -198 -121.5 -321.5t-325.5 -123.5q-203 0 -320.5 122.5t-117.5 320.5zM272 1276l271 340h119l274 -340h-162l-172 227l-174 -227h-156z" />
<glyph unicode="&#xfc;" horiz-adv-x="1208" d="M162 418v684h160v-688q0 -135 74.5 -211t203.5 -76q132 0 209.5 77t77.5 212v686h160v-682q0 -198 -121.5 -321.5t-325.5 -123.5q-203 0 -320.5 122.5t-117.5 320.5zM297 1425q0 40 30 69.5t70 29.5q42 0 72.5 -29.5t30.5 -69.5q0 -41 -30 -70.5t-73 -29.5 q-40 0 -70 29.5t-30 70.5zM707 1425q0 40 29.5 69.5t70.5 29.5q42 0 71 -29.5t29 -69.5q0 -42 -29 -71t-71 -29q-41 0 -70.5 29.5t-29.5 70.5z" />
<glyph unicode="&#xfd;" horiz-adv-x="1083" d="M51 1102h176l316 -862h4l317 862h168l-596 -1532h-164l191 471zM442 1276l240 340h178l-278 -340h-140z" />
<glyph unicode="&#xfe;" d="M174 -430v2066h160v-735q57 103 163.5 160t225.5 57q99 0 189.5 -39.5t160.5 -111t112 -180t42 -236.5q0 -127 -42 -235.5t-112 -180t-161 -111.5t-189 -40q-123 0 -224.5 54t-164.5 167v-635h-160zM330 551q0 -185 103 -302.5t259 -117.5t261.5 117t105.5 303 q0 187 -105 303.5t-262 116.5q-156 0 -259 -116.5t-103 -303.5z" />
<glyph unicode="&#xff;" horiz-adv-x="1083" d="M51 1102h176l316 -862h4l317 862h168l-596 -1532h-164l191 471zM238 1425q0 40 29.5 69.5t70.5 29.5q42 0 72 -29.5t30 -69.5q0 -41 -29.5 -70.5t-72.5 -29.5q-41 0 -70.5 29.5t-29.5 70.5zM647 1425q0 40 29.5 69.5t71.5 29.5t71 -29.5t29 -69.5q0 -42 -29 -71t-71 -29 t-71.5 29.5t-29.5 70.5z" />
<glyph unicode="&#x152;" horiz-adv-x="2025" d="M121 760q0 150 42 277t113.5 216.5t167.5 153t204 93.5t222 30q45 0 121.5 -4t98.5 -4h788v-152h-643v-518h598v-150h-598v-550h643v-152h-772q-20 0 -103.5 -4t-132.5 -4q-114 0 -222 30t-204 93t-167.5 152t-113.5 216t-42 277zM295 760q0 -141 48 -258.5t130 -194.5 t189.5 -119.5t226.5 -42.5q74 0 184 9v1212q-98 8 -184 8q-119 0 -226.5 -42t-189.5 -119t-130 -194.5t-48 -258.5z" />
<glyph unicode="&#x153;" horiz-adv-x="2121" d="M102 551q0 162 70.5 293.5t195 206.5t277.5 75q139 0 262.5 -73.5t192.5 -192.5q68 124 177.5 195t256.5 71q100 0 186.5 -36t152 -104t103 -175t37.5 -240q0 -8 -2 -41t-2 -34h-827q8 -95 42.5 -168t88 -117t118.5 -66t140 -22q96 0 197.5 34.5t185.5 112.5v-172 q-80 -57 -183 -90t-208 -33q-306 0 -463 265q-75 -121 -191.5 -193t-263.5 -72q-233 0 -388 164.5t-155 411.5zM262 551q0 -98 32.5 -179.5t86 -134t122 -81.5t142.5 -29t142.5 29t122 82t85 134.5t31.5 178.5t-31.5 178.5t-85 134.5t-122 82t-142.5 29t-143 -29t-122.5 -82 t-85.5 -134.5t-32 -178.5zM1182 625h678q-2 89 -30.5 159t-74.5 112t-102.5 63.5t-118.5 21.5q-138 0 -236.5 -98t-115.5 -258z" />
<glyph unicode="&#x178;" horiz-adv-x="1318" d="M25 1522h182l457 -721h2l450 721h180l-555 -871v-651h-155v649zM354 1845q0 41 30 70t71 29q43 0 72.5 -29t29.5 -70t-29.5 -69.5t-72.5 -28.5q-42 0 -71.5 28.5t-29.5 69.5zM764 1845q0 41 29 70t71 29q43 0 72 -29t29 -70t-29 -69.5t-72 -28.5t-71.5 28.5t-28.5 69.5z " />
<glyph unicode="&#x2c6;" horiz-adv-x="1097" d="M219 1276l270 340h119l275 -340h-162l-172 227l-174 -227h-156z" />
<glyph unicode="&#x2dc;" horiz-adv-x="747" d="M6 1309q-3 62 14 109t48 74t69 40.5t82 13.5q49 0 93.5 -19.5t71.5 -43t64 -43t74 -19.5q51 0 77 36t26 83h118q3 -62 -14 -109t-48.5 -74t-69.5 -40.5t-81 -13.5q-49 0 -93.5 19.5t-72 42.5t-64.5 42.5t-73 19.5q-53 0 -78.5 -35.5t-23.5 -82.5h-119z" />
<glyph unicode="&#x2000;" horiz-adv-x="1028" />
<glyph unicode="&#x2001;" horiz-adv-x="2056" />
<glyph unicode="&#x2002;" horiz-adv-x="1028" />
<glyph unicode="&#x2003;" horiz-adv-x="2056" />
<glyph unicode="&#x2004;" horiz-adv-x="685" />
<glyph unicode="&#x2005;" horiz-adv-x="514" />
<glyph unicode="&#x2006;" horiz-adv-x="342" />
<glyph unicode="&#x2007;" horiz-adv-x="342" />
<glyph unicode="&#x2008;" horiz-adv-x="257" />
<glyph unicode="&#x2009;" horiz-adv-x="411" />
<glyph unicode="&#x200a;" horiz-adv-x="114" />
<glyph unicode="&#x2010;" horiz-adv-x="733" d="M109 582v145h516v-145h-516z" />
<glyph unicode="&#x2011;" horiz-adv-x="733" d="M109 582v145h516v-145h-516z" />
<glyph unicode="&#x2012;" horiz-adv-x="733" d="M109 582v145h516v-145h-516z" />
<glyph unicode="&#x2013;" horiz-adv-x="968" d="M109 582v145h751v-145h-751z" />
<glyph unicode="&#x2014;" horiz-adv-x="1574" d="M109 582v145h1357v-145h-1357z" />
<glyph unicode="&#x2018;" horiz-adv-x="503" d="M135 975v82q0 166 119 465h123q-88 -260 -88 -459v-88h-154z" />
<glyph unicode="&#x2019;" horiz-adv-x="503" d="M127 975q88 277 88 461v86h154v-80q0 -168 -119 -467h-123z" />
<glyph unicode="&#x201a;" horiz-adv-x="503" d="M125 -272q86 271 86 460v86h154v-79q0 -168 -119 -467h-121z" />
<glyph unicode="&#x201c;" horiz-adv-x="849" d="M135 975v82q0 166 119 465h123q-88 -260 -88 -459v-88h-154zM481 975v82q0 166 119 465h123q-88 -260 -88 -459v-88h-154z" />
<glyph unicode="&#x201d;" horiz-adv-x="845" d="M127 975q88 277 88 461v86h154v-80q0 -168 -119 -467h-123zM469 975q88 264 88 461v86h154v-80q0 -168 -119 -467h-123z" />
<glyph unicode="&#x201e;" horiz-adv-x="862" d="M125 -274q86 271 86 460v86h154v-79q0 -168 -119 -467h-121zM483 -274q86 271 86 460v86h154v-79q0 -180 -119 -467h-121z" />
<glyph unicode="&#x2022;" horiz-adv-x="819" d="M133 760q0 115 80.5 195.5t196.5 80.5t196 -80t80 -196t-80.5 -196.5t-195.5 -80.5q-116 0 -196.5 80.5t-80.5 196.5z" />
<glyph unicode="&#x2026;" horiz-adv-x="1591" d="M137 106q0 51 33 84t84 33q50 0 82.5 -33t32.5 -84q0 -49 -32.5 -81.5t-82.5 -32.5q-51 0 -84 32t-33 82zM682 106q0 51 32.5 84t82.5 33q51 0 83.5 -33t32.5 -84q0 -50 -32.5 -82t-83.5 -32q-50 0 -82.5 32.5t-32.5 81.5zM1225 106q0 51 32.5 84t83.5 33q50 0 82.5 -33 t32.5 -84q0 -49 -32.5 -81.5t-82.5 -32.5q-51 0 -83.5 32t-32.5 82z" />
<glyph unicode="&#x202f;" horiz-adv-x="411" />
<glyph unicode="&#x2039;" horiz-adv-x="716" d="M96 494v114l525 430v-176l-385 -311l385 -311v-177z" />
<glyph unicode="&#x203a;" horiz-adv-x="716" d="M96 63v177l385 311l-385 311v176l525 -430v-114z" />
<glyph unicode="&#x205f;" horiz-adv-x="514" />
<glyph unicode="&#x20ac;" horiz-adv-x="1366" d="M113 559v129h155q-2 25 -2 72q0 28 4 82h-157v131h178q58 255 241 417t431 162q160 0 256 -51v-164q-111 60 -240 60q-196 0 -336 -115.5t-192 -308.5h567v-131h-592q-4 -54 -4 -82q0 -49 2 -72h594v-129h-574q50 -199 192 -316.5t343 -117.5q125 0 240 59v-164 q-96 -51 -256 -51q-252 0 -435.5 165t-240.5 425h-174z" />
<glyph unicode="&#x2122;" horiz-adv-x="1912" d="M78 1391v131h641v-131h-254v-746h-131v746h-256zM770 645l135 877h156l223 -672h2l221 672h154l137 -877h-131l-102 680h-4l-224 -680h-108l-223 674h-5l-102 -674h-129z" />
<glyph unicode="&#x25fc;" horiz-adv-x="1105" d="M0 0v1106h1106v-1106h-1106z" />
</font>
</defs>
</svg>
