<?xml version="1.0" standalone="no"?>
<!DOCTYPE svg PUBLIC "-//W3C//DTD SVG 1.1//EN" "http://www.w3.org/Graphics/SVG/1.1/DTD/svg11.dtd" >
<svg xmlns="http://www.w3.org/2000/svg" xmlns:xlink="http://www.w3.org/1999/xlink" version="1.1">
<metadata></metadata>
<defs>
<font id="tp_heromedium" horiz-adv-x="1347" >
<font-face units-per-em="2048" ascent="1638" descent="-410" />
<missing-glyph horiz-adv-x="591" />
<glyph unicode="&#xfb01;" horiz-adv-x="1349" d="M57 936v174h160v162q0 165 106 272t279 107q92 0 189 -33v-184q-68 28 -162 28q-209 0 -209 -215v-137h317v-174h-315v-936h-205v936h-160zM948 1477q0 52 35.5 86t89.5 34q53 0 88 -34t35 -86q0 -53 -35 -88t-88 -35q-54 0 -89.5 35t-35.5 88zM971 0v1110h205v-1110 h-205z" />
<glyph unicode="&#xfb02;" horiz-adv-x="1349" d="M57 936v174h160v162q0 165 106 272t279 107q92 0 189 -33v-184q-68 28 -162 28q-209 0 -209 -215v-137h317v-174h-315v-936h-205v936h-160zM975 0v1638h205v-1638h-205z" />
<glyph horiz-adv-x="0" />
<glyph horiz-adv-x="682" />
<glyph unicode="&#xd;" horiz-adv-x="0" />
<glyph unicode=" "  horiz-adv-x="591" />
<glyph unicode="&#x09;" horiz-adv-x="591" />
<glyph unicode="&#xa0;" horiz-adv-x="591" />
<glyph unicode="!" horiz-adv-x="608" d="M170 125q0 57 38 95t95 38q58 0 96.5 -38t38.5 -95q0 -59 -38 -97t-97 -38q-57 0 -95 38.5t-38 96.5zM193 1524h217l-33 -1043h-150z" />
<glyph unicode="&#x22;" horiz-adv-x="757" d="M102 1524h197l-35 -553h-123zM459 1524h196l-34 -553h-123z" />
<glyph unicode="#" horiz-adv-x="1218" d="M90 485v136h240l45 294h-221v134h237l72 475h141l-72 -475h261l71 475h144l-72 -475h192v-134h-210l-44 -294h189v-136h-207l-72 -485h-143l72 485h-260l-72 -485h-143l73 485h-221zM473 621h258l45 294h-260z" />
<glyph unicode="$" horiz-adv-x="1163" d="M127 141v238q70 -79 180 -123.5t223 -44.5q131 0 218.5 67t87.5 171q0 49 -24 88t-65 65t-94 48.5t-112 43t-117.5 44t-111.5 56t-94 73.5t-65 102.5t-24 138.5q0 142 95 248.5t261 136.5v174h179v-166q164 -14 294 -88v-217q-58 46 -153.5 78.5t-192.5 32.5 q-125 0 -198.5 -58.5t-73.5 -148.5q0 -48 24.5 -85t65.5 -62.5t94 -47t111.5 -42t117.5 -44t112 -56.5t94 -75t65.5 -105t24.5 -141q0 -149 -104 -265.5t-281 -149.5v-174h-179v165q-193 12 -358 123z" />
<glyph unicode="%" horiz-adv-x="1769" d="M51 1165q0 170 109 280.5t272 110.5q161 0 268 -110t107 -281q0 -169 -107 -280t-268 -111q-162 0 -271.5 111t-109.5 280zM215 1165q0 -109 64.5 -174t152.5 -65q85 0 150 65.5t65 173.5q0 110 -65 175t-150 65q-88 0 -152.5 -65t-64.5 -175zM287 0l1003 1524h193 l-1004 -1524h-192zM961 358q0 170 109 281t271 111q161 0 268 -110.5t107 -281.5q0 -168 -107.5 -279.5t-267.5 -111.5q-162 0 -271 111t-109 280zM1124 358q0 -108 64.5 -173.5t152.5 -65.5q85 0 150 66t65 173q0 110 -65 175t-150 65q-88 0 -152.5 -65t-64.5 -175z" />
<glyph unicode="&#x26;" horiz-adv-x="1517" d="M111 401q0 77 23.5 141.5t69.5 114.5t99.5 87.5t126.5 74.5q-102 108 -152.5 193t-50.5 174q0 159 118.5 260.5t299.5 101.5q190 0 304 -105.5t114 -256.5q0 -74 -27.5 -136t-80.5 -111t-110 -85t-136 -74l315 -325l225 358h207l-311 -483l319 -330h-241l-183 188 q-194 -219 -450 -219q-214 0 -346.5 122.5t-132.5 309.5zM307 420q0 -116 81 -193t212 -77q186 0 324 159l-381 393q-115 -59 -175.5 -122.5t-60.5 -159.5zM422 1180q0 -60 39.5 -121.5t136.5 -163.5q66 29 111.5 54.5t86 58.5t61 72t20.5 85q0 86 -62 147.5t-168 61.5 q-102 0 -163.5 -56.5t-61.5 -137.5z" />
<glyph unicode="'" horiz-adv-x="401" d="M102 1524h197l-35 -553h-123z" />
<glyph unicode="(" horiz-adv-x="700" d="M113 633q0 257 95 483.5t263 407.5h223q-174 -168 -280.5 -398.5t-106.5 -494.5t106.5 -494.5t280.5 -400.5h-223q-169 183 -263.5 410t-94.5 487z" />
<glyph unicode=")" horiz-adv-x="700" d="M6 -264q174 170 280.5 400.5t106.5 494.5t-106.5 494.5t-280.5 398.5h223q168 -181 263.5 -408t95.5 -483q0 -260 -95 -487t-264 -410h-223z" />
<glyph unicode="*" horiz-adv-x="1091" d="M68 1237l57 180l354 -145l-35 366h191l-37 -366l360 145l66 -180l-387 -76l258 -276l-150 -111l-202 320l-201 -320l-154 111l256 276z" />
<glyph unicode="+" horiz-adv-x="1351" d="M88 674v176h492v502h184v-502h502v-176h-502v-504h-184v504h-492z" />
<glyph unicode="," horiz-adv-x="536" d="M106 -272q87 276 87 473v94h192v-82q0 -183 -125 -485h-154z" />
<glyph unicode="-" horiz-adv-x="755" d="M109 567v174h538v-174h-538z" />
<glyph unicode="." horiz-adv-x="536" d="M135 125q0 57 38.5 95t96.5 38q57 0 95 -38t38 -95q0 -58 -38 -96.5t-95 -38.5q-58 0 -96.5 38t-38.5 97z" />
<glyph unicode="/" horiz-adv-x="933" d="M25 -274l686 2070h198l-686 -2070h-198z" />
<glyph unicode="0" horiz-adv-x="1400" d="M123 762q0 181 45.5 331.5t123.5 250.5t182.5 155t223.5 55q120 0 225.5 -55t184 -155t124.5 -250.5t46 -331.5t-46 -331.5t-124.5 -251t-184 -155.5t-225.5 -55q-119 0 -223.5 55t-182.5 155.5t-123.5 251t-45.5 331.5zM332 762q0 -277 104 -437.5t262 -160.5 q159 0 266 161t107 437t-107 437t-266 161q-158 0 -262 -161t-104 -437z" />
<glyph unicode="1" horiz-adv-x="948" d="M82 1087v213l559 232h21v-1532h-205v1247z" />
<glyph unicode="2" horiz-adv-x="1216" d="M68 0v18q176 198 256 289t186 216.5t145.5 182.5t84.5 132t57 123.5t12 101.5q0 124 -88 210.5t-236 86.5q-102 0 -194.5 -50.5t-163.5 -129.5v227q70 65 173 106t218 41q113 0 208 -37t159 -101.5t99.5 -152.5t35.5 -188q0 -70 -25.5 -145.5t-67 -148.5t-119 -172.5 t-155.5 -188.5t-202 -225h626v-195h-1009z" />
<glyph unicode="3" horiz-adv-x="1200" d="M131 121v225q72 -84 175 -132t222 -48q151 0 241.5 75t90.5 193q0 117 -92 188.5t-252 71.5h-190v172h149q165 0 251.5 67t86.5 183q0 103 -77.5 173.5t-213.5 70.5q-103 0 -197.5 -43t-154.5 -113v213q66 63 165.5 100t215.5 37q106 0 195 -33.5t148 -89.5t91.5 -129.5 t32.5 -154.5q0 -118 -60 -211t-165 -139v-4q119 -43 196.5 -141t77.5 -240q0 -86 -34 -165t-97 -140.5t-162 -98.5t-219 -37q-251 0 -424 150z" />
<glyph unicode="4" horiz-adv-x="1374" d="M72 358v125l764 1041h172v-985h262v-181h-262v-358h-195v358h-741zM311 539h502v690l-502 -688v-2z" />
<glyph unicode="5" horiz-adv-x="1200" d="M119 111v235q75 -86 182.5 -133t222.5 -47q152 0 245 83.5t93 215.5q2 137 -94.5 224t-261.5 87q-143 0 -289 -71l-18 14l137 805h670v-193h-523l-80 -409q91 28 162 28q119 0 217.5 -40.5t161.5 -108t97 -152.5t34 -178q0 -95 -33.5 -182.5t-98 -160t-172.5 -116 t-245 -43.5q-224 0 -407 142z" />
<glyph unicode="6" horiz-adv-x="1318" d="M121 487q0 124 53.5 236.5t161.5 241.5l448 559h242v-6l-440 -547q69 10 143 4q87 -7 169.5 -44t148 -98t105.5 -149.5t40 -189.5q0 -146 -67.5 -265.5t-190.5 -189.5t-277 -70q-116 0 -217 41t-170.5 111t-109 165t-39.5 201zM324 487q0 -134 95 -231.5t238 -97.5 q141 0 234.5 96.5t93.5 228.5q0 104 -52.5 182t-133.5 115t-176 37q-97 0 -187 -41q-58 -75 -85 -142t-27 -147z" />
<glyph unicode="7" horiz-adv-x="1183" d="M127 1331v193h1012v-25l-781 -1499h-221l703 1331h-713z" />
<glyph unicode="8" horiz-adv-x="1316" d="M129 403q0 126 70.5 230.5t197.5 152.5v5q-100 46 -162.5 134.5t-62.5 211.5q0 82 33.5 157.5t94.5 133t154 92t203 34.5t202.5 -34.5t154 -92t95.5 -132t34 -156.5q0 -124 -62.5 -214.5t-162.5 -136.5v-4q130 -49 200 -150.5t70 -230.5q0 -187 -146 -310.5t-385 -123.5 q-237 0 -382.5 124t-145.5 310zM334 422q0 -113 88 -192.5t235 -79.5q149 0 238.5 79.5t89.5 192.5q0 117 -90.5 194.5t-237.5 77.5q-145 0 -234 -77t-89 -195zM369 1120q0 -113 80.5 -184.5t207.5 -71.5t208 71.5t81 184.5q0 105 -81.5 179.5t-207.5 74.5 q-128 0 -208 -73.5t-80 -180.5z" />
<glyph unicode="9" horiz-adv-x="1320" d="M139 1034q0 141 66.5 259.5t189 189.5t275.5 71q154 0 274.5 -68.5t185 -185t64.5 -258.5q0 -115 -52 -229.5t-161 -243.5l-459 -569h-241v6l440 547q-69 -9 -119 -4q-84 5 -165 41t-148 96t-108.5 151t-41.5 197zM346 1040q0 -145 98 -238t242 -93q106 0 191 39 q60 78 87 144.5t27 145.5q0 138 -89.5 233t-231.5 95t-233 -95.5t-91 -230.5z" />
<glyph unicode=":" horiz-adv-x="536" d="M135 125q0 57 38.5 95t96.5 38q57 0 95 -38t38 -95q0 -58 -38 -96.5t-95 -38.5q-58 0 -96.5 38t-38.5 97zM135 817q0 57 38.5 95t96.5 38q57 0 95 -38t38 -95q0 -58 -38 -96.5t-95 -38.5q-58 0 -96.5 38t-38.5 97z" />
<glyph unicode=";" horiz-adv-x="536" d="M106 -272q87 276 87 473v94h192v-82q0 -183 -125 -485h-154zM135 817q0 57 38.5 95t96.5 38q57 0 95 -38t38 -95q0 -58 -38 -96.5t-95 -38.5q-58 0 -96.5 38t-38.5 97z" />
<glyph unicode="&#x3c;" horiz-adv-x="1351" d="M137 659l1073 -442v205l-839 340l839 340v203l-1073 -445v-201z" />
<glyph unicode="=" horiz-adv-x="1351" d="M129 487v177h1096v-177h-1096zM129 858v176h1096v-176h-1096z" />
<glyph unicode="&#x3e;" horiz-adv-x="1351" d="M141 217l1076 442v201l-1076 445v-203l842 -340l-842 -340v-205z" />
<glyph unicode="?" horiz-adv-x="1030" d="M102 1171v228q69 68 173 111.5t219 43.5q197 0 323.5 -123.5t126.5 -306.5q0 -40 -9 -79.5t-20 -72t-38.5 -76.5t-46.5 -72t-63.5 -80.5t-69.5 -81t-83 -92.5q-8 -9 -12.5 -13.5t-11 -12.5t-12.5 -14h-216q37 43 106 121t95.5 109t68.5 85.5t57.5 86t28.5 72.5t13 81 q0 122 -76.5 197.5t-197.5 75.5q-95 0 -190.5 -53.5t-164.5 -133.5zM344 125q0 57 39 95t96 38t95 -38t38 -95q0 -58 -38 -96.5t-95 -38.5t-96 38.5t-39 96.5z" />
<glyph unicode="@" horiz-adv-x="1994" d="M113 500q0 178 54.5 334.5t148.5 270t217.5 195.5t263.5 123t284 41q162 0 308.5 -49t260 -139t181 -228.5t67.5 -304.5q0 -138 -47.5 -262t-127 -211.5t-188 -138.5t-226.5 -51h-80l8 166q-126 -187 -319 -187q-72 0 -137 27t-116.5 78t-81.5 132t-30 181q0 150 61 277 t168 200.5t236 73.5q101 0 181 -51.5t120 -147.5l51 179h141l-118 -791q137 33 238.5 170t101.5 332q0 142 -54.5 255t-146 183t-205.5 106.5t-240 36.5q-121 0 -235.5 -33t-215.5 -100t-177 -160.5t-120 -223t-44 -279.5q0 -144 41.5 -262t113 -198t170.5 -134.5t212 -79.5 t239 -25q181 0 342 52l-24 -166q-158 -47 -330 -47q-154 0 -293 32.5t-258.5 101.5t-207 168.5t-137.5 241.5t-50 312zM739 494q0 -131 64.5 -200t163.5 -69q128 0 216.5 107t88.5 256q0 123 -64.5 198.5t-167.5 75.5q-127 0 -214 -108t-87 -260z" />
<glyph unicode="A" horiz-adv-x="1482" d="M27 0l596 1524h235l598 -1524h-221l-172 453h-645l-172 -453h-219zM487 635h504l-252 661z" />
<glyph unicode="B" horiz-adv-x="1329" d="M201 0v1524h473q236 0 365.5 -111t129.5 -287q0 -123 -62 -209.5t-165 -128.5v-4q134 -43 204.5 -139t70.5 -225q0 -86 -33 -161.5t-96 -133.5t-163.5 -91.5t-226.5 -33.5h-497zM408 184h282q153 0 236.5 71t83.5 187q0 118 -86 185t-224 67h-292v-510zM408 860h264 q139 0 217 68.5t78 177.5t-75 171t-206 62h-278v-479z" />
<glyph unicode="C" horiz-adv-x="1370" d="M113 764q0 142 40 268t111.5 220t167 163t208 104t232.5 35q226 0 404 -102v-217q-96 62 -188 92.5t-205 30.5q-106 0 -206 -41t-179 -115.5t-126.5 -189t-47.5 -250.5q0 -135 47.5 -249t126.5 -189t179 -116.5t206 -41.5q113 0 203.5 31.5t189.5 95.5v-219 q-181 -105 -404 -105q-150 0 -287.5 56.5t-242.5 157.5t-167 252t-62 329z" />
<glyph unicode="D" horiz-adv-x="1501" d="M201 0v1524h379q368 0 589.5 -208.5t221.5 -553.5q0 -171 -59.5 -313.5t-165.5 -241t-256.5 -153t-329.5 -54.5h-379zM408 193h180q129 0 237.5 38t187.5 109t123 179.5t44 242.5q0 135 -44 243.5t-123 179.5t-186.5 108.5t-236.5 37.5h-182v-1138z" />
<glyph unicode="E" horiz-adv-x="1181" d="M201 0v1524h839v-191h-632v-467h585v-182h-585v-491h632v-193h-839z" />
<glyph unicode="F" horiz-adv-x="1161" d="M201 0v1524h848v-193h-641v-512h610v-186h-610v-633h-207z" />
<glyph unicode="G" horiz-adv-x="1527" d="M113 762q0 176 60.5 326t163.5 251t241.5 158t293.5 57q254 0 441 -110v-217q-196 127 -428 127q-157 0 -284.5 -74.5t-202 -211t-74.5 -308.5q0 -260 157 -427t389 -167q156 0 291 63v594h197v-721q-226 -133 -490 -133q-151 0 -288 57t-240.5 158.5t-165 251.5 t-61.5 326z" />
<glyph unicode="H" horiz-adv-x="1562" d="M201 0v1524h207v-656h747v656h207v-1524h-207v676h-747v-676h-207z" />
<glyph unicode="I" horiz-adv-x="608" d="M201 0v1524h207v-1524h-207z" />
<glyph unicode="J" horiz-adv-x="950" d="M61 78v223q111 -131 261 -131q113 0 178 73.5t65 213.5v1067h207v-1098q0 -200 -115 -325.5t-311 -125.5q-78 0 -154.5 28t-130.5 75z" />
<glyph unicode="K" horiz-adv-x="1400" d="M201 0v1524h207v-736l682 736h256l-707 -756l715 -768h-260l-686 741v-741h-207z" />
<glyph unicode="L" horiz-adv-x="1132" d="M201 0v1524h207v-1331h667v-193h-874z" />
<glyph unicode="M" horiz-adv-x="2041" d="M123 0l235 1524h250l418 -1211h2l406 1211h252l233 -1524h-205l-178 1231h-6l-416 -1231h-184l-420 1221h-4l-180 -1221h-203z" />
<glyph unicode="N" horiz-adv-x="1640" d="M201 0v1524h209l837 -1200h4q-14 317 -14 895v305h203v-1524h-193l-854 1217h-4q12 -337 12 -883v-334h-200z" />
<glyph unicode="O" horiz-adv-x="1744" d="M113 762q0 167 57.5 313.5t158 252t242 166t303.5 60.5q215 0 389 -103.5t272.5 -284.5t98.5 -404q0 -167 -58 -314.5t-158 -252.5t-241.5 -165.5t-302.5 -60.5q-162 0 -303.5 60.5t-242 165t-158 252t-57.5 315.5zM324 762q0 -138 46 -253t123 -189.5t175.5 -115 t205.5 -40.5q106 0 204 41t174.5 115.5t122.5 189.5t46 252q0 138 -46 253t-122.5 189t-174.5 115t-204 41q-108 0 -207 -41t-175.5 -115.5t-122 -189t-45.5 -252.5z" />
<glyph unicode="P" horiz-adv-x="1230" d="M201 0v1524h379q275 0 435.5 -133t160.5 -367t-159.5 -376t-428.5 -142h-180v-506h-207zM408 696h190q170 0 269.5 85.5t99.5 236.5q0 150 -99 231.5t-270 81.5h-190v-635z" />
<glyph unicode="Q" horiz-adv-x="1773" d="M109 762q0 167 57.5 313.5t158 252t242 166t303.5 60.5q215 0 389 -103.5t272.5 -284.5t98.5 -404q0 -303 -176 -520l217 -219l-139 -138l-219 224q-196 -140 -443 -140q-162 0 -303.5 60.5t-242 165t-158 252t-57.5 315.5zM319 762q0 -138 46 -253t123.5 -189.5 t176 -115t205.5 -40.5q163 0 297 90l-295 299l140 137l295 -299q110 151 110 371q0 138 -46 253t-122.5 189t-174.5 115t-204 41q-108 0 -207 -41t-176 -115.5t-122.5 -189t-45.5 -252.5z" />
<glyph unicode="R" horiz-adv-x="1294" d="M201 0v1524h413q260 0 401.5 -124.5t141.5 -336.5q0 -191 -132.5 -307t-367.5 -131l566 -625h-265l-530 608h-20v-608h-207zM408 780h180q174 0 266 74t92 201q0 131 -89 203.5t-255 72.5h-194v-551z" />
<glyph unicode="S" horiz-adv-x="1175" d="M121 109v225q80 -80 190 -127t226 -47q138 0 225.5 71t87.5 181q0 43 -17.5 79.5t-42.5 63t-75 56t-90 48t-113 50.5q-45 20 -73 32.5t-73.5 37.5t-74 47t-63 56.5t-54.5 70t-33.5 84t-13.5 102.5q0 85 34 160.5t95.5 132.5t155 90.5t204.5 33.5q96 0 194 -28t171 -72 v-211q-78 58 -173 88.5t-187 30.5q-131 0 -209 -64.5t-78 -156.5q0 -45 19 -82.5t57.5 -68t80.5 -53t103 -48.5q155 -65 200 -89q194 -101 247 -249q22 -62 22 -133q0 -192 -141.5 -322.5t-372.5 -130.5q-126 0 -238 40.5t-190 101.5z" />
<glyph unicode="T" horiz-adv-x="1259" d="M49 1331v193h1161v-193h-477v-1331h-207v1331h-477z" />
<glyph unicode="U" horiz-adv-x="1533" d="M182 578v946h207v-955q0 -187 99.5 -296t271.5 -109q176 0 280.5 110t104.5 299v951h209v-944q0 -273 -162 -442t-432 -169q-266 0 -422 168t-156 441z" />
<glyph unicode="V" horiz-adv-x="1468" d="M20 1524h222l495 -1295l492 1295h219l-600 -1524h-223z" />
<glyph unicode="W" horiz-adv-x="2232" d="M55 1524h215l355 -1256h2l393 1256h201l399 -1258h2l346 1258h211l-448 -1524h-218l-391 1233h-2l-391 -1233h-219z" />
<glyph unicode="X" horiz-adv-x="1335" d="M55 0l484 766l-476 758h240l369 -600l364 600h236l-477 -754l487 -770h-238l-380 614l-373 -614h-236z" />
<glyph unicode="Y" horiz-adv-x="1359" d="M20 1524h234l430 -695h4l428 695h227l-557 -883v-641h-204v639z" />
<glyph unicode="Z" horiz-adv-x="1275" d="M82 0v16l784 1315h-729v193h1053v-17l-784 -1314h741v-193h-1065z" />
<glyph unicode="[" horiz-adv-x="712" d="M186 -430v2068h459v-168h-280v-1732h280v-168h-459z" />
<glyph unicode="\" horiz-adv-x="933" d="M25 1796h200l684 -2070h-198z" />
<glyph unicode="]" horiz-adv-x="712" d="M68 -262h280v1732h-280v168h458v-2068h-458v168z" />
<glyph unicode="^" horiz-adv-x="1351" d="M186 506l410 1018h164l407 -1018h-200l-289 743l-293 -743h-199z" />
<glyph unicode="_" horiz-adv-x="1079" d="M0 -186h1079v-168h-1079v168z" />
<glyph unicode="`" horiz-adv-x="1085" d="M315 1622l287 -346h168l-238 346h-217z" />
<glyph unicode="a" d="M96 553q0 130 42 241t112 185t160.5 116t187.5 42q123 0 227.5 -59t165.5 -167l25 199h168v-1110h-168l-25 201q-61 -108 -165.5 -167t-227.5 -59q-97 0 -187.5 41.5t-160.5 115.5t-112 184t-42 237zM301 555q0 -171 98 -281t244 -110q144 0 242 111t98 282 q0 170 -98 279.5t-242 109.5q-146 0 -244 -110t-98 -281z" />
<glyph unicode="b" d="M164 0v1638h205v-718q56 102 160.5 159.5t222.5 57.5q98 0 188 -41.5t159 -115.5t110.5 -184.5t41.5 -240.5q0 -129 -42 -239.5t-112.5 -184t-162 -115t-189.5 -41.5q-120 0 -224 59.5t-165 166.5l-24 -201h-168zM365 557q0 -172 97.5 -282.5t242.5 -110.5q146 0 244 110 t98 281q0 172 -98.5 281.5t-246.5 109.5q-143 0 -240 -109.5t-97 -279.5z" />
<glyph unicode="c" horiz-adv-x="1069" d="M96 557q0 247 161 413.5t400 166.5q188 0 312 -80v-205q-67 51 -137 72.5t-158 21.5q-98 0 -182 -46t-137.5 -136t-53.5 -207q0 -177 111 -285t264 -108q175 0 293 90v-203q-133 -76 -312 -76q-159 0 -287.5 75.5t-201 208.5t-72.5 298z" />
<glyph unicode="d" d="M96 555q0 130 42 240.5t111.5 184.5t160 115.5t188.5 41.5q119 0 222 -57t159 -158v716h205v-1638h-168l-25 201q-61 -107 -165 -166.5t-226 -59.5q-98 0 -189 41.5t-161 115t-112 184t-42 239.5zM301 555q0 -171 98 -281t244 -110q144 0 242 111t98 282q0 170 -98 279.5 t-242 109.5q-146 0 -244 -110t-98 -281z" />
<glyph unicode="e" horiz-adv-x="1218" d="M96 555q0 130 43 240.5t115.5 184.5t168 115.5t200.5 41.5q104 0 193 -36.5t156 -105.5t105.5 -177t38.5 -243q0 -37 -4 -83h-811q15 -159 119 -248.5t254 -89.5q222 0 379 139v-197q-167 -121 -391 -121q-254 0 -410 159.5t-156 420.5zM301 639h619q-3 153 -88 236 t-201 83q-134 0 -225 -92.5t-105 -226.5z" />
<glyph unicode="f" horiz-adv-x="780" d="M57 936v174h160v162q0 165 106 272t279 107q92 0 189 -33v-184q-68 28 -162 28q-209 0 -209 -215v-137h317v-174h-315v-936h-205v936h-160z" />
<glyph unicode="g" horiz-adv-x="1343" d="M96 575q0 121 42 227t111.5 178t161 113.5t189.5 41.5q120 0 224 -56.5t165 -156.5l23 188h170v-1012q0 -107 -29 -197.5t-81 -155.5t-122 -110.5t-152.5 -67.5t-172.5 -22q-111 0 -220 36t-196 100v215q87 -77 192 -119.5t213 -42.5q153 0 258 92.5t105 239.5v159 q-62 -96 -162.5 -151.5t-216.5 -55.5q-98 0 -189 41t-160.5 112.5t-111 177t-41.5 226.5zM301 573q0 -157 98.5 -262.5t241.5 -105.5t241.5 108.5t98.5 268.5q0 157 -98 260.5t-242 103.5q-143 0 -241.5 -107t-98.5 -266z" />
<glyph unicode="h" horiz-adv-x="1241" d="M164 0v1638h205v-657h4q48 71 131.5 113.5t181.5 42.5q186 0 293.5 -104.5t107.5 -297.5v-735h-204v668q0 278 -246 278q-115 0 -191.5 -67t-76.5 -193v-686h-205z" />
<glyph unicode="i" horiz-adv-x="552" d="M152 1477q0 52 35 86t89 34t89.5 -34t35.5 -86q0 -53 -35.5 -88t-89.5 -35t-89 35t-35 88zM174 0v1110h205v-1110h-205z" />
<glyph unicode="j" horiz-adv-x="542" d="M-33 -430q106 112 156.5 246.5t50.5 328.5v965h205v-956q0 -187 -40.5 -327t-133.5 -257h-238zM152 1477q0 52 35.5 86t88.5 34q54 0 89.5 -34t35.5 -86q0 -53 -35.5 -88t-89.5 -35q-53 0 -88.5 35.5t-35.5 87.5z" />
<glyph unicode="k" horiz-adv-x="1146" d="M164 0v1638h205v-1040l481 512h256l-502 -526l520 -584h-262l-493 557v-557h-205z" />
<glyph unicode="l" horiz-adv-x="544" d="M170 0v1638h205v-1638h-205z" />
<glyph unicode="m" horiz-adv-x="1783" d="M164 0v1110h158l24 -162h4q44 85 121 137t178 52q225 0 309 -195q113 195 320 195q176 0 264 -106.5t88 -289.5v-741h-205v707q0 118 -48.5 177.5t-153.5 59.5q-101 0 -162.5 -69.5t-61.5 -165.5v-709h-204v707q0 118 -49 177.5t-154 59.5q-104 0 -163.5 -73t-59.5 -175 v-696h-205z" />
<glyph unicode="n" horiz-adv-x="1241" d="M164 0v1110h158l24 -166h4q51 84 140 138.5t200 54.5q182 0 289.5 -108.5t107.5 -291.5v-737h-204v666q0 278 -248 278q-115 0 -190.5 -76t-75.5 -192v-676h-205z" />
<glyph unicode="o" horiz-adv-x="1302" d="M96 555q0 165 72.5 298.5t200 208.5t284.5 75q238 0 396.5 -165.5t158.5 -416.5q0 -250 -158.5 -415t-396.5 -165q-240 0 -398.5 164.5t-158.5 415.5zM301 555q0 -90 29.5 -165t79 -124t112.5 -75.5t131 -26.5q141 0 244.5 106.5t103.5 284.5q0 91 -29 166t-78 123.5 t-111.5 75t-129.5 26.5q-143 0 -247.5 -106t-104.5 -285z" />
<glyph unicode="p" d="M164 -430v1540h168l24 -199q61 107 165 166.5t224 59.5q99 0 190.5 -41.5t161.5 -115.5t112 -184.5t42 -238.5q0 -130 -41.5 -241t-111 -185t-160 -115t-188.5 -41q-118 0 -222 57.5t-159 157.5v-620h-205zM365 555q0 -170 97 -280.5t240 -110.5q148 0 246.5 110 t98.5 283q0 170 -98 279.5t-244 109.5q-144 0 -242 -110t-98 -281z" />
<glyph unicode="q" d="M96 553q0 130 41 241t110 185t159.5 116t189.5 42q124 0 229 -59t166 -167l25 199h168v-1540h-205v620q-57 -102 -160 -158.5t-223 -56.5q-98 0 -188.5 41.5t-159.5 115.5t-110.5 183.5t-41.5 237.5zM301 555q0 -171 98 -281t244 -110q144 0 242 110.5t98 280.5 q0 171 -98 281t-242 110q-146 0 -244 -110t-98 -281z" />
<glyph unicode="r" horiz-adv-x="790" d="M164 0v1110h164l20 -174h4q27 51 67 89t83.5 59t85 30.5t80.5 9.5q6 0 75 -6v-196q-46 7 -92 7h-12q-52 -1 -101 -23.5t-86.5 -57t-60 -93t-22.5 -132.5v-623h-205z" />
<glyph unicode="s" horiz-adv-x="1019" d="M119 96v213q160 -153 368 -153q106 0 172 45t66 108q0 27 -12 50t-30 38.5t-52.5 32t-64 27.5t-80.5 29l-9 3q-45 16 -72 26t-69 28.5t-68 35.5t-56.5 42.5t-47.5 53t-29 65t-12 79.5q0 136 110.5 227t294.5 91q96 0 186.5 -26t151.5 -69v-198q-62 51 -150 81.5 t-181 30.5q-97 0 -156.5 -38t-59.5 -97q0 -30 16.5 -54.5t51.5 -44t69 -33t89 -30.5q51 -16 83.5 -27t77 -29.5t72.5 -36t59.5 -43.5t49.5 -55t29.5 -67.5t11.5 -83.5q0 -147 -119 -244.5t-311 -97.5q-222 0 -379 121z" />
<glyph unicode="t" horiz-adv-x="827" d="M49 936v174h168v260h199v-260h313v-174h-313v-533q0 -147 94 -202q62 -36 149 -36q44 0 95 9v-176q-54 -14 -138 -14q-186 0 -293.5 108t-107.5 301v543h-166z" />
<glyph unicode="u" horiz-adv-x="1226" d="M152 430v680h204v-684q0 -123 67.5 -192.5t186.5 -69.5q121 0 190.5 70t69.5 194v682h205v-680q0 -203 -126 -329t-339 -126q-212 0 -335 125.5t-123 329.5z" />
<glyph unicode="v" horiz-adv-x="1122" d="M45 1110h219l297 -885h6l297 885h211l-403 -1110h-221z" />
<glyph unicode="w" horiz-adv-x="1761" d="M61 1110h215l224 -883h6l274 883h211l273 -883h6l229 883h201l-309 -1110h-234l-270 852h-6l-273 -852h-233z" />
<glyph unicode="x" horiz-adv-x="1085" d="M45 0l379 557l-375 553h230l262 -408h4l258 408h223l-369 -547l383 -563h-233l-268 414h-4l-263 -414h-227z" />
<glyph unicode="y" horiz-adv-x="1122" d="M45 1110h221l297 -829h6l297 829h213l-602 -1540h-209l193 469z" />
<glyph unicode="z" horiz-adv-x="1026" d="M43 0v10l619 912h-553v188h872v-10l-610 -912h559v-188h-887z" />
<glyph unicode="{" horiz-adv-x="755" d="M88 498v149q64 10 108.5 32.5t66 55.5t30 65.5t8.5 71.5v406q0 157 102 241.5t281 63.5v-166q-209 22 -209 -164v-379q0 -243 -178 -299v-4q95 -30 136.5 -111t41.5 -188v-376q0 -186 211 -164v-164q-179 -21 -282 63t-103 240v403q0 194 -213 224z" />
<glyph unicode="|" horiz-adv-x="704" d="M258 -375v2271h188v-2271h-188z" />
<glyph unicode="}" horiz-adv-x="755" d="M70 -268q211 -22 211 164v376q0 107 41.5 188t136.5 111v4q-178 56 -178 299v379q0 186 -209 164v166q179 21 280 -63.5t101 -241.5v-406q0 -31 4.5 -57t18.5 -54.5t37.5 -50t62.5 -38.5t92 -25v-149q-215 -30 -215 -224v-403q0 -156 -102 -240t-281 -63v164z" />
<glyph unicode="~" horiz-adv-x="1351" d="M78 594q4 95 29.5 163.5t68.5 106t92.5 54t110.5 16.5q74 0 188 -39t220.5 -78t164.5 -39q61 0 102 37t50 115h170q-4 -96 -30 -164t-69 -105.5t-93 -54t-111 -16.5q-58 0 -143 24t-156.5 53.5t-149 53.5t-123.5 24q-62 0 -102 -36t-49 -115h-170z" />
<glyph unicode="&#xa1;" horiz-adv-x="608" d="M170 1395q0 57 38 95t95 38q58 0 96.5 -38t38.5 -95q0 -59 -38 -97t-97 -38q-57 0 -95 38.5t-38 96.5zM193 -6l34 1044h150l33 -1044h-217z" />
<glyph unicode="&#xa2;" horiz-adv-x="1114" d="M96 573q0 214 131 364.5t336 180.5v211h150v-207q151 -13 248 -73v-199q-131 90 -293 90q-94 0 -175.5 -42.5t-134.5 -128t-53 -196.5q0 -112 53 -197t136 -127t180 -42q171 0 287 86v-199q-109 -59 -250 -71v-185h-152v189q-203 31 -333 181.5t-130 364.5z" />
<glyph unicode="&#xa3;" horiz-adv-x="1232" d="M125 0v18q79 116 133 260t88 347l4 22h-178v156h205l41 250q42 252 158.5 376.5t320.5 124.5q107 0 195 -41v-192q-83 49 -185 49q-121 0 -194.5 -76.5t-102.5 -261.5l-37 -229h357v-156h-381l-4 -26q-46 -265 -148 -435h701v-186h-973z" />
<glyph unicode="&#xa4;" horiz-adv-x="1294" d="M154 1130l125 123l114 -116q124 80 260 80q137 0 252 -78l115 114l121 -125l-113 -112q80 -114 80 -254t-80 -256l111 -109l-121 -125l-113 113q-119 -78 -252 -78q-142 0 -260 78l-112 -111l-125 121l114 113q-77 119 -77 254q0 139 77 252zM356 762q0 -121 87.5 -208 t207.5 -87q122 0 209.5 87t87.5 208t-87.5 208t-209.5 87q-120 0 -207.5 -87t-87.5 -208z" />
<glyph unicode="&#xa5;" horiz-adv-x="1406" d="M41 1524h235l431 -641h4l426 641h227l-510 -750h315v-145h-362v-133h362v-148h-362v-348h-203v348h-360v148h360v133h-360v145h311z" />
<glyph unicode="&#xa6;" horiz-adv-x="690" d="M258 -375v897h174v-897h-174zM258 999v897h174v-897h-174z" />
<glyph unicode="&#xa7;" horiz-adv-x="1107" d="M139 596q0 100 56 182.5t157 126.5q-178 112 -178 289q0 154 116 257t310 103q180 0 311 -77v-201q-134 104 -307 104q-111 0 -174 -51.5t-63 -126.5q0 -70 53 -113.5t166 -91.5q159 -68 225 -112q166 -110 166 -279q0 -100 -52 -183t-141 -134q164 -105 164 -283 q0 -163 -122.5 -276t-315.5 -113q-108 0 -203 34.5t-160 88.5v211q63 -70 160.5 -114t190.5 -44q112 0 183 57t71 146q0 36 -14.5 66.5t-34 51t-62 45t-74 38.5t-94.5 41q-57 24 -94.5 41.5t-87.5 50.5t-79.5 67.5t-51 86t-21.5 112.5zM330 614q0 -39 15 -70.5t47.5 -56 t66 -42t86.5 -39.5l67 -29q78 23 127 78t49 135q0 33 -11.5 60t-29 47.5t-49.5 41t-62 35.5t-77 35q-108 -3 -168.5 -62t-60.5 -133z" />
<glyph unicode="&#xa8;" horiz-adv-x="1087" d="M217 1432q0 47 33.5 79.5t81.5 32.5t82.5 -32.5t34.5 -79.5q0 -46 -35 -79.5t-82 -33.5t-81 33.5t-34 79.5zM643 1432q0 47 33.5 79.5t81.5 32.5q49 0 81.5 -32t32.5 -80q0 -47 -32.5 -80t-81.5 -33q-47 0 -81 33.5t-34 79.5z" />
<glyph unicode="&#xa9;" horiz-adv-x="1841" d="M121 762q0 213 106 395t290 289.5t403 107.5q164 0 312.5 -63.5t255 -170t169.5 -253t63 -305.5t-63 -305.5t-169.5 -253.5t-255 -170.5t-312.5 -63.5t-312.5 63.5t-255 170.5t-169 253.5t-62.5 305.5zM264 762q0 -132 51 -252t138 -208t209 -140.5t258 -52.5 q181 0 332.5 88.5t238 238.5t86.5 326t-86.5 326.5t-238 239.5t-332.5 89q-136 0 -258 -52.5t-209 -141t-138 -209t-51 -252.5zM520 762q0 127 60.5 228.5t157.5 155.5t208 54q130 0 223 -51v-154q-94 64 -204 64q-117 0 -205 -84t-88 -213q0 -128 88 -212.5t205 -84.5 q113 0 204 65v-153q-85 -51 -223 -51q-111 0 -208 53t-157.5 154t-60.5 229z" />
<glyph unicode="&#xaa;" horiz-adv-x="1120" d="M109 1085q0 101 33 189t88 146.5t126 92t146 33.5q98 0 179 -46t128 -130l20 154h144v-875h-144l-20 154q-47 -83 -128.5 -128.5t-178.5 -45.5q-75 0 -146 33t-126 91t-88 145t-33 187zM285 1085q0 -129 74.5 -211.5t185.5 -82.5q110 0 184 83.5t74 212.5t-74 213 t-184 84q-111 0 -185.5 -84t-74.5 -215z" />
<glyph unicode="&#xab;" horiz-adv-x="1374" d="M141 489v132l547 442v-213l-373 -295l373 -295v-213zM649 489v132l549 442v-213l-373 -295l373 -295v-213z" />
<glyph unicode="&#xac;" horiz-adv-x="1351" d="M88 674v176h1178v-680h-185v504h-993z" />
<glyph unicode="&#xad;" horiz-adv-x="755" d="M109 567v174h538v-174h-538z" />
<glyph unicode="&#xae;" horiz-adv-x="1841" d="M121 762q0 213 106 395t290 289.5t403 107.5q164 0 312.5 -63.5t255 -170t169.5 -253t63 -305.5t-63 -305.5t-169.5 -253.5t-255 -170.5t-312.5 -63.5t-312.5 63.5t-255 170.5t-169 253.5t-62.5 305.5zM264 762q0 -132 51 -252t138 -208t209 -140.5t258 -52.5 q181 0 332.5 88.5t238 238.5t86.5 326t-86.5 326.5t-238 239.5t-332.5 89q-136 0 -258 -52.5t-209 -141t-138 -209t-51 -252.5zM668 344v852h221q155 0 240 -73t85 -191q0 -103 -74.5 -169t-176.5 -79l301 -340h-172l-275 326h-14v-326h-135zM801 786h71q97 0 151 37.5 t54 108.5q0 139 -215 139h-61v-285z" />
<glyph unicode="&#xaf;" horiz-adv-x="1085" d="M201 1360v145h688v-145h-688z" />
<glyph unicode="&#xb0;" horiz-adv-x="845" d="M80 1214q0 144 99.5 242t242.5 98q145 0 244.5 -98t99.5 -242q0 -143 -99.5 -241.5t-244.5 -98.5q-143 0 -242.5 99t-99.5 241zM207 1214q0 -92 62.5 -154.5t152.5 -62.5q92 0 153.5 62.5t61.5 154.5q0 91 -61.5 154.5t-153.5 63.5q-89 0 -152 -63.5t-63 -154.5z" />
<glyph unicode="&#xb1;" horiz-adv-x="1351" d="M98 0v176h1155v-176h-1155zM98 733v176h482v447h182v-447h491v-176h-491v-454h-182v454h-482z" />
<glyph unicode="&#xb2;" horiz-adv-x="768" d="M47 651v15q74 81 112.5 123.5t89.5 100.5t75.5 87.5t55.5 69.5t43.5 62.5t26 50t17.5 48.5t4 43q0 57 -40 96t-118 39q-60 0 -117.5 -26.5t-97.5 -69.5v168q44 37 111.5 59.5t134.5 22.5q132 0 214.5 -71t82.5 -197q0 -98 -65 -193t-240 -280h330v-148h-619z" />
<glyph unicode="&#xb3;" horiz-adv-x="747" d="M100 731v162q46 -49 112.5 -79t137.5 -30q69 0 120.5 35t51.5 92q0 63 -58 95t-151 32h-112v129h114q88 0 130 34t42 85q0 46 -38.5 77t-104.5 32q-128 0 -217 -86v155q41 33 105.5 54.5t132.5 21.5q132 0 209 -66.5t77 -164.5q0 -128 -127 -197v-2q72 -28 115 -80 t43 -127q0 -108 -85 -184t-230 -76q-77 0 -147.5 24t-119.5 64z" />
<glyph unicode="&#xb4;" horiz-adv-x="1085" d="M328 1276l237 346h217l-286 -346h-168z" />
<glyph unicode="&#xb5;" horiz-adv-x="1251" d="M164 -430v1540h205v-702q0 -107 70.5 -170.5t185.5 -63.5q104 0 181 69.5t77 166.5v700h204v-1110h-153l-25 170q-40 -80 -125 -130t-200 -50q-69 0 -145 35t-132 104l70 -559h-213z" />
<glyph unicode="&#xb6;" horiz-adv-x="1363" d="M59 1014q0 233 158.5 371.5t411.5 138.5h534v-1954h-176v1782h-137v-1782h-178v938h-62q-239 0 -395 138.5t-156 367.5z" />
<glyph unicode="&#xb7;" horiz-adv-x="536" d="M135 762q0 58 38.5 96.5t96.5 38.5q57 0 95 -38.5t38 -96.5q0 -57 -38 -95t-95 -38q-58 0 -96.5 38t-38.5 95z" />
<glyph unicode="&#xb8;" horiz-adv-x="1085" d="M309 -354q88 105 133 193t45 200h170q0 -225 -139 -393h-209z" />
<glyph unicode="&#xb9;" horiz-adv-x="684" d="M121 1239v158l356 141h19v-895h-158v684z" />
<glyph unicode="&#xba;" horiz-adv-x="1103" d="M111 1085q0 199 125.5 330t314.5 131q190 0 316 -131t126 -330q0 -197 -126 -326.5t-316 -129.5t-315 128.5t-125 327.5zM285 1085q0 -135 79 -216t187 -81t187 81t79 216q0 136 -78.5 217.5t-187.5 81.5t-187.5 -81.5t-78.5 -217.5z" />
<glyph unicode="&#xbb;" horiz-adv-x="1374" d="M254 47v213l373 297l-373 293v213l547 -442v-132zM762 47v213l373 297l-373 293v213l547 -442v-132z" />
<glyph unicode="&#xbc;" horiz-adv-x="1724" d="M113 1239v158l354 141h20v-895h-159v684zM297 0l1003 1524h160l-1003 -1524h-160zM924 199v102l438 580h145v-541h131v-141h-131v-199h-145v199h-438zM1104 340h258v330z" />
<glyph unicode="&#xbd;" horiz-adv-x="1720" d="M82 1239v158l356 141h19v-895h-158v684zM225 0l1004 1524h160l-1004 -1524h-160zM1028 0v16q258 285 322 368q92 118 101 193q1 11 1 23q0 59 -40 97t-120 38q-59 0 -117.5 -27t-97.5 -69v168q46 37 113 59.5t135 22.5q131 0 213 -71t82 -197q0 -97 -64.5 -192 t-240.5 -282h330v-147h-617z" />
<glyph unicode="&#xbe;" horiz-adv-x="1765" d="M100 731v162q46 -49 112.5 -79t137.5 -30q69 0 120.5 35t51.5 92q0 63 -58 95t-151 32h-112v129h114q88 0 130 34t42 85q0 46 -38.5 77t-104.5 32q-128 0 -217 -86v155q41 33 105.5 54.5t132.5 21.5q132 0 209 -66.5t77 -164.5q0 -128 -127 -197v-2q72 -28 115 -80 t43 -127q0 -108 -85 -184t-230 -76q-77 0 -147.5 24t-119.5 64zM352 0l1004 1524h160l-1004 -1524h-160zM965 199v102l440 580h143v-541h131v-141h-131v-199h-143v199h-440zM1147 340h258v330z" />
<glyph unicode="&#xbf;" horiz-adv-x="1030" d="M96 399q0 68 18 127.5t73 137.5t92 122t137 156q31 35 47 53h215q-36 -41 -93 -106t-83.5 -95.5t-65.5 -78.5t-56.5 -76t-37 -65.5t-26.5 -69.5t-7 -66q0 -121 77 -195.5t198 -74.5q96 0 190 52.5t164 131.5v-227q-69 -68 -172.5 -112t-218.5 -44q-196 0 -323.5 124 t-127.5 306zM428 1401q0 57 38 95t95 38q58 0 96.5 -38t38.5 -95q0 -59 -38 -97t-97 -38q-57 0 -95 38.5t-38 96.5z" />
<glyph unicode="&#xc0;" horiz-adv-x="1482" d="M27 0l596 1524h235l598 -1524h-221l-172 453h-645l-172 -453h-219zM412 2036h217l237 -346h-168zM487 635h504l-252 661z" />
<glyph unicode="&#xc1;" horiz-adv-x="1482" d="M27 0l596 1524h235l598 -1524h-221l-172 453h-645l-172 -453h-219zM487 635h504l-252 661zM625 1690l237 346h215l-284 -346h-168z" />
<glyph unicode="&#xc2;" horiz-adv-x="1482" d="M27 0l596 1524h235l598 -1524h-221l-172 453h-645l-172 -453h-219zM387 1690l277 346h149l281 -346h-195l-162 215l-162 -215h-188zM487 635h504l-252 661z" />
<glyph unicode="&#xc3;" horiz-adv-x="1482" d="M27 0l596 1524h235l598 -1524h-221l-172 453h-645l-172 -453h-219zM350 1718q-6 129 61 194.5t167 65.5q50 0 96 -19.5t74.5 -43t66 -43t74.5 -19.5q51 0 76.5 36t25.5 83h139q6 -130 -60.5 -195t-166.5 -65q-41 0 -78.5 12.5t-64.5 31t-53 36.5t-55.5 30.5t-59.5 12.5 q-51 0 -77 -35t-26 -82h-139zM487 635h504l-252 661z" />
<glyph unicode="&#xc4;" horiz-adv-x="1482" d="M27 0l596 1524h235l598 -1524h-221l-172 453h-645l-172 -453h-219zM412 1845q0 46 33.5 79.5t80.5 33.5t82 -33.5t35 -79.5q0 -47 -34.5 -79.5t-82.5 -32.5q-47 0 -80.5 32.5t-33.5 79.5zM487 635h504l-252 661zM838 1845q0 46 33.5 79.5t80.5 33.5q49 0 82 -33.5 t33 -79.5q0 -47 -33 -79.5t-82 -32.5q-47 0 -80.5 32.5t-33.5 79.5z" />
<glyph unicode="&#xc5;" horiz-adv-x="1482" d="M27 0l596 1524h235l598 -1524h-221l-172 453h-645l-172 -453h-219zM487 635h504l-252 661zM516 1860q0 89 65 148.5t158 59.5q92 0 155.5 -59.5t63.5 -148.5q0 -86 -64 -145.5t-155 -59.5q-92 0 -157.5 60t-65.5 145zM631 1860q0 -44 31.5 -73.5t76.5 -29.5t77 29.5 t32 73.5t-32 74t-77 30t-76.5 -30t-31.5 -74z" />
<glyph unicode="&#xc6;" horiz-adv-x="2111" d="M8 0l1057 1524h905v-193h-633v-465h586v-182h-586v-491h633v-193h-840v459h-559l-315 -459h-248zM690 641h440v639z" />
<glyph unicode="&#xc7;" horiz-adv-x="1370" d="M113 764q0 142 40 268t111.5 220t167 163t208 104t232.5 35q226 0 404 -102v-217q-96 62 -188 92.5t-205 30.5q-106 0 -206 -41t-179 -115.5t-126.5 -189t-47.5 -250.5q0 -135 47.5 -249t126.5 -189t179 -116.5t206 -41.5q113 0 203.5 31.5t189.5 95.5v-219 q-169 -97 -369 -105q-16 -177 -133 -323h-211q76 90 119.5 167.5t54.5 168.5q-129 22 -242 87t-198 163.5t-134.5 236t-49.5 295.5z" />
<glyph unicode="&#xc8;" horiz-adv-x="1181" d="M201 0v1524h839v-191h-632v-467h585v-182h-585v-491h632v-193h-839zM291 2036l287 -346h167l-237 346h-217z" />
<glyph unicode="&#xc9;" horiz-adv-x="1181" d="M201 0v1524h839v-191h-632v-467h585v-182h-585v-491h632v-193h-839zM504 1690l237 346h217l-286 -346h-168z" />
<glyph unicode="&#xca;" horiz-adv-x="1181" d="M201 0v1524h839v-191h-632v-467h585v-182h-585v-491h632v-193h-839zM268 1690l277 346h147l281 -346h-193l-162 215l-161 -215h-189z" />
<glyph unicode="&#xcb;" horiz-adv-x="1181" d="M201 0v1524h839v-191h-632v-467h585v-182h-585v-491h632v-193h-839zM291 1845q0 46 34.5 79.5t80.5 33.5q49 0 82.5 -33.5t33.5 -79.5q0 -47 -33.5 -79.5t-82.5 -32.5q-46 0 -80.5 32.5t-34.5 79.5zM719 1845q0 46 33 79.5t82 33.5q47 0 80.5 -33.5t33.5 -79.5 q0 -47 -33.5 -79.5t-80.5 -32.5q-49 0 -82 32.5t-33 79.5z" />
<glyph unicode="&#xcc;" horiz-adv-x="608" d="M-25 2036l287 -346h168l-237 346h-218zM201 0v1524h207v-1524h-207z" />
<glyph unicode="&#xcd;" horiz-adv-x="608" d="M188 1690l238 346h217l-287 -346h-168zM201 0v1524h207v-1524h-207z" />
<glyph unicode="&#xce;" horiz-adv-x="608" d="M-47 1690l276 346h148l280 -346h-192l-162 215l-162 -215h-188zM201 0v1524h207v-1524h-207z" />
<glyph unicode="&#xcf;" horiz-adv-x="608" d="M-25 1845q0 46 34.5 79.5t80.5 33.5q49 0 83 -33.5t34 -79.5q0 -47 -34 -79.5t-83 -32.5q-46 0 -80.5 32.5t-34.5 79.5zM201 0v1524h207v-1524h-207zM403 1845q0 46 33 79.5t82 33.5q47 0 81 -33.5t34 -79.5q0 -47 -33.5 -79.5t-81.5 -32.5q-49 0 -82 32.5t-33 79.5z" />
<glyph unicode="&#xd0;" horiz-adv-x="1560" d="M74 686v160h194v678h377q243 0 428 -94.5t285 -267.5t100 -400q0 -171 -59.5 -313.5t-165.5 -241t-257.5 -153t-330.5 -54.5h-377v686h-194zM475 193h178q174 0 307 65.5t209 195t76 308.5q0 269 -162.5 419t-425.5 150h-182v-485h385v-160h-385v-493z" />
<glyph unicode="&#xd1;" horiz-adv-x="1640" d="M201 0v1524h209l837 -1200h4q-14 317 -14 895v305h203v-1524h-193l-854 1217h-4q12 -337 12 -883v-334h-200zM430 1718q-7 129 59.5 194.5t167.5 65.5q49 0 95 -19.5t74.5 -43t66.5 -43t74 -19.5q53 0 78.5 36t23.5 83h139q7 -130 -59 -195t-166 -65q-41 0 -78.5 12.5 t-64.5 31t-53 36.5t-55.5 30.5t-59.5 12.5q-53 0 -79 -35t-24 -82h-139z" />
<glyph unicode="&#xd2;" horiz-adv-x="1744" d="M113 762q0 167 57.5 313.5t158 252t242 166t303.5 60.5q215 0 389 -103.5t272.5 -284.5t98.5 -404q0 -167 -58 -314.5t-158 -252.5t-241.5 -165.5t-302.5 -60.5q-162 0 -303.5 60.5t-242 165t-158 252t-57.5 315.5zM324 762q0 -138 46 -253t123 -189.5t175.5 -115 t205.5 -40.5q106 0 204 41t174.5 115.5t122.5 189.5t46 252q0 138 -46 253t-122.5 189t-174.5 115t-204 41q-108 0 -207 -41t-175.5 -115.5t-122 -189t-45.5 -252.5zM492 2050l286 -346h168l-237 346h-217z" />
<glyph unicode="&#xd3;" horiz-adv-x="1744" d="M113 762q0 167 57.5 313.5t158 252t242 166t303.5 60.5q215 0 389 -103.5t272.5 -284.5t98.5 -404q0 -167 -58 -314.5t-158 -252.5t-241.5 -165.5t-302.5 -60.5q-162 0 -303.5 60.5t-242 165t-158 252t-57.5 315.5zM324 762q0 -138 46 -253t123 -189.5t175.5 -115 t205.5 -40.5q106 0 204 41t174.5 115.5t122.5 189.5t46 252q0 138 -46 253t-122.5 189t-174.5 115t-204 41q-108 0 -207 -41t-175.5 -115.5t-122 -189t-45.5 -252.5zM762 1704l237 346h215l-284 -346h-168z" />
<glyph unicode="&#xd4;" horiz-adv-x="1744" d="M113 762q0 167 57.5 313.5t158 252t242 166t303.5 60.5q215 0 389 -103.5t272.5 -284.5t98.5 -404q0 -167 -58 -314.5t-158 -252.5t-241.5 -165.5t-302.5 -60.5q-162 0 -303.5 60.5t-242 165t-158 252t-57.5 315.5zM324 762q0 -138 46 -253t123 -189.5t175.5 -115 t205.5 -40.5q106 0 204 41t174.5 115.5t122.5 189.5t46 252q0 138 -46 253t-122.5 189t-174.5 115t-204 41q-108 0 -207 -41t-175.5 -115.5t-122 -189t-45.5 -252.5zM526 1712l277 344h149l281 -344h-195l-161 213l-162 -213h-189z" />
<glyph unicode="&#xd5;" horiz-adv-x="1744" d="M113 762q0 167 57.5 313.5t158 252t242 166t303.5 60.5q215 0 389 -103.5t272.5 -284.5t98.5 -404q0 -167 -58 -314.5t-158 -252.5t-241.5 -165.5t-302.5 -60.5q-162 0 -303.5 60.5t-242 165t-158 252t-57.5 315.5zM324 762q0 -138 46 -253t123 -189.5t175.5 -115 t205.5 -40.5q106 0 204 41t174.5 115.5t122.5 189.5t46 252q0 138 -46 253t-122.5 189t-174.5 115t-204 41q-108 0 -207 -41t-175.5 -115.5t-122 -189t-45.5 -252.5zM473 1733q-7 131 59 195.5t168 64.5q41 0 77.5 -12.5t64.5 -30.5t53.5 -36.5t55 -31t59.5 -12.5 q53 0 78.5 35t23.5 82h139q7 -129 -59 -195t-166 -66q-50 0 -96 19.5t-74.5 43t-66 43t-74.5 19.5q-53 0 -79 -35.5t-24 -82.5h-139z" />
<glyph unicode="&#xd6;" horiz-adv-x="1744" d="M113 762q0 167 57.5 313.5t158 252t242 166t303.5 60.5q215 0 389 -103.5t272.5 -284.5t98.5 -404q0 -167 -58 -314.5t-158 -252.5t-241.5 -165.5t-302.5 -60.5q-162 0 -303.5 60.5t-242 165t-158 252t-57.5 315.5zM324 762q0 -138 46 -253t123 -189.5t175.5 -115 t205.5 -40.5q106 0 204 41t174.5 115.5t122.5 189.5t46 252q0 138 -46 253t-122.5 189t-174.5 115t-204 41q-108 0 -207 -41t-175.5 -115.5t-122 -189t-45.5 -252.5zM547 1888q0 47 34 80t81 33q48 0 82 -33t34 -80q0 -46 -34.5 -79t-81.5 -33t-81 33t-34 79zM973 1888 q0 47 33.5 80t80.5 33q49 0 82 -32.5t33 -80.5q0 -46 -33 -79t-82 -33q-47 0 -80.5 33t-33.5 79z" />
<glyph unicode="&#xd7;" horiz-adv-x="1351" d="M152 358l401 404l-401 401l122 125l402 -403l401 403l125 -125l-401 -401l401 -404l-123 -122l-403 403l-404 -403z" />
<glyph unicode="&#xd8;" horiz-adv-x="1755" d="M115 76l172 178q-166 215 -166 508q0 222 99 403.5t273.5 285t389.5 103.5q276 0 483 -170l154 160l102 -100l-156 -162q176 -217 176 -520q0 -167 -57.5 -314.5t-158 -252.5t-241.5 -165.5t-302 -60.5q-292 0 -498 181l-164 -173zM334 762q0 -203 98 -354l793 829 q-148 123 -342 123q-108 0 -206.5 -41t-175 -115.5t-122 -189t-45.5 -252.5zM526 297q152 -133 357 -133q107 0 205 41t174.5 116t122 189.5t45.5 251.5q0 212 -107 368z" />
<glyph unicode="&#xd9;" horiz-adv-x="1533" d="M182 578v946h207v-955q0 -187 99.5 -296t271.5 -109q176 0 280.5 110t104.5 299v951h209v-944q0 -273 -162 -442t-432 -169q-266 0 -422 168t-156 441zM438 2036l287 -346h168l-238 346h-217z" />
<glyph unicode="&#xda;" horiz-adv-x="1533" d="M182 578v946h207v-955q0 -187 99.5 -296t271.5 -109q176 0 280.5 110t104.5 299v951h209v-944q0 -273 -162 -442t-432 -169q-266 0 -422 168t-156 441zM651 1690l238 346h217l-287 -346h-168z" />
<glyph unicode="&#xdb;" horiz-adv-x="1533" d="M182 578v946h207v-955q0 -187 99.5 -296t271.5 -109q176 0 280.5 110t104.5 299v951h209v-944q0 -273 -162 -442t-432 -169q-266 0 -422 168t-156 441zM416 1690l276 346h148l280 -346h-192l-162 215l-162 -215h-188z" />
<glyph unicode="&#xdc;" horiz-adv-x="1533" d="M182 578v946h207v-955q0 -187 99.5 -296t271.5 -109q176 0 280.5 110t104.5 299v951h209v-944q0 -273 -162 -442t-432 -169q-266 0 -422 168t-156 441zM438 1845q0 46 34.5 79.5t80.5 33.5q49 0 83 -33.5t34 -79.5q0 -47 -34 -79.5t-83 -32.5q-46 0 -80.5 32.5 t-34.5 79.5zM866 1845q0 46 33 79.5t82 33.5q47 0 81 -33.5t34 -79.5q0 -47 -33.5 -79.5t-81.5 -32.5q-49 0 -82 32.5t-33 79.5z" />
<glyph unicode="&#xdd;" horiz-adv-x="1359" d="M20 1524h234l430 -695h4l428 695h227l-557 -883v-641h-204v639zM565 1690l238 346h215l-285 -346h-168z" />
<glyph unicode="&#xde;" horiz-adv-x="1271" d="M201 0v1524h207v-238h225q173 0 304 -57t205.5 -171t74.5 -272q0 -235 -159.5 -376.5t-418.5 -141.5h-231v-268h-207zM408 461h241q161 0 259 87t98 232t-96.5 228.5t-260.5 83.5h-241v-631z" />
<glyph unicode="&#xdf;" horiz-adv-x="1327" d="M164 0v1139q0 235 132 373.5t355 138.5q203 0 324 -112.5t121 -276.5q0 -114 -54 -199.5t-143 -126.5v-4q74 -18 136 -52.5t112.5 -88t79 -132t28.5 -174.5q0 -156 -73 -270.5t-192.5 -170.5t-268.5 -56q-99 0 -178 22v183q72 -21 153 -21q154 0 255.5 84t101.5 242 q0 147 -97.5 228t-265.5 81h-121v158h45q130 0 206.5 72t76.5 186q0 106 -71 175.5t-183 69.5q-121 0 -196.5 -81t-75.5 -224v-1163h-207z" />
<glyph unicode="&#xe0;" d="M96 553q0 130 42 241t112 185t160.5 116t187.5 42q123 0 227.5 -59t165.5 -167l25 199h168v-1110h-168l-25 201q-61 -108 -165.5 -167t-227.5 -59q-97 0 -187.5 41.5t-160.5 115.5t-112 184t-42 237zM301 555q0 -171 98 -281t244 -110q144 0 242 111t98 282 q0 170 -98 279.5t-242 109.5q-146 0 -244 -110t-98 -281zM362 1606l287 -346h168l-237 346h-218z" />
<glyph unicode="&#xe1;" d="M96 553q0 130 42 241t112 185t160.5 116t187.5 42q123 0 227.5 -59t165.5 -167l25 199h168v-1110h-168l-25 201q-61 -108 -165.5 -167t-227.5 -59q-97 0 -187.5 41.5t-160.5 115.5t-112 184t-42 237zM301 555q0 -171 98 -281t244 -110q144 0 242 111t98 282 q0 170 -98 279.5t-242 109.5q-146 0 -244 -110t-98 -281zM575 1260l238 346h215l-285 -346h-168z" />
<glyph unicode="&#xe2;" d="M96 553q0 130 42 241t112 185t160.5 116t187.5 42q123 0 227.5 -59t165.5 -167l25 199h168v-1110h-168l-25 201q-61 -108 -165.5 -167t-227.5 -59q-97 0 -187.5 41.5t-160.5 115.5t-112 184t-42 237zM301 555q0 -171 98 -281t244 -110q144 0 242 111t98 282 q0 170 -98 279.5t-242 109.5q-146 0 -244 -110t-98 -281zM338 1262l276 344h150l280 -344h-194l-162 213l-162 -213h-188z" />
<glyph unicode="&#xe3;" d="M96 553q0 130 42 241t112 185t160.5 116t187.5 42q123 0 227.5 -59t165.5 -167l25 199h168v-1110h-168l-25 201q-61 -108 -165.5 -167t-227.5 -59q-97 0 -187.5 41.5t-160.5 115.5t-112 184t-42 237zM301 555q0 -171 98 -281t244 -110q144 0 242 111t98 282 q0 170 -98 279.5t-242 109.5q-146 0 -244 -110t-98 -281zM301 1290q-6 129 60.5 193.5t166.5 64.5q41 0 78.5 -12.5t65 -31t53 -36.5t55.5 -30.5t60 -12.5q51 0 76.5 36t25.5 83h139q6 -130 -60.5 -195t-166.5 -65q-41 0 -78.5 12.5t-64.5 31t-53 36.5t-55.5 30.5 t-59.5 12.5q-51 0 -77 -35.5t-26 -81.5h-139z" />
<glyph unicode="&#xe4;" d="M96 553q0 130 42 241t112 185t160.5 116t187.5 42q123 0 227.5 -59t165.5 -167l25 199h168v-1110h-168l-25 201q-61 -108 -165.5 -167t-227.5 -59q-97 0 -187.5 41.5t-160.5 115.5t-112 184t-42 237zM301 555q0 -171 98 -281t244 -110q144 0 242 111t98 282 q0 170 -98 279.5t-242 109.5q-146 0 -244 -110t-98 -281zM362 1417q0 46 34 79.5t81 33.5t82 -33.5t35 -79.5q0 -47 -34.5 -79.5t-82.5 -32.5t-81.5 32.5t-33.5 79.5zM788 1417q0 46 34 79.5t81 33.5q49 0 82 -33.5t33 -79.5q0 -47 -33 -79.5t-82 -32.5q-48 0 -81.5 32.5 t-33.5 79.5z" />
<glyph unicode="&#xe5;" d="M96 553q0 130 42 241t112 185t160.5 116t187.5 42q123 0 227.5 -59t165.5 -167l25 199h168v-1110h-168l-25 201q-61 -108 -165.5 -167t-227.5 -59q-97 0 -187.5 41.5t-160.5 115.5t-112 184t-42 237zM301 555q0 -171 98 -281t244 -110q144 0 242 111t98 282 q0 170 -98 279.5t-242 109.5q-146 0 -244 -110t-98 -281zM467 1432q0 89 65 148.5t158 59.5q92 0 155.5 -59.5t63.5 -148.5q0 -86 -64 -145.5t-155 -59.5q-92 0 -157.5 60t-65.5 145zM582 1432q0 -45 31.5 -75t76.5 -30t77 30t32 75q0 44 -32 74t-77 30t-76.5 -30t-31.5 -74 z" />
<glyph unicode="&#xe6;" horiz-adv-x="1947" d="M90 326q0 94 42 164.5t132 118.5t231 57t341 -21v43q0 115 -76 192.5t-225 77.5q-92 0 -185.5 -34t-156.5 -86v186q67 50 163 81.5t201 31.5q145 0 248.5 -64t150.5 -160q53 89 158.5 156.5t239.5 67.5q104 0 192.5 -36.5t155.5 -105.5t105 -177t38 -243q0 -37 -4 -83 h-809q14 -169 118 -254.5t255 -85.5q97 0 197 32t180 103v-195q-80 -54 -183.5 -85.5t-205.5 -31.5q-154 0 -271 63.5t-186 182.5q-63 -112 -176.5 -179t-255.5 -67q-186 0 -300 103t-114 248zM287 332q0 -78 64.5 -134.5t168.5 -56.5q58 0 113 19.5t101 55.5t74 95.5 t28 132.5v66q-277 50 -413 -0.5t-136 -177.5zM1034 635h617q-3 158 -88.5 242t-208.5 84q-128 0 -218 -89.5t-102 -236.5z" />
<glyph unicode="&#xe7;" horiz-adv-x="1069" d="M96 557q0 247 161 413.5t400 166.5q188 0 312 -80v-205q-67 51 -137 72.5t-158 21.5q-98 0 -182 -46t-137.5 -136t-53.5 -207q0 -177 111 -285t264 -108q175 0 293 90v-203q-115 -65 -262 -74q-17 -187 -138 -331h-209q79 95 122.5 172t54.5 170q-196 40 -318.5 196 t-122.5 373z" />
<glyph unicode="&#xe8;" horiz-adv-x="1218" d="M96 555q0 130 43 240.5t115.5 184.5t168 115.5t200.5 41.5q104 0 193 -36.5t156 -105.5t105.5 -177t38.5 -243q0 -37 -4 -83h-811q15 -159 119 -248.5t254 -89.5q222 0 379 139v-197q-167 -121 -391 -121q-254 0 -410 159.5t-156 420.5zM301 639h619q-3 153 -88 236 t-201 83q-134 0 -225 -92.5t-105 -226.5zM303 1622l287 -346h168l-238 346h-217z" />
<glyph unicode="&#xe9;" horiz-adv-x="1218" d="M96 555q0 130 43 240.5t115.5 184.5t168 115.5t200.5 41.5q104 0 193 -36.5t156 -105.5t105.5 -177t38.5 -243q0 -37 -4 -83h-811q15 -159 119 -248.5t254 -89.5q222 0 379 139v-197q-167 -121 -391 -121q-254 0 -410 159.5t-156 420.5zM301 639h619q-3 153 -88 236 t-201 83q-134 0 -225 -92.5t-105 -226.5zM516 1276l238 346h217l-287 -346h-168z" />
<glyph unicode="&#xea;" horiz-adv-x="1218" d="M96 555q0 130 43 240.5t115.5 184.5t168 115.5t200.5 41.5q104 0 193 -36.5t156 -105.5t105.5 -177t38.5 -243q0 -37 -4 -83h-811q15 -159 119 -248.5t254 -89.5q222 0 379 139v-197q-167 -121 -391 -121q-254 0 -410 159.5t-156 420.5zM281 1276l276 346h148l280 -346 h-192l-162 215l-162 -215h-188zM301 639h619q-3 153 -88 236t-201 83q-134 0 -225 -92.5t-105 -226.5z" />
<glyph unicode="&#xeb;" horiz-adv-x="1218" d="M96 555q0 130 43 240.5t115.5 184.5t168 115.5t200.5 41.5q104 0 193 -36.5t156 -105.5t105.5 -177t38.5 -243q0 -37 -4 -83h-811q15 -159 119 -248.5t254 -89.5q222 0 379 139v-197q-167 -121 -391 -121q-254 0 -410 159.5t-156 420.5zM301 639h619q-3 153 -88 236 t-201 83q-134 0 -225 -92.5t-105 -226.5zM303 1432q0 47 34.5 79.5t80.5 32.5q49 0 83 -32.5t34 -79.5q0 -46 -34 -79.5t-83 -33.5q-46 0 -80.5 33.5t-34.5 79.5zM731 1432q0 47 33 79.5t82 32.5q48 0 81.5 -32.5t33.5 -79.5q0 -46 -34 -79.5t-81 -33.5q-49 0 -82 33.5 t-33 79.5z" />
<glyph unicode="&#xec;" horiz-adv-x="552" d="M-51 1622l287 -346h167l-237 346h-217zM174 0v1110h205v-1110h-205z" />
<glyph unicode="&#xed;" horiz-adv-x="552" d="M162 1276l237 346h215l-284 -346h-168zM174 0v1110h205v-1110h-205z" />
<glyph unicode="&#xee;" horiz-adv-x="552" d="M-76 1276l277 346h149l281 -346h-195l-162 215l-161 -215h-189zM174 0v1110h205v-1110h-205z" />
<glyph unicode="&#xef;" horiz-adv-x="552" d="M-51 1432q0 47 33.5 79.5t80.5 32.5q48 0 82.5 -32.5t34.5 -79.5q0 -46 -35 -79.5t-82 -33.5t-80.5 33.5t-33.5 79.5zM174 0v1110h205v-1110h-205zM375 1432q0 47 33.5 79.5t80.5 32.5q49 0 82 -32.5t33 -79.5q0 -46 -33 -79.5t-82 -33.5q-47 0 -80.5 33.5t-33.5 79.5z " />
<glyph unicode="&#xf0;" horiz-adv-x="1304" d="M96 551q0 163 69.5 294t189 204t263.5 73q166 0 293 -123l4 2q-59 140 -241 357l-199 -96l-47 100l172 82q-80 92 -182 194h248q62 -69 100 -114l199 96l47 -96l-174 -86q184 -229 277 -433t93 -417q0 -272 -157.5 -442.5t-397.5 -170.5q-238 0 -397.5 164.5 t-159.5 411.5zM301 555q0 -90 29.5 -165t79 -124t112.5 -75.5t131 -26.5q67 0 129.5 27.5t111 77t78 125.5t29.5 167q0 87 -29.5 160.5t-78 121.5t-111 74.5t-129.5 26.5q-68 0 -131 -26.5t-112.5 -75t-79 -123.5t-29.5 -164z" />
<glyph unicode="&#xf1;" horiz-adv-x="1241" d="M164 0v1110h158l24 -166h4q51 84 140 138.5t200 54.5q182 0 289.5 -108.5t107.5 -291.5v-737h-204v666q0 278 -248 278q-115 0 -190.5 -76t-75.5 -192v-676h-205zM248 1305q-7 130 59 195t166 65q41 0 78.5 -12.5t64.5 -30.5t53 -36.5t55.5 -31t59.5 -12.5q53 0 79 35 t24 82h139q7 -129 -59.5 -195t-167.5 -66q-49 0 -95 19.5t-74.5 43t-66.5 43t-74 19.5q-53 0 -78.5 -35.5t-23.5 -82.5h-139z" />
<glyph unicode="&#xf2;" horiz-adv-x="1302" d="M96 555q0 165 72.5 298.5t200 208.5t284.5 75q238 0 396.5 -165.5t158.5 -416.5q0 -250 -158.5 -415t-396.5 -165q-240 0 -398.5 164.5t-158.5 415.5zM301 555q0 -90 29.5 -165t79 -124t112.5 -75.5t131 -26.5q141 0 244.5 106.5t103.5 284.5q0 91 -29 166t-78 123.5 t-111.5 75t-129.5 26.5q-143 0 -247.5 -106t-104.5 -285zM424 1622l287 -346h168l-238 346h-217z" />
<glyph unicode="&#xf3;" horiz-adv-x="1302" d="M96 555q0 165 72.5 298.5t200 208.5t284.5 75q238 0 396.5 -165.5t158.5 -416.5q0 -250 -158.5 -415t-396.5 -165q-240 0 -398.5 164.5t-158.5 415.5zM301 555q0 -90 29.5 -165t79 -124t112.5 -75.5t131 -26.5q141 0 244.5 106.5t103.5 284.5q0 91 -29 166t-78 123.5 t-111.5 75t-129.5 26.5q-143 0 -247.5 -106t-104.5 -285zM434 1276l238 346h217l-287 -346h-168z" />
<glyph unicode="&#xf4;" horiz-adv-x="1302" d="M96 555q0 165 72.5 298.5t200 208.5t284.5 75q238 0 396.5 -165.5t158.5 -416.5q0 -250 -158.5 -415t-396.5 -165q-240 0 -398.5 164.5t-158.5 415.5zM299 1276l276 346h148l281 -346h-193l-162 215l-162 -215h-188zM301 555q0 -90 29.5 -165t79 -124t112.5 -75.5 t131 -26.5q141 0 244.5 106.5t103.5 284.5q0 91 -29 166t-78 123.5t-111.5 75t-129.5 26.5q-143 0 -247.5 -106t-104.5 -285z" />
<glyph unicode="&#xf5;" horiz-adv-x="1302" d="M96 555q0 165 72.5 298.5t200 208.5t284.5 75q238 0 396.5 -165.5t158.5 -416.5q0 -250 -158.5 -415t-396.5 -165q-240 0 -398.5 164.5t-158.5 415.5zM260 1305q-7 130 59 195t166 65q41 0 78.5 -12.5t65 -30.5t53 -36.5t55.5 -31t60 -12.5q53 0 78.5 35t23.5 82h139 q7 -129 -59.5 -195t-167.5 -66q-49 0 -94.5 19.5t-74 43t-66 43t-74.5 19.5q-53 0 -79 -35.5t-24 -82.5h-139zM301 555q0 -90 29.5 -165t79 -124t112.5 -75.5t131 -26.5q141 0 244.5 106.5t103.5 284.5q0 91 -29 166t-78 123.5t-111.5 75t-129.5 26.5q-143 0 -247.5 -106 t-104.5 -285z" />
<glyph unicode="&#xf6;" horiz-adv-x="1302" d="M96 555q0 165 72.5 298.5t200 208.5t284.5 75q238 0 396.5 -165.5t158.5 -416.5q0 -250 -158.5 -415t-396.5 -165q-240 0 -398.5 164.5t-158.5 415.5zM301 555q0 -90 29.5 -165t79 -124t112.5 -75.5t131 -26.5q141 0 244.5 106.5t103.5 284.5q0 91 -29 166t-78 123.5 t-111.5 75t-129.5 26.5q-143 0 -247.5 -106t-104.5 -285zM324 1432q0 47 33.5 79.5t80.5 32.5q48 0 82.5 -32.5t34.5 -79.5q0 -46 -35 -79.5t-82 -33.5t-80.5 33.5t-33.5 79.5zM750 1432q0 47 33.5 79.5t80.5 32.5q49 0 82 -32.5t33 -79.5q0 -46 -33 -79.5t-82 -33.5 q-47 0 -80.5 33.5t-33.5 79.5z" />
<glyph unicode="&#xf7;" horiz-adv-x="1351" d="M115 672v178h1122v-178h-1122zM541 381q0 58 38 96.5t95 38.5q58 0 96.5 -38t38.5 -97q0 -57 -38.5 -95t-96.5 -38q-57 0 -95 38t-38 95zM541 1141q0 57 38 96t95 39q58 0 96.5 -39t38.5 -96t-38.5 -95t-96.5 -38q-57 0 -95 38t-38 95z" />
<glyph unicode="&#xf8;" horiz-adv-x="1302" d="M96 555q0 250 158.5 416t396.5 166q205 0 355 -131l116 120l90 -90l-116 -123q110 -151 110 -358q0 -250 -158.5 -415t-396.5 -165q-199 0 -342 115l-106 -110l-94 88l108 112q-121 156 -121 375zM299 555q0 -132 63 -223l506 530q-94 84 -217 84q-143 0 -247.5 -106 t-104.5 -285zM446 236q90 -72 205 -72q68 0 131 26.5t113 75.5t79.5 124t29.5 165q0 117 -54 207z" />
<glyph unicode="&#xf9;" horiz-adv-x="1226" d="M152 430v680h204v-684q0 -123 67.5 -192.5t186.5 -69.5q121 0 190.5 70t69.5 194v682h205v-680q0 -203 -126 -329t-339 -126q-212 0 -335 125.5t-123 329.5zM285 1622l286 -346h168l-237 346h-217z" />
<glyph unicode="&#xfa;" horiz-adv-x="1226" d="M152 430v680h204v-684q0 -123 67.5 -192.5t186.5 -69.5q121 0 190.5 70t69.5 194v682h205v-680q0 -203 -126 -329t-339 -126q-212 0 -335 125.5t-123 329.5zM498 1276l237 346h215l-284 -346h-168z" />
<glyph unicode="&#xfb;" horiz-adv-x="1226" d="M152 430v680h204v-684q0 -123 67.5 -192.5t186.5 -69.5q121 0 190.5 70t69.5 194v682h205v-680q0 -203 -126 -329t-339 -126q-212 0 -335 125.5t-123 329.5zM260 1276l277 346h149l281 -346h-195l-162 215l-161 -215h-189z" />
<glyph unicode="&#xfc;" horiz-adv-x="1226" d="M152 430v680h204v-684q0 -123 67.5 -192.5t186.5 -69.5q121 0 190.5 70t69.5 194v682h205v-680q0 -203 -126 -329t-339 -126q-212 0 -335 125.5t-123 329.5zM285 1432q0 47 33.5 79.5t80.5 32.5q48 0 82.5 -32.5t34.5 -79.5q0 -46 -35 -79.5t-82 -33.5t-80.5 33.5 t-33.5 79.5zM711 1432q0 47 33.5 79.5t80.5 32.5q49 0 82 -32.5t33 -79.5q0 -46 -33 -79.5t-82 -33.5q-47 0 -80.5 33.5t-33.5 79.5z" />
<glyph unicode="&#xfd;" horiz-adv-x="1122" d="M45 1110h221l297 -829h6l297 829h213l-602 -1540h-209l193 469zM446 1276l238 346h217l-287 -346h-168z" />
<glyph unicode="&#xfe;" horiz-adv-x="1345" d="M164 -430v2068h205v-718q55 98 158.5 152t220.5 54q100 0 190.5 -40.5t159.5 -112.5t110 -180t41 -236t-41 -237t-110 -182t-159.5 -113.5t-190.5 -40.5q-119 0 -218 51.5t-161 159.5v-625h-205zM365 555q0 -171 95 -278t238 -107q145 0 242.5 107.5t97.5 279.5 q0 171 -97 277t-243 106q-143 0 -238 -107t-95 -278z" />
<glyph unicode="&#xff;" horiz-adv-x="1122" d="M45 1110h221l297 -829h6l297 829h213l-602 -1540h-209l193 469zM233 1432q0 47 34.5 79.5t80.5 32.5q49 0 83 -32.5t34 -79.5q0 -46 -34 -79.5t-83 -33.5q-46 0 -80.5 33.5t-34.5 79.5zM662 1432q0 48 32.5 80t81.5 32q48 0 81.5 -32.5t33.5 -79.5q0 -46 -34 -79.5 t-81 -33.5q-49 0 -81.5 33t-32.5 80z" />
<glyph unicode="&#x152;" horiz-adv-x="2037" d="M113 760q0 148 41.5 274.5t113 216.5t167.5 154.5t205 95.5t224 31q42 0 129.5 -4t110.5 -4h792v-193h-632v-465h585v-182h-585v-491h632v-193h-780q-20 0 -113 -5t-139 -5q-115 0 -224 31t-205 95t-167.5 154t-113 216t-41.5 274zM330 760q0 -132 45.5 -242 t122.5 -181.5t177 -111t210 -39.5q71 0 172 9v1130q-75 10 -172 10q-110 0 -210 -39.5t-177 -111.5t-122.5 -182t-45.5 -242z" />
<glyph unicode="&#x153;" horiz-adv-x="2115" d="M96 555q0 250 158.5 416t396.5 166q138 0 257 -67t192 -177q68 113 174.5 178.5t247.5 65.5q104 0 193 -36.5t156 -105.5t105.5 -177t38.5 -243q0 -59 -6 -83h-805q18 -169 119.5 -253.5t251.5 -84.5q96 0 196 32t181 103v-197q-80 -54 -183.5 -85.5t-205.5 -31.5 q-303 0 -465 244q-76 -112 -190 -178t-257 -66q-157 0 -283.5 74.5t-199 207.5t-72.5 298zM299 555q0 -179 104.5 -285t247.5 -106q68 0 131 26.5t113 75.5t79.5 124t29.5 165q0 179 -105 285t-248 106t-247.5 -106t-104.5 -285zM1202 639h617q-4 154 -90 236.5t-207 82.5 q-126 0 -215.5 -88t-104.5 -231z" />
<glyph unicode="&#x178;" horiz-adv-x="1359" d="M20 1524h234l430 -695h4l428 695h227l-557 -883v-641h-204v639zM352 1845q0 46 34 79.5t81 33.5t82 -33.5t35 -79.5q0 -47 -34.5 -79.5t-82.5 -32.5t-81.5 32.5t-33.5 79.5zM778 1845q0 46 34 79.5t81 33.5q49 0 82 -33.5t33 -79.5q0 -47 -33 -79.5t-82 -32.5 q-48 0 -81.5 32.5t-33.5 79.5z" />
<glyph unicode="&#x2c6;" horiz-adv-x="1103" d="M199 1276l276 346h148l280 -346h-192l-162 215l-162 -215h-188z" />
<glyph unicode="&#x2dc;" horiz-adv-x="788" d="M2 1305q-7 130 59.5 195t167.5 65q41 0 78.5 -12.5t65 -30.5t53 -36.5t55.5 -31t60 -12.5q51 0 76.5 35t25.5 82h139q6 -129 -60.5 -195t-166.5 -66q-50 0 -96 19.5t-74.5 43t-66 43t-74.5 19.5q-51 0 -77 -35.5t-26 -82.5h-139z" />
<glyph unicode="&#x2000;" horiz-adv-x="1034" />
<glyph unicode="&#x2001;" horiz-adv-x="2068" />
<glyph unicode="&#x2002;" horiz-adv-x="1034" />
<glyph unicode="&#x2003;" horiz-adv-x="2068" />
<glyph unicode="&#x2004;" horiz-adv-x="689" />
<glyph unicode="&#x2005;" horiz-adv-x="517" />
<glyph unicode="&#x2006;" horiz-adv-x="344" />
<glyph unicode="&#x2007;" horiz-adv-x="344" />
<glyph unicode="&#x2008;" horiz-adv-x="258" />
<glyph unicode="&#x2009;" horiz-adv-x="413" />
<glyph unicode="&#x200a;" horiz-adv-x="114" />
<glyph unicode="&#x2010;" horiz-adv-x="755" d="M109 567v174h538v-174h-538z" />
<glyph unicode="&#x2011;" horiz-adv-x="755" d="M109 567v174h538v-174h-538z" />
<glyph unicode="&#x2012;" horiz-adv-x="755" d="M109 567v174h538v-174h-538z" />
<glyph unicode="&#x2013;" horiz-adv-x="974" d="M109 567v174h757v-174h-757z" />
<glyph unicode="&#x2014;" horiz-adv-x="1579" d="M109 567v174h1361v-174h-1361z" />
<glyph unicode="&#x2018;" horiz-adv-x="524" d="M129 956v82q0 184 125 486h152q-41 -139 -64 -249.5t-23 -223.5v-95h-190z" />
<glyph unicode="&#x2019;" horiz-adv-x="524" d="M117 956q86 273 86 474v94h192v-84q0 -182 -125 -484h-153z" />
<glyph unicode="&#x201a;" horiz-adv-x="524" d="M115 -272q86 273 86 473v94h190v-82q0 -193 -125 -485h-151z" />
<glyph unicode="&#x201c;" horiz-adv-x="903" d="M129 956v82q0 184 125 486h152q-41 -139 -64 -249.5t-23 -223.5v-95h-190zM508 956v82q0 184 125 486h153q-86 -277 -86 -473v-95h-192z" />
<glyph unicode="&#x201d;" horiz-adv-x="899" d="M117 956q86 273 86 474v94h192v-84q0 -182 -125 -484h-153zM494 956q86 273 86 474v94h190v-84q0 -192 -125 -484h-151z" />
<glyph unicode="&#x201e;" horiz-adv-x="913" d="M115 -274q86 277 86 475v94h190v-84q0 -193 -125 -485h-151zM504 -274q86 277 86 475v94h192v-84q0 -183 -125 -485h-153z" />
<glyph unicode="&#x2022;" horiz-adv-x="819" d="M133 760q0 115 80.5 195.5t196.5 80.5t196 -80t80 -196t-80.5 -196.5t-195.5 -80.5q-116 0 -196.5 80.5t-80.5 196.5z" />
<glyph unicode="&#x2026;" horiz-adv-x="1689" d="M135 125q0 57 38.5 95t96.5 38q57 0 95 -38t38 -95q0 -58 -38 -96.5t-95 -38.5q-58 0 -96.5 38t-38.5 97zM711 125q0 57 39 95t96 38t95 -38t38 -95q0 -58 -38 -96.5t-95 -38.5t-96 38.5t-39 96.5zM1288 125q0 57 38 95t95 38t96 -38t39 -95q0 -58 -39 -96.5t-96 -38.5 t-95 38.5t-38 96.5z" />
<glyph unicode="&#x202f;" horiz-adv-x="413" />
<glyph unicode="&#x2039;" horiz-adv-x="753" d="M104 489v132l547 442v-213l-372 -295l372 -295v-213z" />
<glyph unicode="&#x203a;" horiz-adv-x="753" d="M104 47v213l373 297l-373 293v213l547 -442v-132z" />
<glyph unicode="&#x205f;" horiz-adv-x="517" />
<glyph unicode="&#x20ac;" horiz-adv-x="1370" d="M109 549v147h155q-2 23 -2 66q0 47 2 72h-155v147h180q61 253 248 413t438 160q162 0 254 -49v-202q-114 57 -234 57q-185 0 -316 -103t-185 -276h540v-147h-567q-4 -46 -4 -72q0 -46 2 -66h569v-147h-542q52 -178 183 -280.5t320 -102.5q124 0 234 55v-203 q-92 -49 -254 -49q-254 0 -441.5 161.5t-246.5 418.5h-178z" />
<glyph unicode="&#x2122;" horiz-adv-x="1939" d="M74 1364v160h659v-160h-250v-717h-159v717h-250zM780 645l135 879h185l209 -629h2l207 629h182l135 -879h-160l-92 643h-4l-209 -643h-127l-207 639h-4l-94 -639h-158z" />
<glyph unicode="&#x25fc;" horiz-adv-x="1105" d="M0 0v1106h1106v-1106h-1106z" />
</font>
</defs>
</svg>
