<?xml version="1.0" standalone="no"?>
<!DOCTYPE svg PUBLIC "-//W3C//DTD SVG 1.1//EN" "http://www.w3.org/Graphics/SVG/1.1/DTD/svg11.dtd" >
<svg xmlns="http://www.w3.org/2000/svg" xmlns:xlink="http://www.w3.org/1999/xlink" version="1.1">
<metadata></metadata>
<defs>
<font id="tp_herobold" horiz-adv-x="1390" >
<font-face units-per-em="2048" ascent="1638" descent="-410" />
<missing-glyph horiz-adv-x="573" />
<glyph unicode="&#xfb01;" horiz-adv-x="1486" d="M55 868v265h156v118q0 81 29 154t83.5 130.5t139 91.5t188.5 34q111 0 217 -33v-270q-76 26 -159 26q-183 0 -183 -161v-90h301v-265h-299v-868h-319v868h-154zM1010 1468q0 72 51 122t125 50q72 0 123 -50t51 -122t-51 -123t-123 -51q-73 0 -124.5 51t-51.5 123zM1026 0 v1133h320v-1133h-320z" />
<glyph unicode="&#xfb02;" horiz-adv-x="1490" d="M55 868v265h156v118q0 81 29 154t83.5 130.5t139 91.5t188.5 34q111 0 217 -33v-270q-76 26 -159 26q-183 0 -183 -161v-90h301v-265h-299v-868h-319v868h-154zM1034 0v1645h320v-1645h-320z" />
<glyph horiz-adv-x="0" />
<glyph horiz-adv-x="682" />
<glyph unicode="&#xd;" horiz-adv-x="0" />
<glyph unicode=" "  horiz-adv-x="573" />
<glyph unicode="&#x09;" horiz-adv-x="573" />
<glyph unicode="&#xa0;" horiz-adv-x="573" />
<glyph unicode="!" horiz-adv-x="638" d="M139 168q0 75 52.5 127.5t127.5 52.5t128 -52.5t53 -127.5q0 -76 -53 -128t-128 -52t-127.5 52t-52.5 128zM150 1526h335l-57 -1000h-221z" />
<glyph unicode="&#x22;" horiz-adv-x="872" d="M92 1526h279l-58 -608h-166zM502 1526h278l-57 -608h-166z" />
<glyph unicode="#" horiz-adv-x="1247" d="M66 471v170h243l39 254h-215v170h238l67 461h185l-70 -461h233l70 461h186l-69 -461h207v-170h-232l-37 -254h201v-170h-225l-70 -471h-184l69 471h-233l-68 -471h-186l70 471h-219zM496 641h231l37 254h-232z" />
<glyph unicode="$" horiz-adv-x="1202" d="M121 1087q0 147 91 260.5t259 153.5v166h260v-151q163 -18 289 -91v-313q-63 49 -162 81t-196 32t-155 -42.5t-58 -107.5q0 -44 36.5 -77.5t94.5 -56.5t128 -46.5t140.5 -57.5t128.5 -79t94.5 -120t36.5 -173q0 -163 -99.5 -285t-277.5 -162v-165h-260v151 q-200 21 -346 119v336q69 -75 184.5 -120.5t229.5 -45.5q105 0 172 48t67 124q0 38 -22.5 68t-60.5 51t-87.5 40.5t-104 39.5t-108.5 43t-103.5 57t-87.5 76.5t-60.5 106t-22.5 140.5z" />
<glyph unicode="%" horiz-adv-x="1923" d="M49 1157q0 180 118 294t290 114q174 0 289.5 -113.5t115.5 -294.5q0 -180 -115.5 -294.5t-289.5 -114.5q-172 0 -290 114.5t-118 294.5zM289 1157q0 -87 49.5 -137.5t118.5 -50.5q67 0 117.5 51t50.5 137q0 87 -50 136.5t-118 49.5q-67 0 -117.5 -49.5t-50.5 -136.5z M319 0l1008 1526h277l-1008 -1526h-277zM1061 373q0 180 117.5 293.5t289.5 113.5q174 0 290 -113.5t116 -293.5t-116 -295t-290 -115q-172 0 -289.5 115t-117.5 295zM1300 373q0 -87 50 -138t118 -51q67 0 117.5 51.5t50.5 137.5q0 87 -50 136.5t-118 49.5 q-67 0 -117.5 -49.5t-50.5 -136.5z" />
<glyph unicode="&#x26;" horiz-adv-x="1560" d="M84 418q0 144 77.5 238.5t217.5 162.5q-90 98 -135 177t-45 169q0 168 127.5 276.5t330.5 108.5q107 0 195.5 -31t146 -83.5t88.5 -121t31 -145.5q0 -74 -25 -135t-74 -108.5t-105 -83.5t-134 -72l246 -256l191 311h301l-318 -491l322 -334h-353l-131 137 q-191 -172 -442 -172q-233 0 -372.5 130t-139.5 323zM383 444q0 -92 67 -154.5t175 -62.5q124 0 239 90l-327 338q-154 -89 -154 -211zM492 1149q0 -44 32 -93.5t107 -129.5q104 46 158.5 95t54.5 116q0 66 -47.5 112.5t-132.5 46.5q-80 0 -126 -43.5t-46 -103.5z" />
<glyph unicode="'" horiz-adv-x="462" d="M92 1526h279l-58 -608h-166z" />
<glyph unicode="(" horiz-adv-x="768" d="M104 637q0 252 93 478.5t260 410.5h311q-72 -70 -135 -161t-117 -203.5t-85.5 -249t-31.5 -277.5t31.5 -277.5t86 -249.5t117.5 -204t134 -162h-311q-168 185 -260.5 411t-92.5 484z" />
<glyph unicode=")" horiz-adv-x="768" d="M2 -258q71 71 134 162t116.5 204t85 249.5t31.5 277.5t-31.5 277.5t-85 249t-116.5 203.5t-134 161h309q167 -184 260 -410.5t93 -478.5q0 -258 -92.5 -484t-260.5 -411h-309z" />
<glyph unicode="*" horiz-adv-x="1083" d="M37 1192l80 262l336 -164l-54 355h275l-58 -355l338 160l93 -258l-379 -53l268 -252l-219 -162l-178 319l-174 -319l-220 162l258 252z" />
<glyph unicode="+" horiz-adv-x="1413" d="M100 637v252h467v483h267v-483h481v-252h-481v-483h-267v483h-467z" />
<glyph unicode="," horiz-adv-x="618" d="M98 -274q43 150 63.5 268t20.5 242v112h285v-90q0 -215 -139 -532h-230z" />
<glyph unicode="-" horiz-adv-x="806" d="M106 530v244h594v-244h-594z" />
<glyph unicode="." horiz-adv-x="618" d="M129 168q0 75 52.5 127.5t127.5 52.5q76 0 129.5 -52.5t53.5 -127.5q0 -76 -53 -128t-130 -52q-75 0 -127.5 52t-52.5 128z" />
<glyph unicode="/" horiz-adv-x="1015" d="M12 -274l688 2074h304l-691 -2074h-301z" />
<glyph unicode="0" horiz-adv-x="1456" d="M104 762q0 181 48.5 333t133 253.5t198.5 158t243 56.5t243.5 -56.5t199 -158t133.5 -253.5t49 -333q0 -179 -49 -330t-133.5 -252.5t-199 -158t-243.5 -56.5t-243 56.5t-198 158t-133 252.5t-49 330zM428 762q0 -230 84.5 -364t214.5 -134q131 0 219 135t88 363 q0 230 -88 365t-219 135q-130 0 -214.5 -134.5t-84.5 -365.5z" />
<glyph unicode="1" horiz-adv-x="970" d="M72 971v321l635 248h24v-1540h-319v1110z" />
<glyph unicode="2" horiz-adv-x="1273" d="M53 0v20q385 451 474 564q163 205 203 317q20 57 20 113q0 105 -77 176.5t-202 71.5q-97 0 -189.5 -48t-160.5 -124v327q75 64 185 105t229 41q246 0 398 -144.5t152 -371.5q0 -82 -30.5 -167t-97 -182t-141 -186.5t-193.5 -218.5h524v-293h-1094z" />
<glyph unicode="3" horiz-adv-x="1253" d="M135 106v318q76 -76 176 -119t213 -43q131 0 211 57t80 150q0 86 -74.5 136t-216.5 50h-192v246h160q145 0 215.5 48.5t70.5 135.5q0 74 -68.5 125.5t-193.5 51.5q-98 0 -191 -36.5t-159 -97.5v299q167 136 424 136q119 0 216.5 -34.5t160.5 -93t97 -135t34 -161.5 q0 -113 -58 -203.5t-155 -138.5v-6q112 -44 185 -140.5t73 -224.5q0 -91 -37.5 -173t-106 -146t-174.5 -102t-235 -38q-273 0 -455 139z" />
<glyph unicode="4" horiz-adv-x="1429" d="M63 330v188l744 1008h280v-932h246v-264h-246v-330h-301v330h-723zM397 594h389v536l-389 -534v-2z" />
<glyph unicode="5" horiz-adv-x="1249" d="M125 96v332q169 -162 405 -162q121 0 195 62t76 159q0 101 -79 166.5t-220 65.5q-159 0 -293 -57l-25 16l125 848h752v-293h-524l-52 -279q69 19 129 19q123 0 223.5 -40.5t165 -109t99.5 -156t35 -184.5q0 -98 -37 -189t-107.5 -165.5t-185 -119t-256.5 -44.5 q-233 0 -426 131z" />
<glyph unicode="6" horiz-adv-x="1376" d="M98 512q0 132 60 255.5t170 252.5l411 506h379v-6l-407 -506q67 3 149 -13q80 -16 152.5 -58t128.5 -103t89.5 -144.5t33.5 -175.5q0 -115 -43 -217t-118.5 -176.5t-185 -118t-237.5 -43.5q-168 0 -302 74t-207 198.5t-73 274.5zM416 516q0 -109 75 -187.5t189 -78.5 q113 0 187.5 78.5t74.5 185.5q0 124 -84.5 197t-206.5 73q-70 0 -143 -28q-92 -122 -92 -240z" />
<glyph unicode="7" horiz-adv-x="1247" d="M115 0l649 1233h-649v293h1108v-29l-766 -1497h-342z" />
<glyph unicode="8" horiz-adv-x="1347" d="M102 412q0 123 67 225.5t189 148.5v5q-95 47 -154 135.5t-59 208.5q0 84 36 161t102 136.5t167.5 95t223.5 35.5q123 0 224 -35.5t166 -95t100.5 -135.5t35.5 -160q0 -121 -59 -210t-154 -136v-5q126 -48 192 -147.5t66 -226.5q0 -90 -39 -171t-110 -142.5t-180.5 -97.5 t-241.5 -36q-130 0 -239 36t-181 97.5t-112 142.5t-40 171zM422 444q0 -89 68.5 -152t183.5 -63q118 0 187 63t69 152q0 90 -70 151.5t-186 61.5q-115 0 -183.5 -61.5t-68.5 -151.5zM446 1094q0 -85 62.5 -143t165.5 -58q104 0 166.5 58t62.5 143q0 80 -62.5 140t-166.5 60 q-103 0 -165.5 -59.5t-62.5 -140.5z" />
<glyph unicode="9" horiz-adv-x="1378" d="M119 1008q0 113 42.5 214.5t117.5 177t184 119.5t235 44q168 0 300 -73.5t203 -197.5t71 -274q0 -245 -225 -508l-414 -510h-381v8l403 504q-63 -4 -120 8q-80 13 -154 54t-133 102.5t-94 148t-35 183.5zM440 1012q0 -120 78.5 -194.5t198.5 -74.5q74 0 145 27 q96 126 96 242q0 110 -72.5 187t-185.5 77q-114 0 -187 -77.5t-73 -186.5z" />
<glyph unicode=":" horiz-adv-x="618" d="M129 168q0 75 52.5 127.5t127.5 52.5q76 0 129.5 -52.5t53.5 -127.5q0 -76 -53 -128t-130 -52q-75 0 -127.5 52t-52.5 128zM129 846q0 75 52.5 127.5t127.5 52.5q76 0 129.5 -52.5t53.5 -127.5q0 -76 -53 -129t-130 -53q-75 0 -127.5 53t-52.5 129z" />
<glyph unicode=";" horiz-adv-x="618" d="M98 -274q43 150 63.5 268t20.5 242v112h285v-90q0 -215 -139 -532h-230zM129 846q0 75 52.5 127.5t127.5 52.5q76 0 129.5 -52.5t53.5 -127.5q0 -76 -53 -129t-130 -53q-75 0 -127.5 53t-52.5 129z" />
<glyph unicode="&#x3c;" horiz-adv-x="1413" d="M147 614l1106 -444v303l-737 289l737 291v303l-1106 -447v-295z" />
<glyph unicode="=" horiz-adv-x="1413" d="M127 422v254h1159v-254h-1159zM127 850v252h1159v-252h-1159z" />
<glyph unicode="&#x3e;" horiz-adv-x="1413" d="M160 170l1106 444v295l-1106 447v-303l737 -291l-737 -289v-303z" />
<glyph unicode="?" horiz-adv-x="1071" d="M94 1085v322q77 71 187 113.5t233 42.5q110 0 203 -38t153 -100t93.5 -140t33.5 -159q0 -31 -5 -61.5t-11 -55.5t-21.5 -56.5t-25.5 -52t-35 -54.5t-38 -52t-46.5 -57t-48.5 -55.5t-56.5 -62t-58.5 -64.5h-305q36 43 93.5 110.5t82.5 97.5t60 76t49.5 74t25.5 62t11 67 q0 97 -64.5 158.5t-169.5 61.5q-90 0 -179.5 -50.5t-160.5 -126.5zM317 168q0 75 53.5 127.5t129.5 52.5q75 0 127.5 -52.5t52.5 -127.5q0 -76 -52.5 -128t-127.5 -52q-77 0 -130 52t-53 128z" />
<glyph unicode="@" horiz-adv-x="2011" d="M88 510q0 173 53.5 328.5t148.5 273.5t221 204.5t275 131.5t306 45q137 0 263 -31.5t231 -93t182.5 -147.5t121 -201.5t43.5 -247.5q0 -187 -82.5 -343.5t-228 -247.5t-322.5 -91h-104v148q-112 -170 -293 -170q-149 0 -250.5 109.5t-101.5 307.5q0 226 129.5 381.5 t316.5 155.5q91 0 166.5 -44t114.5 -126l49 147h221l-106 -706q118 49 194 169t76 275q0 104 -34 192t-92.5 150t-137 105t-166 63.5t-180.5 20.5q-152 0 -289.5 -53.5t-241 -149t-164.5 -237.5t-61 -308q0 -169 57 -299t158.5 -210.5t236 -121.5t296.5 -41q187 0 333 46 l-34 -222q-154 -43 -314 -43q-213 0 -392.5 57t-313.5 165.5t-209.5 277t-75.5 381.5zM821 508q0 -99 48.5 -154t127.5 -55q101 0 167.5 83t66.5 198q0 95 -48.5 153t-129.5 58q-100 0 -166 -83.5t-66 -199.5z" />
<glyph unicode="A" horiz-adv-x="1558" d="M16 0l574 1526h375l579 -1526h-342l-135 377h-580l-133 -377h-338zM584 647h385l-193 541z" />
<glyph unicode="B" horiz-adv-x="1366" d="M164 0v1526h557q246 0 381 -114.5t135 -293.5q0 -119 -58.5 -203.5t-156.5 -128.5v-4q123 -44 189.5 -137t66.5 -217q0 -88 -33 -164.5t-97 -136t-167 -93.5t-233 -34h-584zM487 276h234q115 0 177.5 53.5t62.5 141.5q0 86 -64 137t-170 51h-240v-383zM487 891h224 q103 0 161 52t58 130q0 80 -56 129t-157 49h-230v-360z" />
<glyph unicode="C" horiz-adv-x="1380" d="M88 764q0 176 63.5 327t170.5 253.5t249.5 160.5t300.5 58q226 0 418 -107v-321q-96 63 -185.5 94t-197.5 31q-132 0 -242.5 -60t-178.5 -175t-68 -261t68 -261.5t179 -176t242 -60.5q107 0 196.5 33t186.5 100v-327q-201 -105 -418 -105q-158 0 -300.5 57.5 t-249.5 159.5t-170.5 253t-63.5 327z" />
<glyph unicode="D" horiz-adv-x="1523" d="M164 0v1526h446q184 0 338.5 -55t262.5 -153.5t168.5 -241t60.5 -312.5q0 -171 -61 -313.5t-169.5 -241.5t-262.5 -154t-337 -55h-446zM489 297h134q221 0 354 123t133 342q0 222 -132.5 345.5t-352.5 123.5h-136v-934z" />
<glyph unicode="E" horiz-adv-x="1220" d="M164 0v1526h926v-291h-601v-328h547v-270h-547v-344h601v-293h-926z" />
<glyph unicode="F" horiz-adv-x="1191" d="M164 0v1526h930v-295h-605v-393h568v-279h-568v-559h-325z" />
<glyph unicode="G" horiz-adv-x="1546" d="M88 762q0 178 64 330t172.5 254t252 159.5t302.5 57.5q262 0 464 -117v-324q-181 133 -425 133q-220 0 -360 -141t-140 -356q0 -216 132.5 -356t330.5 -140q121 0 225 49v512h297v-702q-241 -156 -526 -156q-126 0 -244 35.5t-216.5 105t-172 165t-115 222t-41.5 269.5z " />
<glyph unicode="H" horiz-adv-x="1593" d="M164 0v1526h325v-615h615v615h326v-1526h-326v616h-615v-616h-325z" />
<glyph unicode="I" horiz-adv-x="653" d="M164 0v1526h325v-1526h-325z" />
<glyph unicode="J" horiz-adv-x="999" d="M53 74v317q109 -121 244 -121q106 0 167.5 67.5t61.5 194.5v994h324v-1034q0 -232 -131 -375.5t-363 -143.5q-85 0 -165 27t-138 74z" />
<glyph unicode="K" horiz-adv-x="1495" d="M164 0v1526h325v-711l584 711h383l-627 -748l635 -778h-385l-590 725v-725h-325z" />
<glyph unicode="L" horiz-adv-x="1175" d="M164 0v1526h325v-1229h635v-297h-960z" />
<glyph unicode="M" horiz-adv-x="2095" d="M102 0l226 1526h385l342 -1032h2l334 1032h376l226 -1526h-312l-139 1081h-6l-350 -1081h-279l-348 1075h-6l-141 -1075h-310z" />
<glyph unicode="N" horiz-adv-x="1669" d="M164 0v1526h315l725 -1045h4q-16 325 -16 797v248h311v-1526h-307l-735 1061h-4q16 -418 16 -744v-317h-309z" />
<glyph unicode="O" horiz-adv-x="1751" d="M88 764q0 228 104 411t284 285.5t401 102.5q165 0 310.5 -60t250 -165t165 -254t60.5 -320t-60.5 -320t-165 -254t-250 -165t-310.5 -60q-166 0 -312 60t-251 164.5t-165.5 254t-60.5 320.5zM418 764q0 -116 38.5 -212t102.5 -158t146.5 -96t171.5 -34q88 0 169.5 34 t145.5 96.5t102.5 158.5t38.5 211t-38.5 211t-102.5 158.5t-145.5 96.5t-169.5 34q-90 0 -172.5 -34t-146.5 -96.5t-102 -158.5t-38 -211z" />
<glyph unicode="P" horiz-adv-x="1292" d="M164 0v1526h436q305 0 475 -142.5t170 -390.5q0 -117 -41.5 -217.5t-119 -176.5t-197 -119.5t-266.5 -43.5h-132v-436h-325zM489 727h146q127 0 205 67.5t78 186.5q0 120 -77.5 185t-207.5 65h-144v-504z" />
<glyph unicode="Q" horiz-adv-x="1781" d="M80 764q0 171 60.5 320t165 254t250 165t310.5 60t310.5 -60t250.5 -165t165.5 -254t60.5 -320q0 -269 -146 -477l207 -203l-205 -213l-217 213q-189 -119 -426 -119q-222 0 -401.5 102t-282 285t-102.5 412zM408 764q0 -116 38 -212t102.5 -158t146.5 -96t171 -34 q102 0 197 45l-262 256l207 213l262 -258q53 103 53 244q0 115 -38.5 211t-102.5 158.5t-146 96.5t-170 34q-90 0 -172 -34t-146 -96.5t-102 -158.5t-38 -211z" />
<glyph unicode="R" horiz-adv-x="1357" d="M164 0v1526h479q277 0 435.5 -129.5t158.5 -366.5q0 -170 -106 -288.5t-304 -157.5l484 -584h-393l-414 543h-15v-543h-325zM489 793h138q133 0 207.5 58.5t74.5 160.5q0 105 -72.5 162t-201.5 57h-146v-438z" />
<glyph unicode="S" horiz-adv-x="1212" d="M104 1108q0 93 37 174.5t104.5 143t170.5 97.5t227 36q104 0 209.5 -28.5t183.5 -74.5v-301q-73 54 -176.5 85.5t-197.5 31.5q-110 0 -174 -45t-64 -111q0 -61 55.5 -101.5t169.5 -86.5q166 -64 235 -103q210 -119 238 -315q4 -31 4 -64q0 -208 -151.5 -343.5 t-407.5 -135.5q-132 0 -254.5 38.5t-206.5 98.5v318q84 -74 201 -121t228 -47q118 0 188 51.5t70 130.5q0 32 -15.5 60.5t-35.5 47.5t-64.5 42.5t-74 36.5t-93.5 39q-44 17 -75 30t-76.5 37t-78 47.5t-68 58.5t-57.5 73.5t-36.5 90t-14.5 109.5z" />
<glyph unicode="T" horiz-adv-x="1327" d="M51 1231v295h1225v-295h-449v-1231h-325v1231h-451z" />
<glyph unicode="U" horiz-adv-x="1560" d="M150 600v926h325v-928q0 -158 79.5 -246t219.5 -88q146 0 228.5 88.5t82.5 247.5v926h326v-926q0 -283 -173 -459t-464 -176q-191 0 -333.5 81t-216.5 224.5t-74 329.5z" />
<glyph unicode="V" horiz-adv-x="1552" d="M12 1526h342l426 -1180l420 1180h338l-584 -1526h-350z" />
<glyph unicode="W" horiz-adv-x="2297" d="M35 1526h332l301 -1131h4l334 1131h303l340 -1133h2l293 1133h321l-444 -1526h-330l-332 1085h-2l-328 -1085h-340z" />
<glyph unicode="X" horiz-adv-x="1445" d="M41 0l475 764l-473 762h377l309 -527l299 527h371l-471 -758l479 -768h-375l-317 532l-303 -532h-371z" />
<glyph unicode="Y" horiz-adv-x="1464" d="M6 1526h365l368 -625h6l365 625h348l-563 -914v-612h-322v610z" />
<glyph unicode="Z" horiz-adv-x="1312" d="M66 0v14l692 1217h-639v295h1128v-15l-692 -1214h647v-297h-1136z" />
<glyph unicode="[" horiz-adv-x="831" d="M195 -430v2075h569v-234h-315v-1608h315v-233h-569z" />
<glyph unicode="\" horiz-adv-x="1015" d="M12 1800h303l689 -2074h-302z" />
<glyph unicode="]" horiz-adv-x="831" d="M70 -197h315v1608h-315v234h567v-2075h-567v233z" />
<glyph unicode="^" horiz-adv-x="1413" d="M162 475l416 1051h258l417 -1051h-303l-241 643l-244 -643h-303z" />
<glyph unicode="_" horiz-adv-x="1079" d="M0 -123h1079v-248h-1079v248z" />
<glyph unicode="`" horiz-adv-x="1067" d="M272 1636l303 -362h244l-231 362h-316z" />
<glyph unicode="a" d="M76 563q0 131 43 244.5t113 190t161 120t187 43.5q122 0 219 -55.5t155 -149.5l33 177h268v-1133h-268l-33 176q-58 -94 -155 -149.5t-219 -55.5q-96 0 -187 43.5t-161 119t-113 188t-43 241.5zM397 565q0 -132 78.5 -219.5t196.5 -87.5q116 0 192 87t76 222 q0 133 -76 220t-192 87q-119 0 -197 -88t-78 -221z" />
<glyph unicode="b" d="M135 0v1645h320v-680q54 89 153 142.5t211 53.5q99 0 189 -42.5t158 -118t108.5 -189t40.5 -246.5q0 -132 -42.5 -245t-113.5 -188.5t-163 -118t-191 -42.5q-118 0 -215 55.5t-154 149.5l-33 -176h-268zM451 567q0 -136 76 -222.5t194 -86.5q117 0 194.5 87t77.5 220 q0 134 -78 221.5t-196 87.5q-116 0 -192 -87t-76 -220z" />
<glyph unicode="c" horiz-adv-x="1089" d="M76 567q0 127 46 238t125.5 189t189 122.5t233.5 44.5q196 0 331 -80v-295q-131 88 -286 88q-133 0 -225.5 -85t-92.5 -222q0 -140 92 -224.5t226 -84.5q167 0 286 86v-295q-146 -78 -331 -78q-166 0 -302 76t-214 213t-78 307z" />
<glyph unicode="d" d="M76 565q0 133 42 246.5t112 189t161.5 118t190.5 42.5q114 0 207.5 -52.5t146.5 -143.5v680h319v-1645h-268l-33 176q-57 -94 -153.5 -149.5t-214.5 -55.5q-99 0 -191 42.5t-163 118t-113.5 188.5t-42.5 245zM397 565q0 -132 78.5 -219.5t196.5 -87.5q116 0 192 87 t76 222q0 133 -76 220t-192 87q-119 0 -197 -88t-78 -221z" />
<glyph unicode="e" horiz-adv-x="1249" d="M76 565q0 132 45 245t121 189t178 119t215 43q114 0 210 -37t167.5 -107.5t112 -181t40.5 -249.5q0 -70 -8 -109h-762q20 -116 109.5 -181t222.5 -65q211 0 369 107v-262q-87 -51 -191.5 -78t-204.5 -27q-288 0 -456 165.5t-168 428.5zM391 676h471q-3 105 -67.5 167 t-155.5 62q-100 0 -168.5 -66.5t-79.5 -162.5z" />
<glyph unicode="f" horiz-adv-x="876" d="M55 868v265h156v118q0 81 29 154t83.5 130.5t139 91.5t188.5 34q111 0 217 -33v-270q-76 26 -159 26q-183 0 -183 -161v-90h301v-265h-299v-868h-319v868h-154z" />
<glyph unicode="g" horiz-adv-x="1384" d="M76 592q0 121 42.5 228t113 180.5t162.5 116t190 42.5q116 0 210.5 -54t153.5 -142l31 170h270v-992q0 -141 -47.5 -255t-131.5 -189t-200 -115.5t-254 -40.5q-241 0 -428 129v307q85 -72 193.5 -114.5t208.5 -42.5q150 0 245 79t95 205v107q-56 -84 -146.5 -136 t-203.5 -52q-99 0 -190.5 42t-161 115t-111 181t-41.5 231zM397 590q0 -121 77 -203t192 -82q116 0 192 83t76 206q0 120 -76 201.5t-192 81.5q-114 0 -191.5 -83.5t-77.5 -203.5z" />
<glyph unicode="h" horiz-adv-x="1290" d="M135 0v1645h320v-623h4q49 62 129 100.5t174 38.5q186 0 292.5 -105.5t106.5 -299.5v-756h-319v666q0 208 -185 208q-89 0 -145.5 -52.5t-56.5 -143.5v-678h-320z" />
<glyph unicode="i" horiz-adv-x="602" d="M125 1468q0 72 51 122t125 50q72 0 123 -50t51 -122t-51 -123t-123 -51q-73 0 -124.5 51t-51.5 123zM141 0v1133h320v-1133h-320z" />
<glyph unicode="j" horiz-adv-x="595" d="M-74 -430q113 126 164 262t51 334v967h320v-938q0 -195 -41.5 -345.5t-140.5 -279.5h-353zM125 1468q0 72 51 122t125 50q72 0 123 -50t51 -122t-51 -123t-123 -51q-73 0 -124.5 51t-51.5 123z" />
<glyph unicode="k" horiz-adv-x="1273" d="M135 0v1645h320v-1029l417 517h379l-448 -539l463 -594h-394l-417 543v-543h-320z" />
<glyph unicode="l" horiz-adv-x="595" d="M139 0v1645h320v-1645h-320z" />
<glyph unicode="m" horiz-adv-x="1871" d="M135 0v1133h248l33 -158h6q108 186 313 186q226 0 318 -192q119 192 325 192q181 0 273 -109t92 -300v-752h-320v686q0 96 -36 141t-119 45q-78 0 -123 -51t-45 -125v-696h-320v686q0 95 -36.5 140.5t-118.5 45.5t-126 -54t-44 -136v-682h-320z" />
<glyph unicode="n" horiz-adv-x="1290" d="M135 0v1133h248l33 -160h6q54 85 142 136.5t200 51.5q185 0 291 -107t106 -296v-758h-319v664q0 208 -185 208q-89 0 -145.5 -55.5t-56.5 -142.5v-674h-320z" />
<glyph unicode="o" horiz-adv-x="1337" d="M76 567q0 172 78.5 308.5t214 211t301.5 74.5t301 -74.5t213 -210.5t78 -309q0 -172 -78 -308.5t-213 -212t-301 -75.5q-124 0 -233.5 44.5t-189 122t-125.5 189t-46 240.5zM397 567q0 -141 81 -225t192 -84q109 0 189.5 84.5t80.5 224.5q0 141 -80.5 224t-189.5 83 q-111 0 -192 -83t-81 -224z" />
<glyph unicode="p" d="M135 -430v1563h268l33 -177q57 94 154 149.5t217 55.5q99 0 191 -43t162 -118.5t112.5 -188.5t42.5 -244q0 -133 -41 -246.5t-110 -189t-159.5 -118t-189.5 -42.5q-109 0 -208 54t-152 141v-596h-320zM451 565q0 -133 76 -220t192 -87q118 0 196 87.5t78 221.5 q0 133 -77.5 220t-194.5 87q-118 0 -194 -86.5t-76 -222.5z" />
<glyph unicode="q" d="M76 557q0 134 40 248t108 191.5t159 121t192 43.5q125 0 223 -55.5t156 -149.5l33 177h268v-1563h-319v596q-57 -93 -151.5 -144t-209.5 -51q-98 0 -189 43.5t-159.5 119t-109.5 186.5t-41 237zM397 565q0 -132 78.5 -219.5t196.5 -87.5q116 0 192 87t76 220 q0 135 -76 222t-192 87q-119 0 -197 -88t-78 -221z" />
<glyph unicode="r" horiz-adv-x="864" d="M135 0v1133h254l33 -170h4q53 96 137 140t172 44q42 0 84 -10v-299q-51 8 -101 10h-8q-46 0 -90 -18q-48 -18 -84.5 -49.5t-58.5 -88.5t-22 -133v-559h-320z" />
<glyph unicode="s" horiz-adv-x="1052" d="M98 809q0 153 124.5 254.5t336.5 101.5q97 0 193 -24t163 -64v-276q-60 42 -155 69t-182 27q-80 0 -128.5 -24.5t-48.5 -61.5q0 -26 26 -47t60.5 -33.5t100.5 -30.5q47 -13 80.5 -23t78.5 -27.5t76 -35.5t64.5 -45.5t53.5 -58.5t33 -73.5t13 -92.5q0 -163 -129.5 -268 t-349.5 -105q-116 0 -222.5 29t-181.5 80v295q77 -63 178.5 -101t206.5 -38q86 0 134.5 28t48.5 70q0 49 -73 81q-29 13 -138 46q-39 12 -69 22.5t-69.5 28t-69.5 36.5t-60.5 46t-50 57.5t-32 71t-12.5 86.5z" />
<glyph unicode="t" horiz-adv-x="919" d="M45 868v265h164v262h307v-262h303v-265h-303v-415q0 -65 26 -110t70 -65q44 -18 103 -24q17 -2 34 -2q44 0 91 10v-268q-86 -19 -174 -19q-220 0 -339.5 122t-119.5 337v434h-162z" />
<glyph unicode="u" horiz-adv-x="1275" d="M125 459v674h319v-674q0 -96 50 -148.5t141 -52.5q93 0 144.5 52.5t51.5 150.5v672h320v-674q0 -217 -139 -352.5t-377 -135.5q-236 0 -373 135.5t-137 352.5z" />
<glyph unicode="v" horiz-adv-x="1216" d="M25 1133h340l245 -795h6l248 795h328l-414 -1133h-342z" />
<glyph unicode="w" horiz-adv-x="1853" d="M43 1133h336l174 -795h6l219 795h314l215 -795h6l180 795h317l-305 -1133h-362l-209 745h-6l-213 -745h-367z" />
<glyph unicode="x" horiz-adv-x="1196" d="M25 0l383 565l-379 568h350l215 -357h6l211 357h344l-373 -555l389 -578h-362l-217 358h-8l-213 -358h-346z" />
<glyph unicode="y" horiz-adv-x="1220" d="M25 1133h342l247 -752h7l247 752h328l-618 -1563h-318l193 461z" />
<glyph unicode="z" horiz-adv-x="1099" d="M35 0v14l545 830h-480v289h965v-15l-530 -829h479v-289h-979z" />
<glyph unicode="{" horiz-adv-x="819" d="M88 481v193q211 34 211 219v342q0 190 115.5 289t333.5 69v-227q-113 10 -161 -33t-48 -131v-323q0 -64 -16 -120t-59 -106t-110 -73v-5q98 -34 141.5 -115.5t43.5 -185.5v-317q0 -88 48 -131t161 -33v-225q-216 -31 -332.5 68.5t-116.5 287.5v336q0 187 -211 221z" />
<glyph unicode="|" horiz-adv-x="841" d="M283 -375v2273h276v-2273h-276z" />
<glyph unicode="}" horiz-adv-x="819" d="M72 -207q113 -10 161 33t48 131v317q0 104 43 185.5t141 115.5v5q-67 23 -110 73.5t-58.5 105.5t-15.5 120v323q0 88 -47.5 131t-161.5 33v227q217 30 332.5 -69t115.5 -289v-342q0 -185 211 -219v-193q-211 -34 -211 -221v-336q0 -188 -116 -287.5t-332 -68.5v225z" />
<glyph unicode="~" horiz-adv-x="1413" d="M59 551q8 430 351 430q63 0 142.5 -23.5t142 -52.5t134 -52.5t121.5 -23.5q61 0 103.5 36t52.5 110h248q-8 -428 -353 -428q-62 0 -141.5 23.5t-142 51t-134 51t-120.5 23.5q-63 0 -105.5 -35t-52.5 -110h-246z" />
<glyph unicode="&#xa1;" horiz-adv-x="638" d="M139 1356q0 75 52.5 127.5t127.5 52.5t128 -52.5t53 -127.5t-53 -127.5t-128 -52.5t-127.5 52.5t-52.5 127.5zM150 -4l57 1001h221l57 -1001h-335z" />
<glyph unicode="&#xa2;" horiz-adv-x="1136" d="M76 571q0 216 129 366t334 189v213h211v-204q145 -13 251 -72v-295q-133 86 -284 86q-129 0 -218 -76.5t-89 -206.5q0 -131 89.5 -205.5t221.5 -74.5q163 0 280 82v-293q-111 -59 -253 -74v-178h-209v186q-205 39 -334 190.5t-129 366.5z" />
<glyph unicode="&#xa3;" horiz-adv-x="1288" d="M104 0v20q75 106 125 240t88 334l7 33h-177v213h215l33 178q24 133 65.5 230.5t107 169.5t161.5 108.5t223 36.5q88 0 195 -35v-279q-76 37 -170 37q-117 0 -186 -67.5t-97 -225.5l-26 -153h325v-213h-364l-2 -17q-34 -200 -117 -334h645v-276h-1051z" />
<glyph unicode="&#xa4;" horiz-adv-x="1347" d="M131 1128l174 177l123 -121q116 69 250 69q131 0 250 -69l114 121l175 -179l-119 -116q71 -110 71 -246q0 -132 -67 -250l112 -115l-174 -176l-114 117q-123 -68 -248 -68q-136 0 -252 66l-117 -115l-176 174l119 115q-72 122 -72 252q0 129 72 244zM408 762 q0 -110 79 -188t189 -78q111 0 190.5 78t79.5 188t-80 189t-190 79t-189 -79t-79 -189z" />
<glyph unicode="&#xa5;" horiz-adv-x="1519" d="M33 1526h364l369 -568h6l367 568h348l-490 -723h252v-189h-325v-96h325v-186h-325v-332h-324v332h-326v186h326v96h-326v189h250z" />
<glyph unicode="&#xa6;" horiz-adv-x="806" d="M283 -375v920h241v-920h-241zM283 981v917h241v-917h-241z" />
<glyph unicode="&#xa7;" horiz-adv-x="1150" d="M113 571q0 94 50.5 176t145.5 132q-157 108 -157 288q0 168 126 282t343 114q203 0 344 -80v-279q-64 46 -154.5 73.5t-169.5 27.5q-96 0 -149.5 -35.5t-53.5 -89.5q0 -52 47 -84.5t162 -79.5q70 -28 119 -52t103 -59.5t87 -73.5t54.5 -90.5t21.5 -113.5 q0 -95 -46.5 -176.5t-131.5 -135.5q150 -109 150 -286t-132.5 -296.5t-341.5 -119.5q-109 0 -212 32.5t-173 82.5v292q69 -66 170 -108.5t193 -42.5q98 0 149.5 40.5t51.5 104.5q0 28 -13 52t-30 40.5t-54 36t-63 30.5t-80 32q-63 25 -106.5 45t-94.5 53t-82 68.5t-52 87 t-21 112.5zM397 610q0 -59 49 -96.5t146 -75.5l10 -4q67 19 106.5 61t39.5 99t-41 92t-125 68q-83 1 -134 -44t-51 -100z" />
<glyph unicode="&#xa8;" horiz-adv-x="1071" d="M150 1450q0 61 44.5 105t106.5 44q63 0 107.5 -43.5t44.5 -105.5t-44.5 -106t-107.5 -44q-62 0 -106.5 44.5t-44.5 105.5zM621 1450q0 62 43.5 105.5t107.5 43.5q63 0 106.5 -43.5t43.5 -105.5t-43.5 -106t-106.5 -44q-64 0 -107.5 44t-43.5 106z" />
<glyph unicode="&#xa9;" horiz-adv-x="1822" d="M104 762q0 216 106.5 400t292.5 292.5t408 108.5q165 0 315 -64t257.5 -172t171 -255.5t63.5 -309.5q0 -161 -63.5 -308t-171 -254.5t-257.5 -171t-315 -63.5q-167 0 -317 63.5t-257 171t-170 254.5t-63 308zM283 762q0 -169 82.5 -312t227 -227t318.5 -84 q173 0 317.5 84t227 227t82.5 312q0 127 -49 243t-132 200t-200 134t-246 50q-174 0 -318.5 -84.5t-227 -228.5t-82.5 -314zM506 762q0 126 60 226t157 153t211 53q136 0 233 -51v-195q-100 68 -204 68q-107 0 -182.5 -71.5t-75.5 -182.5q0 -110 75.5 -181t182.5 -71 q60 0 106.5 15t97.5 50v-192q-100 -51 -233 -51q-114 0 -211 52.5t-157 152t-60 225.5z" />
<glyph unicode="&#xaa;" horiz-adv-x="1126" d="M88 1085q0 102 32.5 190.5t86 148t123 93t143.5 33.5q95 0 169 -42.5t118 -112.5l26 131h218v-875h-218l-26 133q-43 -71 -117 -113t-170 -42q-74 0 -143.5 33.5t-123 92t-86 145t-32.5 185.5zM346 1087q0 -97 57 -162t146 -65q88 0 144.5 65t56.5 165t-56.5 164.5 t-144.5 64.5t-145.5 -66.5t-57.5 -165.5z" />
<glyph unicode="&#xab;" horiz-adv-x="1515" d="M129 479v174l606 473v-305l-344 -256l344 -254v-305zM737 479v174l606 473v-305l-342 -256l342 -254v-305z" />
<glyph unicode="&#xac;" horiz-adv-x="1413" d="M100 637v252h1215v-735h-266v483h-949z" />
<glyph unicode="&#xad;" horiz-adv-x="806" d="M106 530v244h594v-244h-594z" />
<glyph unicode="&#xae;" horiz-adv-x="1822" d="M104 762q0 216 106.5 400t292.5 292.5t408 108.5q165 0 315 -64t257.5 -172t171 -255.5t63.5 -309.5q0 -161 -63.5 -308t-171 -254.5t-257.5 -171t-315 -63.5q-167 0 -317 63.5t-257 171t-170 254.5t-63 308zM283 762q0 -169 82.5 -312t227 -227t318.5 -84 q173 0 317.5 84t227 227t82.5 312q0 127 -49 243t-132 200t-200 134t-246 50q-174 0 -318.5 -84.5t-227 -228.5t-82.5 -314zM637 354v832h244q158 0 249 -76t91 -203q0 -87 -61.5 -151.5t-149.5 -87.5l258 -314h-217l-222 289h-16v-289h-176zM811 791h66q75 0 120 31.5 t45 88.5q0 117 -184 117h-47v-237z" />
<glyph unicode="&#xaf;" horiz-adv-x="1071" d="M166 1352v196h741v-196h-741z" />
<glyph unicode="&#xb0;" horiz-adv-x="862" d="M78 1210q0 148 101.5 250.5t250.5 102.5t251.5 -102.5t102.5 -250.5q0 -147 -102.5 -248.5t-251.5 -101.5t-250.5 101.5t-101.5 248.5zM250 1210q0 -76 52.5 -128t127.5 -52q78 0 129 51.5t51 128.5t-51.5 130t-128.5 53q-75 0 -127.5 -53.5t-52.5 -129.5z" />
<glyph unicode="&#xb1;" horiz-adv-x="1413" d="M127 0v254h1161v-254h-1161zM127 772v252h438v418h269v-418h454v-252h-454v-414h-269v414h-438z" />
<glyph unicode="&#xb2;" horiz-adv-x="815" d="M57 666v22q244 274 300 346q87 112 92 178v11q0 51 -36.5 83.5t-101.5 32.5q-55 0 -109.5 -25.5t-95.5 -66.5v228q51 36 123.5 57.5t145.5 21.5q147 0 237 -75.5t90 -204.5q0 -94 -56.5 -177t-199.5 -229h283v-202h-672z" />
<glyph unicode="&#xb3;" horiz-adv-x="790" d="M96 741v211q47 -45 115 -70.5t139 -25.5q55 0 99.5 23.5t44.5 66.5t-45 64.5t-117 21.5h-129v168h133q65 0 98 23t33 57q0 35 -35 56.5t-92 23.5q-59 0 -118 -19t-103 -51v193q40 31 112 51t144 20q154 0 236.5 -68t82.5 -163q0 -125 -116 -195v-4q68 -26 105.5 -79.5 t37.5 -118.5q0 -113 -92 -191t-246 -78q-81 0 -160 23.5t-127 60.5z" />
<glyph unicode="&#xb4;" horiz-adv-x="1067" d="M268 1274l232 362h315l-303 -362h-244z" />
<glyph unicode="&#xb5;" horiz-adv-x="1296" d="M135 -430v1563h320v-695q0 -81 51.5 -127.5t138.5 -46.5q83 0 140 52.5t57 129.5v687h319v-1133h-235l-33 160q-43 -83 -119.5 -127.5t-175.5 -44.5q-69 0 -137 33.5t-121 99.5l125 -551h-330z" />
<glyph unicode="&#xb6;" horiz-adv-x="1503" d="M57 1014q0 228 160.5 370t427.5 142h694v-1956h-252v1714h-137v-1714h-254v940h-61q-260 0 -419 141.5t-159 362.5z" />
<glyph unicode="&#xb7;" horiz-adv-x="618" d="M129 764q0 75 52.5 127.5t127.5 52.5q76 0 129.5 -52.5t53.5 -127.5q0 -76 -53 -129t-130 -53q-75 0 -127.5 53t-52.5 129z" />
<glyph unicode="&#xb8;" horiz-adv-x="1067" d="M223 -371q93 106 143 204t50 206h252q0 -235 -140 -410h-305z" />
<glyph unicode="&#xb9;" horiz-adv-x="727" d="M119 1174v219l422 153h20v-901h-225v610z" />
<glyph unicode="&#xba;" horiz-adv-x="1091" d="M86 1090q0 201 132.5 330.5t328.5 129.5t327.5 -129t131.5 -331t-131.5 -331.5t-327.5 -129.5q-197 0 -329 129.5t-132 331.5zM342 1090q0 -106 60.5 -168t144.5 -62q82 0 142.5 62.5t60.5 167.5t-60.5 167t-142.5 62q-83 0 -144 -62t-61 -167z" />
<glyph unicode="&#xbb;" horiz-adv-x="1517" d="M184 6v305l344 256l-344 254v305l607 -473v-174zM795 6v305l342 256l-342 254v305l606 -473v-174z" />
<glyph unicode="&#xbc;" horiz-adv-x="1824" d="M98 1174v219l422 153h19v-901h-226v610zM313 0l1006 1526h207l-1008 -1526h-205zM963 182v142l411 557h221v-508h134v-191h-134v-182h-196v182h-436zM1208 373h191v248z" />
<glyph unicode="&#xbd;" horiz-adv-x="1830" d="M84 1174v219l422 153h18v-901h-225v610zM276 0l1008 1526h205l-1008 -1526h-205zM1096 0v23q242 271 315.5 368.5t73.5 165.5q0 53 -36 86t-101 33q-107 0 -205 -94v227q53 37 125.5 58.5t144.5 21.5q146 0 236 -76t90 -205q0 -40 -12 -78.5t-28.5 -71t-53.5 -78 t-68.5 -80t-91.5 -97.5h282v-203h-671z" />
<glyph unicode="&#xbe;" horiz-adv-x="1878" d="M96 741v211q47 -45 115 -70.5t139 -25.5q55 0 99.5 23.5t44.5 66.5t-45 64.5t-117 21.5h-129v168h133q65 0 98 23t33 57q0 35 -35 56.5t-92 23.5q-59 0 -118 -19t-103 -51v193q40 31 112 51t144 20q154 0 236.5 -68t82.5 -163q0 -125 -116 -195v-4q68 -26 105.5 -79.5 t37.5 -118.5q0 -113 -92 -191t-246 -78q-81 0 -160 23.5t-127 60.5zM358 0l1006 1526h207l-1008 -1526h-205zM1014 182v142l413 557h222v-508h131v-191h-131v-182h-199v182h-436zM1260 373h190v248z" />
<glyph unicode="&#xbf;" horiz-adv-x="1071" d="M88 401q0 31 5 62t10.5 55.5t22 57t25 51.5t35.5 55t37.5 51t47 57t48.5 55t57 62.5t58 63.5h305q-36 -43 -93.5 -110.5t-82.5 -97.5t-60 -76t-49 -73.5t-25 -61.5t-11 -67q0 -98 64 -159.5t169 -61.5q90 0 180 50t162 126v-319q-79 -71 -189 -113.5t-233 -42.5 q-110 0 -203 37.5t-153 99t-93.5 139.5t-33.5 160zM406 1360q0 75 52.5 127.5t127.5 52.5q76 0 129 -52.5t53 -127.5q0 -76 -53 -129t-129 -53q-75 0 -127.5 53t-52.5 129z" />
<glyph unicode="&#xc0;" horiz-adv-x="1558" d="M16 0l574 1526h375l579 -1526h-342l-135 377h-580l-133 -377h-338zM410 2030h315l231 -361h-241zM584 647h385l-193 541z" />
<glyph unicode="&#xc1;" horiz-adv-x="1558" d="M16 0l574 1526h375l579 -1526h-342l-135 377h-580l-133 -377h-338zM584 647h385l-193 541zM618 1669l232 361h315l-303 -361h-244z" />
<glyph unicode="&#xc2;" horiz-adv-x="1558" d="M16 0l574 1526h375l579 -1526h-342l-135 377h-580l-133 -377h-338zM371 1671l291 359h223l299 -359h-277l-135 180l-133 -180h-268zM584 647h385l-193 541z" />
<glyph unicode="&#xc3;" horiz-adv-x="1558" d="M16 0l574 1526h375l579 -1526h-342l-135 377h-580l-133 -377h-338zM334 1690q-9 155 64.5 234t195.5 79q51 0 100 -18.5t81 -41t73 -41t78 -18.5q51 0 76.5 34t25.5 81h191q9 -155 -65.5 -234t-197.5 -79q-50 0 -98.5 18t-80 40t-72.5 40t-78 18q-53 0 -79 -33t-24 -79 h-190zM584 647h385l-193 541z" />
<glyph unicode="&#xc4;" horiz-adv-x="1558" d="M16 0l574 1526h375l579 -1526h-342l-135 377h-580l-133 -377h-338zM389 1843q0 61 45 105.5t107 44.5q63 0 107 -44t44 -106q0 -61 -44 -104t-107 -43q-62 0 -107 43t-45 104zM584 647h385l-193 541zM860 1843q0 62 44.5 106t107.5 44t106 -44t43 -106t-43 -104.5 t-106 -42.5t-107.5 43t-44.5 104z" />
<glyph unicode="&#xc5;" horiz-adv-x="1558" d="M16 0l574 1526h375l579 -1526h-342l-135 377h-580l-133 -377h-338zM524 1880q0 100 72.5 165.5t179.5 65.5q106 0 177 -65t71 -166q0 -96 -71.5 -162.5t-176.5 -66.5q-106 0 -179 67t-73 162zM584 647h385l-193 541zM668 1880q0 -44 32.5 -72t75.5 -28q42 0 73.5 28 t31.5 72q0 45 -31.5 73.5t-73.5 28.5q-43 0 -75.5 -28.5t-32.5 -73.5z" />
<glyph unicode="&#xc6;" horiz-adv-x="2199" d="M0 0l1026 1526h1045v-295h-603v-324h551v-270h-551v-340h603v-297h-926v389h-508l-256 -389h-381zM805 657h340v512z" />
<glyph unicode="&#xc7;" horiz-adv-x="1380" d="M88 764q0 176 63.5 327t170.5 253.5t249.5 160.5t300.5 58q226 0 418 -107v-321q-96 63 -185.5 94t-197.5 31q-132 0 -242.5 -60t-178.5 -175t-68 -261t68 -261.5t179 -176t242 -60.5q107 0 196.5 33t186.5 100v-327q-166 -88 -338 -101q-17 -193 -139 -342h-305 q82 93 130.5 178.5t59.5 178.5q-129 28 -240 95t-193.5 165.5t-129.5 232t-47 285.5z" />
<glyph unicode="&#xc8;" horiz-adv-x="1220" d="M164 0v1526h926v-291h-601v-328h547v-270h-547v-344h601v-293h-926zM262 2030l303 -361h244l-231 361h-316z" />
<glyph unicode="&#xc9;" horiz-adv-x="1220" d="M164 0v1526h926v-291h-601v-328h547v-270h-547v-344h601v-293h-926zM471 1669l231 361h316l-303 -361h-244z" />
<glyph unicode="&#xca;" horiz-adv-x="1220" d="M164 0v1526h926v-291h-601v-328h547v-270h-547v-344h601v-293h-926zM221 1671l293 359h221l299 -359h-276l-135 180l-134 -180h-268z" />
<glyph unicode="&#xcb;" horiz-adv-x="1220" d="M164 0v1526h926v-291h-601v-328h547v-270h-547v-344h601v-293h-926zM242 1843q0 62 44 106t105 44q63 0 108.5 -44.5t45.5 -105.5t-45.5 -104t-108.5 -43q-62 0 -105.5 43t-43.5 104zM711 1843q0 62 44 106t107 44t107.5 -44t44.5 -106q0 -61 -44.5 -104t-107.5 -43 t-107 43t-44 104z" />
<glyph unicode="&#xcc;" horiz-adv-x="653" d="M-39 2030l303 -361h244l-232 361h-315zM164 0v1526h325v-1526h-325z" />
<glyph unicode="&#xcd;" horiz-adv-x="653" d="M164 0v1526h325v-1526h-325zM170 1669l231 361h316l-303 -361h-244z" />
<glyph unicode="&#xce;" horiz-adv-x="653" d="M-78 1671l291 359h223l297 -359h-276l-133 180l-134 -180h-268zM164 0v1526h325v-1526h-325z" />
<glyph unicode="&#xcf;" horiz-adv-x="653" d="M-59 1843q0 61 44.5 105.5t106.5 44.5q63 0 107.5 -44t44.5 -106q0 -61 -44.5 -104t-107.5 -43q-62 0 -106.5 43t-44.5 104zM164 0v1526h325v-1526h-325zM412 1843q0 62 43 106t106 44q64 0 108 -44t44 -106t-44 -104.5t-108 -42.5q-63 0 -106 42.5t-43 104.5z" />
<glyph unicode="&#xd0;" horiz-adv-x="1570" d="M59 645v238h170v643h447q246 0 434 -94t291.5 -267.5t103.5 -400.5q0 -228 -104.5 -402t-292.5 -268t-432 -94h-447v645h-170zM555 297h133q221 0 354.5 123t133.5 342q0 221 -133 345t-353 124h-135v-348h315v-238h-315v-348z" />
<glyph unicode="&#xd1;" horiz-adv-x="1669" d="M164 0v1526h315l725 -1045h4q-16 325 -16 797v248h311v-1526h-307l-735 1061h-4q16 -418 16 -744v-317h-309zM391 1690q-9 155 64.5 234t195.5 79q51 0 100 -18.5t81 -41t73 -41t78 -18.5q51 0 76.5 34t25.5 81h191q9 -155 -65 -234t-197 -79q-50 0 -98.5 18t-80.5 40 t-73 40t-78 18q-52 0 -77 -33t-25 -79h-191z" />
<glyph unicode="&#xd2;" horiz-adv-x="1751" d="M88 764q0 228 104 411t284 285.5t401 102.5q165 0 310.5 -60t250 -165t165 -254t60.5 -320t-60.5 -320t-165 -254t-250 -165t-310.5 -60q-166 0 -312 60t-251 164.5t-165.5 254t-60.5 320.5zM418 764q0 -116 38.5 -212t102.5 -158t146.5 -96t171.5 -34q88 0 169.5 34 t145.5 96.5t102.5 158.5t38.5 211t-38.5 211t-102.5 158.5t-145.5 96.5t-169.5 34q-90 0 -172.5 -34t-146.5 -96.5t-102 -158.5t-38 -211zM455 2066l303 -362h243l-231 362h-315z" />
<glyph unicode="&#xd3;" horiz-adv-x="1751" d="M88 764q0 228 104 411t284 285.5t401 102.5q165 0 310.5 -60t250 -165t165 -254t60.5 -320t-60.5 -320t-165 -254t-250 -165t-310.5 -60q-166 0 -312 60t-251 164.5t-165.5 254t-60.5 320.5zM418 764q0 -116 38.5 -212t102.5 -158t146.5 -96t171.5 -34q88 0 169.5 34 t145.5 96.5t102.5 158.5t38.5 211t-38.5 211t-102.5 158.5t-145.5 96.5t-169.5 34q-90 0 -172.5 -34t-146.5 -96.5t-102 -158.5t-38 -211zM727 1704l231 362h316l-305 -362h-242z" />
<glyph unicode="&#xd4;" horiz-adv-x="1751" d="M88 764q0 228 104 411t284 285.5t401 102.5q165 0 310.5 -60t250 -165t165 -254t60.5 -320t-60.5 -320t-165 -254t-250 -165t-310.5 -60q-166 0 -312 60t-251 164.5t-165.5 254t-60.5 320.5zM418 764q0 -116 38.5 -212t102.5 -158t146.5 -96t171.5 -34q88 0 169.5 34 t145.5 96.5t102.5 158.5t38.5 211t-38.5 211t-102.5 158.5t-145.5 96.5t-169.5 34q-90 0 -172.5 -34t-146.5 -96.5t-102 -158.5t-38 -211zM477 1702l293 358h221l299 -358h-276l-135 180l-131 -180h-271z" />
<glyph unicode="&#xd5;" horiz-adv-x="1751" d="M88 764q0 228 104 411t284 285.5t401 102.5q165 0 310.5 -60t250 -165t165 -254t60.5 -320t-60.5 -320t-165 -254t-250 -165t-310.5 -60q-166 0 -312 60t-251 164.5t-165.5 254t-60.5 320.5zM418 764q0 -116 38.5 -212t102.5 -158t146.5 -96t171.5 -34q88 0 169.5 34 t145.5 96.5t102.5 158.5t38.5 211t-38.5 211t-102.5 158.5t-145.5 96.5t-169.5 34q-90 0 -172.5 -34t-146.5 -96.5t-102 -158.5t-38 -211zM422 1726q-9 155 64.5 234.5t195.5 79.5q51 0 100 -18.5t81 -41t73 -41t78 -18.5q51 0 76.5 34t25.5 81h191q9 -155 -65.5 -234.5 t-197.5 -79.5q-50 0 -98.5 18.5t-80 40t-72.5 40t-78 18.5q-51 0 -77 -34t-26 -79h-190z" />
<glyph unicode="&#xd6;" horiz-adv-x="1751" d="M88 764q0 228 104 411t284 285.5t401 102.5q165 0 310.5 -60t250 -165t165 -254t60.5 -320t-60.5 -320t-165 -254t-250 -165t-310.5 -60q-166 0 -312 60t-251 164.5t-165.5 254t-60.5 320.5zM418 764q0 -116 38.5 -212t102.5 -158t146.5 -96t171.5 -34q88 0 169.5 34 t145.5 96.5t102.5 158.5t38.5 211t-38.5 211t-102.5 158.5t-145.5 96.5t-169.5 34q-90 0 -172.5 -34t-146.5 -96.5t-102 -158.5t-38 -211zM487 1896q0 61 44 104.5t106 43.5q64 0 109 -43t45 -105q0 -63 -44.5 -106t-109.5 -43q-62 0 -106 43t-44 106zM958 1896 q0 62 43.5 105t106.5 43t107.5 -43.5t44.5 -104.5q0 -63 -44.5 -106t-107.5 -43t-106.5 43t-43.5 106z" />
<glyph unicode="&#xd7;" horiz-adv-x="1413" d="M133 369l395 393l-395 393l180 178l394 -393l393 393l178 -178l-393 -393l393 -393l-178 -176l-393 393l-396 -393z" />
<glyph unicode="&#xd8;" horiz-adv-x="1755" d="M94 764q0 171 60.5 320t165.5 254t250.5 165t310.5 60q265 0 471 -148l141 148l145 -144l-141 -147q170 -217 170 -508q0 -171 -60.5 -320t-165 -254t-250 -165t-310.5 -60q-277 0 -484 158l-153 -160l-146 139l156 164q-160 213 -160 498zM424 764q0 -143 59 -258 l650 680q-113 78 -252 78q-90 0 -172 -34t-145.5 -96.5t-101.5 -158.5t-38 -211zM614 350q118 -86 267 -86q88 0 169.5 34t145.5 96.5t102.5 158.5t38.5 211q0 155 -67 270z" />
<glyph unicode="&#xd9;" horiz-adv-x="1560" d="M150 600v926h325v-928q0 -158 79.5 -246t219.5 -88q146 0 228.5 88.5t82.5 247.5v926h326v-926q0 -283 -173 -459t-464 -176q-191 0 -333.5 81t-216.5 224.5t-74 329.5zM416 2030l303 -361h244l-232 361h-315z" />
<glyph unicode="&#xda;" horiz-adv-x="1560" d="M150 600v926h325v-928q0 -158 79.5 -246t219.5 -88q146 0 228.5 88.5t82.5 247.5v926h326v-926q0 -283 -173 -459t-464 -176q-191 0 -333.5 81t-216.5 224.5t-74 329.5zM625 1669l231 361h315l-303 -361h-243z" />
<glyph unicode="&#xdb;" horiz-adv-x="1560" d="M150 600v926h325v-928q0 -158 79.5 -246t219.5 -88q146 0 228.5 88.5t82.5 247.5v926h326v-926q0 -283 -173 -459t-464 -176q-191 0 -333.5 81t-216.5 224.5t-74 329.5zM375 1671l293 359h221l299 -359h-277l-135 180l-133 -180h-268z" />
<glyph unicode="&#xdc;" horiz-adv-x="1560" d="M150 600v926h325v-928q0 -158 79.5 -246t219.5 -88q146 0 228.5 88.5t82.5 247.5v926h326v-926q0 -283 -173 -459t-464 -176q-191 0 -333.5 81t-216.5 224.5t-74 329.5zM395 1843q0 61 44.5 105.5t105.5 44.5q63 0 108 -44t45 -106q0 -61 -45 -104t-108 -43 q-62 0 -106 43t-44 104zM864 1843q0 62 44.5 106t107.5 44t107 -44t44 -106q0 -61 -44 -104t-107 -43t-107.5 43t-44.5 104z" />
<glyph unicode="&#xdd;" horiz-adv-x="1464" d="M6 1526h365l368 -625h6l365 625h348l-563 -914v-612h-322v610zM575 1669l232 361h315l-303 -361h-244z" />
<glyph unicode="&#xde;" horiz-adv-x="1337" d="M164 0v1526h325v-207h166q298 0 467.5 -142t169.5 -391q0 -117 -42 -218.5t-119 -177t-195 -118.5t-262 -43h-185v-229h-325zM489 522h199q123 0 200 68.5t77 183.5q0 118 -76.5 184t-202.5 66h-197v-502z" />
<glyph unicode="&#xdf;" horiz-adv-x="1417" d="M135 0v1085q0 273 152 424.5t413 151.5q230 0 367 -116.5t137 -291.5q0 -116 -48.5 -196t-129.5 -123v-4q155 -45 245.5 -156.5t90.5 -286.5q0 -231 -151.5 -367t-387.5 -136q-131 0 -211 26v269q79 -23 150 -23q125 0 205 64t80 184q0 113 -75.5 176t-215.5 63h-125v220 h37q110 0 173.5 62t63.5 157q0 88 -60 146t-155 58q-101 0 -165 -66.5t-64 -184.5v-1135h-326z" />
<glyph unicode="&#xe0;" d="M76 563q0 131 43 244.5t113 190t161 120t187 43.5q122 0 219 -55.5t155 -149.5l33 177h268v-1133h-268l-33 176q-58 -94 -155 -149.5t-219 -55.5q-96 0 -187 43.5t-161 119t-113 188t-43 241.5zM358 1628l304 -360h243l-231 360h-316zM397 565q0 -132 78.5 -219.5 t196.5 -87.5q116 0 192 87t76 222q0 133 -76 220t-192 87q-119 0 -197 -88t-78 -221z" />
<glyph unicode="&#xe1;" d="M76 563q0 131 43 244.5t113 190t161 120t187 43.5q122 0 219 -55.5t155 -149.5l33 177h268v-1133h-268l-33 176q-58 -94 -155 -149.5t-219 -55.5q-96 0 -187 43.5t-161 119t-113 188t-43 241.5zM397 565q0 -132 78.5 -219.5t196.5 -87.5q116 0 192 87t76 222 q0 133 -76 220t-192 87q-119 0 -197 -88t-78 -221zM567 1268l232 360h315l-303 -360h-244z" />
<glyph unicode="&#xe2;" d="M76 563q0 131 43 244.5t113 190t161 120t187 43.5q122 0 219 -55.5t155 -149.5l33 177h268v-1133h-268l-33 176q-58 -94 -155 -149.5t-219 -55.5q-96 0 -187 43.5t-161 119t-113 188t-43 241.5zM317 1270l293 358h221l299 -358h-276l-135 178l-133 -178h-269zM397 565 q0 -132 78.5 -219.5t196.5 -87.5q116 0 192 87t76 222q0 133 -76 220t-192 87q-119 0 -197 -88t-78 -221z" />
<glyph unicode="&#xe3;" d="M76 563q0 131 43 244.5t113 190t161 120t187 43.5q122 0 219 -55.5t155 -149.5l33 177h268v-1133h-268l-33 176q-58 -94 -155 -149.5t-219 -55.5q-96 0 -187 43.5t-161 119t-113 188t-43 241.5zM281 1288q-9 155 65 234.5t197 79.5q51 0 99.5 -18.5t80.5 -41t72 -41 t77 -18.5q53 0 79 33.5t24 78.5h192q7 -155 -67 -234t-197 -79q-50 0 -98.5 18.5t-80.5 41t-73 41t-78 18.5q-51 0 -76.5 -34t-25.5 -79h-190zM397 565q0 -132 78.5 -219.5t196.5 -87.5q116 0 192 87t76 222q0 133 -76 220t-192 87q-119 0 -197 -88t-78 -221z" />
<glyph unicode="&#xe4;" d="M76 563q0 131 43 244.5t113 190t161 120t187 43.5q122 0 219 -55.5t155 -149.5l33 177h268v-1133h-268l-33 176q-58 -94 -155 -149.5t-219 -55.5q-96 0 -187 43.5t-161 119t-113 188t-43 241.5zM338 1442q0 62 44 105.5t105 43.5q63 0 108.5 -44t45.5 -105t-45.5 -105.5 t-108.5 -44.5q-61 0 -105 44t-44 106zM397 565q0 -132 78.5 -219.5t196.5 -87.5q116 0 192 87t76 222q0 133 -76 220t-192 87q-119 0 -197 -88t-78 -221zM807 1442q0 62 44 105.5t107 43.5t107.5 -43.5t44.5 -105.5t-44.5 -106t-107.5 -44t-107 44t-44 106z" />
<glyph unicode="&#xe5;" d="M76 563q0 131 43 244.5t113 190t161 120t187 43.5q122 0 219 -55.5t155 -149.5l33 177h268v-1133h-268l-33 176q-58 -94 -155 -149.5t-219 -55.5q-96 0 -187 43.5t-161 119t-113 188t-43 241.5zM397 565q0 -132 78.5 -219.5t196.5 -87.5q116 0 192 87t76 222 q0 133 -76 220t-192 87q-119 0 -197 -88t-78 -221zM471 1477q0 100 73.5 166.5t178.5 66.5q107 0 177.5 -66t70.5 -167q0 -96 -71 -162t-177 -66q-104 0 -178 67t-74 161zM614 1477q0 -43 33.5 -72t75.5 -29t74 29t32 72q0 47 -31 74.5t-75 27.5q-43 0 -76 -27.5t-33 -74.5z " />
<glyph unicode="&#xe6;" horiz-adv-x="1945" d="M70 338q0 89 39.5 158t125.5 118.5t222 63.5t329 -8v26q0 91 -63.5 148t-202.5 57q-84 0 -180.5 -27.5t-167.5 -70.5v254q158 104 395 104q136 0 235.5 -50t160.5 -132q154 182 372 182q113 0 208.5 -37t167 -107.5t111.5 -181t40 -249.5q0 -44 -9 -109h-755 q12 -123 103 -187.5t229 -64.5q212 0 362 105v-256q-85 -49 -189.5 -76t-201.5 -27q-308 0 -461 213q-75 -101 -185 -156t-247 -55q-197 0 -317.5 104t-120.5 261zM367 354q0 -63 48.5 -109t129.5 -46q96 0 167.5 64t71.5 169v70q-211 34 -314 -8t-103 -140zM1098 666h463 q0 115 -63.5 179t-162.5 64q-96 0 -163 -66.5t-74 -176.5z" />
<glyph unicode="&#xe7;" horiz-adv-x="1089" d="M76 567q0 127 46 238t125.5 189t189 122.5t233.5 44.5q196 0 331 -80v-295q-131 88 -286 88q-133 0 -225.5 -85t-92.5 -222q0 -140 92 -224.5t226 -84.5q167 0 286 86v-295q-104 -57 -237 -72q-14 -195 -137 -348h-305q82 96 130.5 182.5t59.5 180.5q-194 48 -315 204.5 t-121 370.5z" />
<glyph unicode="&#xe8;" horiz-adv-x="1249" d="M76 565q0 132 45 245t121 189t178 119t215 43q114 0 210 -37t167.5 -107.5t112 -181t40.5 -249.5q0 -70 -8 -109h-762q20 -116 109.5 -181t222.5 -65q211 0 369 107v-262q-87 -51 -191.5 -78t-204.5 -27q-288 0 -456 165.5t-168 428.5zM281 1636l303 -362h243l-231 362 h-315zM391 676h471q-3 105 -67.5 167t-155.5 62q-100 0 -168.5 -66.5t-79.5 -162.5z" />
<glyph unicode="&#xe9;" horiz-adv-x="1249" d="M76 565q0 132 45 245t121 189t178 119t215 43q114 0 210 -37t167.5 -107.5t112 -181t40.5 -249.5q0 -70 -8 -109h-762q20 -116 109.5 -181t222.5 -65q211 0 369 107v-262q-87 -51 -191.5 -78t-204.5 -27q-288 0 -456 165.5t-168 428.5zM391 676h471q-3 105 -67.5 167 t-155.5 62q-100 0 -168.5 -66.5t-79.5 -162.5zM489 1274l232 362h315l-303 -362h-244z" />
<glyph unicode="&#xea;" horiz-adv-x="1249" d="M76 565q0 132 45 245t121 189t178 119t215 43q114 0 210 -37t167.5 -107.5t112 -181t40.5 -249.5q0 -70 -8 -109h-762q20 -116 109.5 -181t222.5 -65q211 0 369 107v-262q-87 -51 -191.5 -78t-204.5 -27q-288 0 -456 165.5t-168 428.5zM240 1278l292 358h222l299 -358 h-277l-135 178l-133 -178h-268zM391 676h471q-3 105 -67.5 167t-155.5 62q-100 0 -168.5 -66.5t-79.5 -162.5z" />
<glyph unicode="&#xeb;" horiz-adv-x="1249" d="M76 565q0 132 45 245t121 189t178 119t215 43q114 0 210 -37t167.5 -107.5t112 -181t40.5 -249.5q0 -70 -8 -109h-762q20 -116 109.5 -181t222.5 -65q211 0 369 107v-262q-87 -51 -191.5 -78t-204.5 -27q-288 0 -456 165.5t-168 428.5zM260 1450q0 61 44 105t106 44 q63 0 108 -44t45 -105q0 -62 -45 -106t-108 -44q-62 0 -106 44t-44 106zM391 676h471q-3 105 -67.5 167t-155.5 62q-100 0 -168.5 -66.5t-79.5 -162.5zM729 1450q0 62 44.5 105.5t107.5 43.5t107 -43.5t44 -105.5t-44 -106t-107 -44t-107.5 44t-44.5 106z" />
<glyph unicode="&#xec;" horiz-adv-x="602" d="M-66 1636l306 -362h243l-233 362h-316zM141 0v1133h320v-1133h-320z" />
<glyph unicode="&#xed;" horiz-adv-x="602" d="M141 0v1133h320v-1133h-320zM143 1274l232 362h315l-303 -362h-244z" />
<glyph unicode="&#xee;" horiz-adv-x="602" d="M-104 1278l290 358h224l299 -358h-277l-135 178l-133 -178h-268zM141 0v1133h320v-1133h-320z" />
<glyph unicode="&#xef;" horiz-adv-x="602" d="M-86 1450q0 61 45 105t107 44q63 0 108 -44t45 -105q0 -62 -45 -106t-108 -44q-62 0 -107 44.5t-45 105.5zM141 0v1133h320v-1133h-320zM385 1450q0 62 44.5 105.5t107.5 43.5t106 -43.5t43 -105.5t-43 -106t-106 -44t-107.5 44t-44.5 106z" />
<glyph unicode="&#xf0;" horiz-adv-x="1337" d="M76 559q0 125 42.5 233t113.5 181.5t165.5 115t196.5 41.5q151 0 268 -106l4 2q-51 116 -202 305l-189 -80l-55 129l149 62q-103 118 -188 203h362l82 -95l189 78l53 -125l-152 -65q177 -228 263 -427t86 -401q0 -144 -46 -264.5t-125.5 -202t-188.5 -127t-234 -45.5 q-165 0 -301 76t-214.5 211t-78.5 301zM397 565q0 -139 81.5 -223t191.5 -84q109 0 189.5 85.5t80.5 225.5q0 134 -81 216.5t-189 82.5q-110 0 -191.5 -83t-81.5 -220z" />
<glyph unicode="&#xf1;" horiz-adv-x="1290" d="M135 0v1133h248l33 -160h6q54 85 142 136.5t200 51.5q185 0 291 -107t106 -296v-758h-319v664q0 208 -185 208q-89 0 -145.5 -55.5t-56.5 -142.5v-674h-320zM215 1296q-4 79 14 140t54.5 98t85 55.5t106.5 18.5q51 0 100 -18.5t81 -40t73 -40t78 -18.5q53 0 78.5 34 t23.5 79h191q9 -155 -65 -234.5t-197 -79.5q-50 0 -98.5 18.5t-80.5 41t-73 41t-78 18.5q-51 0 -76.5 -34t-25.5 -79h-191z" />
<glyph unicode="&#xf2;" horiz-adv-x="1337" d="M76 567q0 172 78.5 308.5t214 211t301.5 74.5t301 -74.5t213 -210.5t78 -309q0 -172 -78 -308.5t-213 -212t-301 -75.5q-124 0 -233.5 44.5t-189 122t-125.5 189t-46 240.5zM397 567q0 -141 81 -225t192 -84q109 0 189.5 84.5t80.5 224.5q0 141 -80.5 224t-189.5 83 q-111 0 -192 -83t-81 -224zM414 1636l303 -362h244l-232 362h-315z" />
<glyph unicode="&#xf3;" horiz-adv-x="1337" d="M76 567q0 172 78.5 308.5t214 211t301.5 74.5t301 -74.5t213 -210.5t78 -309q0 -172 -78 -308.5t-213 -212t-301 -75.5q-124 0 -233.5 44.5t-189 122t-125.5 189t-46 240.5zM397 567q0 -141 81 -225t192 -84q109 0 189.5 84.5t80.5 224.5q0 141 -80.5 224t-189.5 83 q-111 0 -192 -83t-81 -224zM401 1274l232 362h315l-303 -362h-244z" />
<glyph unicode="&#xf4;" horiz-adv-x="1337" d="M76 567q0 172 78.5 308.5t214 211t301.5 74.5t301 -74.5t213 -210.5t78 -309q0 -172 -78 -308.5t-213 -212t-301 -75.5q-124 0 -233.5 44.5t-189 122t-125.5 189t-46 240.5zM262 1278l291 358h223l299 -358h-278l-133 178l-134 -178h-268zM397 567q0 -141 81 -225 t192 -84q109 0 189.5 84.5t80.5 224.5q0 141 -80.5 224t-189.5 83q-111 0 -192 -83t-81 -224z" />
<glyph unicode="&#xf5;" horiz-adv-x="1337" d="M76 567q0 172 78.5 308.5t214 211t301.5 74.5t301 -74.5t213 -210.5t78 -309q0 -172 -78 -308.5t-213 -212t-301 -75.5q-124 0 -233.5 44.5t-189 122t-125.5 189t-46 240.5zM217 1296q-4 79 14 140t54.5 98t85 55.5t106.5 18.5q51 0 100 -18.5t81 -40t73 -40t78 -18.5 q51 0 76.5 34t25.5 79h191q9 -155 -65 -234.5t-197 -79.5q-50 0 -98.5 18.5t-80.5 41t-73 41t-78 18.5q-53 0 -78.5 -34t-23.5 -79h-191zM397 567q0 -141 81 -225t192 -84q109 0 189.5 84.5t80.5 224.5q0 141 -80.5 224t-189.5 83q-111 0 -192 -83t-81 -224z" />
<glyph unicode="&#xf6;" horiz-adv-x="1337" d="M76 567q0 172 78.5 308.5t214 211t301.5 74.5t301 -74.5t213 -210.5t78 -309q0 -172 -78 -308.5t-213 -212t-301 -75.5q-124 0 -233.5 44.5t-189 122t-125.5 189t-46 240.5zM283 1450q0 62 43.5 105.5t105.5 43.5q63 0 108.5 -44t45.5 -105t-45.5 -105.5t-108.5 -44.5 q-61 0 -105 44t-44 106zM397 567q0 -141 81 -225t192 -84q109 0 189.5 84.5t80.5 224.5q0 141 -80.5 224t-189.5 83q-111 0 -192 -83t-81 -224zM752 1450q0 62 44 105.5t107 43.5t107.5 -43.5t44.5 -105.5t-44.5 -106t-107.5 -44t-107 44t-44 106z" />
<glyph unicode="&#xf7;" horiz-adv-x="1413" d="M119 633v260h1173v-260h-1173zM524 348q0 76 53 129t128 53q77 0 129.5 -53t52.5 -129q0 -75 -53 -127.5t-129 -52.5q-75 0 -128 52.5t-53 127.5zM524 1178q0 75 53 127.5t128 52.5q76 0 129 -52.5t53 -127.5q0 -77 -53 -130t-129 -53q-75 0 -128 53.5t-53 129.5z" />
<glyph unicode="&#xf8;" horiz-adv-x="1337" d="M76 567q0 129 46 240t125.5 188.5t188.5 121.5t232 44q201 0 350 -112l106 112l123 -121l-104 -108q117 -159 117 -365q0 -172 -78 -308.5t-213 -212t-301 -75.5q-198 0 -346 105l-103 -109l-125 119l103 107q-121 159 -121 374zM393 567q0 -82 33 -135l377 395 q-63 47 -135 47q-112 0 -193.5 -83t-81.5 -224zM535 297q56 -39 133 -39q111 0 192.5 83.5t81.5 225.5q0 62 -29 125z" />
<glyph unicode="&#xf9;" horiz-adv-x="1275" d="M125 459v674h319v-674q0 -96 50 -148.5t141 -52.5q93 0 144.5 52.5t51.5 150.5v672h320v-674q0 -217 -139 -352.5t-377 -135.5q-236 0 -373 135.5t-137 352.5zM270 1636l305 -362h244l-231 362h-318z" />
<glyph unicode="&#xfa;" horiz-adv-x="1275" d="M125 459v674h319v-674q0 -96 50 -148.5t141 -52.5q93 0 144.5 52.5t51.5 150.5v672h320v-674q0 -217 -139 -352.5t-377 -135.5q-236 0 -373 135.5t-137 352.5zM479 1274l232 362h315l-303 -362h-244z" />
<glyph unicode="&#xfb;" horiz-adv-x="1275" d="M125 459v674h319v-674q0 -96 50 -148.5t141 -52.5q93 0 144.5 52.5t51.5 150.5v672h320v-674q0 -217 -139 -352.5t-377 -135.5q-236 0 -373 135.5t-137 352.5zM231 1278l291 358h223l299 -358h-276l-135 178l-133 -178h-269z" />
<glyph unicode="&#xfc;" horiz-adv-x="1275" d="M125 459v674h319v-674q0 -96 50 -148.5t141 -52.5q93 0 144.5 52.5t51.5 150.5v672h320v-674q0 -217 -139 -352.5t-377 -135.5q-236 0 -373 135.5t-137 352.5zM250 1450q0 61 44.5 105t106.5 44q63 0 108.5 -44t45.5 -105t-45.5 -105.5t-108.5 -44.5q-62 0 -106.5 44.5 t-44.5 105.5zM721 1450q0 62 44 105.5t107 43.5t106.5 -43.5t43.5 -105.5t-43.5 -106t-106.5 -44t-107 44t-44 106z" />
<glyph unicode="&#xfd;" horiz-adv-x="1220" d="M25 1133h342l247 -752h7l247 752h328l-618 -1563h-318l193 461zM455 1274l231 362h315l-303 -362h-243z" />
<glyph unicode="&#xfe;" horiz-adv-x="1386" d="M135 -430v2075h320v-680q56 88 152 136t206 48q101 0 191.5 -42t158.5 -116.5t108 -184.5t40 -239q0 -172 -68.5 -306.5t-181.5 -205.5t-248 -71q-111 0 -205.5 47t-152.5 139v-600h-320zM453 565q0 -133 75 -214t189 -81q115 0 190.5 81.5t75.5 215.5t-75.5 214.5 t-190.5 80.5t-189.5 -81.5t-74.5 -215.5z" />
<glyph unicode="&#xff;" horiz-adv-x="1220" d="M25 1133h342l247 -752h7l247 752h328l-618 -1563h-318l193 461zM225 1450q0 61 44 105t106 44q63 0 108 -44t45 -105q0 -62 -45 -106t-108 -44q-61 0 -105.5 44t-44.5 106zM694 1450q0 62 44.5 105.5t107.5 43.5t107 -43.5t44 -105.5t-44 -106t-107 -44t-107.5 44 t-44.5 106z" />
<glyph unicode="&#x152;" horiz-adv-x="2070" d="M88 760q0 143 41 268t113.5 216.5t168.5 157.5t208 99t231 33q36 0 149 -4t136 -4h804v-295h-600v-324h549v-270h-549v-340h600v-297h-796q-22 0 -138.5 -6t-154.5 -6q-149 0 -286 53t-243 149t-169.5 244t-63.5 326zM422 760q0 -109 37.5 -199.5t100.5 -149.5t143 -91.5 t167 -32.5q70 0 144 8v928q-62 10 -144 10q-87 0 -167 -32.5t-143 -91.5t-100.5 -149.5t-37.5 -199.5z" />
<glyph unicode="&#x153;" horiz-adv-x="2101" d="M76 567q0 129 46 240t125.5 188.5t188.5 121.5t232 44q257 0 426 -188q159 188 399 188q233 0 378.5 -150t145.5 -425q0 -40 -6 -109h-751q21 -119 108 -182.5t217 -63.5q216 0 365 107v-264q-85 -49 -191 -76t-203 -27q-286 0 -460 193q-81 -88 -191.5 -140.5 t-236.5 -52.5q-166 0 -301 75.5t-213 212t-78 308.5zM393 567q0 -142 81.5 -225.5t193.5 -83.5q111 0 192.5 83.5t81.5 225.5q0 141 -81.5 224t-192.5 83q-112 0 -193.5 -83t-81.5 -224zM1255 676h459q-1 105 -64.5 167t-156.5 62q-95 0 -162 -64.5t-76 -164.5z" />
<glyph unicode="&#x178;" horiz-adv-x="1464" d="M6 1526h365l368 -625h6l365 625h348l-563 -914v-612h-322v610zM344 1843q0 61 45 105.5t107 44.5q63 0 108 -44t45 -106q0 -61 -45 -104t-108 -43q-62 0 -107 43t-45 104zM815 1843q0 62 44.5 106t107.5 44t107 -44t44 -106q0 -61 -44 -104t-107 -43t-107.5 43t-44.5 104 z" />
<glyph unicode="&#x2c6;" horiz-adv-x="1114" d="M145 1278l293 358h221l299 -358h-276l-135 178l-131 -178h-271z" />
<glyph unicode="&#x2dc;" horiz-adv-x="892" d="M-6 1296q-9 155 65 233.5t197 78.5q51 0 99.5 -18.5t80 -40t72.5 -40t78 -18.5q53 0 78.5 34t23.5 79h191q9 -155 -65.5 -234.5t-197.5 -79.5q-50 0 -98.5 18.5t-80 41t-72.5 41t-78 18.5q-51 0 -77 -34t-26 -79h-190z" />
<glyph unicode="&#x2000;" horiz-adv-x="1055" />
<glyph unicode="&#x2001;" horiz-adv-x="2111" />
<glyph unicode="&#x2002;" horiz-adv-x="1055" />
<glyph unicode="&#x2003;" horiz-adv-x="2111" />
<glyph unicode="&#x2004;" horiz-adv-x="703" />
<glyph unicode="&#x2005;" horiz-adv-x="527" />
<glyph unicode="&#x2006;" horiz-adv-x="351" />
<glyph unicode="&#x2007;" horiz-adv-x="351" />
<glyph unicode="&#x2008;" horiz-adv-x="263" />
<glyph unicode="&#x2009;" horiz-adv-x="422" />
<glyph unicode="&#x200a;" horiz-adv-x="117" />
<glyph unicode="&#x2010;" horiz-adv-x="806" d="M106 530v244h594v-244h-594z" />
<glyph unicode="&#x2011;" horiz-adv-x="806" d="M106 530v244h594v-244h-594z" />
<glyph unicode="&#x2012;" horiz-adv-x="806" d="M106 530v244h594v-244h-594z" />
<glyph unicode="&#x2013;" horiz-adv-x="987" d="M106 530v244h775v-244h-775z" />
<glyph unicode="&#x2014;" horiz-adv-x="1591" d="M106 530v244h1379v-244h-1379z" />
<glyph unicode="&#x2018;" horiz-adv-x="573" d="M115 905v90q0 227 139 531h227q-42 -153 -62 -269t-20 -239v-113h-284z" />
<glyph unicode="&#x2019;" horiz-adv-x="573" d="M90 905q43 150 63.5 268t20.5 242v111h285v-88q0 -214 -140 -533h-229z" />
<glyph unicode="&#x201a;" horiz-adv-x="573" d="M90 -274q42 152 62 269.5t20 240.5v112h285v-90q0 -222 -140 -532h-227z" />
<glyph unicode="&#x201c;" horiz-adv-x="1038" d="M115 905v90q0 227 139 531h227q-42 -153 -62 -269t-20 -239v-113h-284zM580 905v90q0 227 139 531h227q-42 -153 -62 -269t-20 -239v-113h-284z" />
<glyph unicode="&#x201d;" horiz-adv-x="1036" d="M90 905q43 150 63.5 268t20.5 242v111h285v-88q0 -214 -140 -533h-229zM553 905q43 150 63.5 268t20.5 242v111h285v-88q0 -223 -140 -533h-229z" />
<glyph unicode="&#x201e;" horiz-adv-x="1042" d="M90 -274q42 153 62 269.5t20 237.5v113h285v-88q0 -222 -140 -532h-227zM559 -274q43 151 63.5 268t20.5 239v113h285v-88q0 -213 -140 -532h-229z" />
<glyph unicode="&#x2022;" horiz-adv-x="819" d="M133 760q0 115 80.5 195.5t196.5 80.5t196 -80t80 -196t-80.5 -196.5t-195.5 -80.5q-116 0 -196.5 80.5t-80.5 196.5z" />
<glyph unicode="&#x2026;" horiz-adv-x="1935" d="M129 168q0 75 52.5 127.5t127.5 52.5q76 0 129.5 -52.5t53.5 -127.5q0 -76 -53 -128t-130 -52q-75 0 -127.5 52t-52.5 128zM786 168q0 75 53.5 127.5t129.5 52.5q75 0 127.5 -52.5t52.5 -127.5q0 -76 -52.5 -128t-127.5 -52q-77 0 -130 52t-53 128zM1446 168 q0 75 52.5 127.5t127.5 52.5q76 0 129 -52.5t53 -127.5q0 -76 -52.5 -128t-129.5 -52q-75 0 -127.5 52t-52.5 128z" />
<glyph unicode="&#x202f;" horiz-adv-x="422" />
<glyph unicode="&#x2039;" horiz-adv-x="851" d="M123 479v174l606 473v-305l-344 -256l344 -254v-305z" />
<glyph unicode="&#x203a;" horiz-adv-x="851" d="M123 6v305l342 256l-342 254v305l606 -473v-174z" />
<glyph unicode="&#x205f;" horiz-adv-x="527" />
<glyph unicode="&#x20ac;" horiz-adv-x="1380" d="M98 526v187h154l-2 49q0 35 2 51h-154v186h183q69 252 267 408t456 156q151 0 247 -47v-304q-109 50 -213 50q-154 0 -263.5 -70.5t-162.5 -192.5h459v-186h-504q-2 -16 -2 -51l2 -49h504v-187h-461q54 -123 163 -191.5t265 -68.5q113 0 213 49v-305q-91 -45 -247 -45 q-259 0 -456.5 154.5t-266.5 406.5h-183z" />
<glyph unicode="&#x2122;" horiz-adv-x="2004" d="M63 1294v232h703v-232h-236v-647h-231v647h-236zM809 647l131 879h260l172 -518h2l168 518h252l131 -879h-229l-66 545h-6l-172 -545h-172l-166 545h-6l-72 -545h-227z" />
<glyph unicode="&#x25fc;" horiz-adv-x="1136" d="M0 0v1137h1137v-1137h-1137z" />
</font>
</defs>
</svg>
